<svg width="859" height="203" viewBox="0 0 859 203" fill="none" xmlns="http://www.w3.org/2000/svg">
<g clip-path="url(#clip0_22_2)">
<mask id="mask0_22_2" style="mask-type:luminance" maskUnits="userSpaceOnUse" x="0" y="0" width="859" height="203">
<path d="M859 0H0V203H859V0Z" fill="white"/>
</mask>
<g mask="url(#mask0_22_2)">
<path d="M99.2612 184.291C147.743 184.291 187.045 144.988 187.045 96.5063C187.045 48.0242 147.743 8.72168 99.2612 8.72168C50.7791 8.72168 11.4766 48.0242 11.4766 96.5063C11.4766 144.988 50.7791 184.291 99.2612 184.291Z" fill="#FCDD53" stroke="#E42A2B" stroke-width="8.02908"/>
<path d="M158.408 117.114C155.464 120.593 152.788 122.467 147.971 123.27H94.9787C92.3023 121.932 92.0347 120.058 94.9787 118.72H124.954C127.63 118.72 130.039 117.917 131.912 115.508C140.744 103.732 150.915 92.4917 158.676 79.6452C155.197 82.8568 153.056 84.7302 147.971 85.5331H111.304C107.558 85.5331 104.614 86.8714 102.205 90.083C94.9787 99.4503 87.4849 108.55 80.2587 117.917C61.2566 140.666 48.1424 90.6183 73.8355 98.6473C70.3562 94.0975 66.6093 89.8154 63.13 85.2655C60.4537 82.5892 56.4391 82.3215 53.7627 85.2655C37.7046 105.606 37.4369 136.919 70.8915 139.863H142.083C147.435 132.102 153.056 124.608 158.408 117.114ZM147.435 53.4167C145.027 55.2902 143.421 56.0932 139.674 56.0932H107.29C104.078 56.0932 100.064 57.4313 97.9227 60.1077L77.3147 86.336L83.2027 93.8299L90.4289 84.9979C92.8376 82.3215 95.514 81.2509 99.2609 81.2509H119.333C129.504 81.2509 142.618 59.3047 147.435 53.4167Z" fill="#478C3E"/>
<path fill-rule="evenodd" clip-rule="evenodd" d="M807.962 71.0807L795.651 116.044H777.987L798.327 42.176H816.259L830.979 86.8713L843.29 42.176H860.954L840.346 116.044H822.682L807.962 71.0807ZM736.771 89.8153H754.167L753.097 63.3193L736.771 89.8153ZM767.549 42.176L773.437 116.044H754.97L754.167 102.394H729.812L721.516 116.044H703.049L749.617 42.176H767.549ZM686.723 56.6284H665.58L669.594 42.176H729.277L725.263 56.6284H704.387L687.793 116.044H670.397L686.723 56.6284ZM612.32 92.224C612.32 100.521 616.602 106.141 625.97 104.535C639.084 101.859 638.013 85.8007 622.49 84.1949C609.376 82.5891 602.685 71.8837 605.897 59.3048C611.517 47.2611 620.884 42.176 634.534 40.5702H634.802C644.972 38.4291 660.227 41.1055 661.833 53.952C662.1 56.0931 662.636 60.3753 661.298 62.5164H644.704C644.704 58.7695 643.901 55.2902 640.154 54.2197C627.843 50.7404 612.32 65.1928 638.281 71.8837C644.972 73.4895 654.071 75.8982 655.945 83.392C658.621 96.5062 650.86 108.817 640.422 114.705C630.787 118.72 616.87 118.988 606.967 117.114C594.656 112.832 592.247 105.071 594.388 92.224H612.32ZM600.009 42.176C593.05 66.7986 586.359 91.4211 579.669 116.044H562.005L582.345 42.176H600.009ZM518.112 71.0807L552.102 42.176H573.513L537.114 72.6866L555.581 116.044H533.903L521.859 84.7302L512.224 92.7593L505.533 116.044H488.137L508.745 42.176H526.141L518.112 71.0807ZM450.668 71.616H485.461L481.714 84.9978H447.189L442.639 101.591H482.249L478.502 116.044H420.96L441.301 42.176H498.04L494.025 56.6284H454.95L450.668 71.616ZM384.294 55.8255L380.012 71.616H393.394C398.211 71.616 402.761 69.4749 404.635 63.8546C405.705 60.3753 404.902 57.6989 401.423 56.3608C396.873 55.0226 389.379 55.8255 384.294 55.8255ZM376.265 84.4625L371.448 102.662C381.35 102.662 395.535 105.606 399.282 93.2945C400.352 86.8713 395.803 84.4625 390.182 84.4625H376.265ZM406.776 42.176C415.875 42.176 425.778 45.6553 423.904 56.6284C422.566 65.1928 415.072 73.2218 407.311 76.1658V76.7011C418.552 76.7011 418.552 91.4211 415.875 98.9149C411.861 110.691 399.282 116.044 387.506 116.044H350.037L370.377 42.176H406.776ZM332.908 56.896H299.186L303.468 42.176H358.601L355.122 55.8255L306.412 101.324H344.684L340.937 116.044H280.987L285.269 100.521L332.908 56.896ZM249.673 42.176C245.659 56.6284 241.376 71.0807 237.362 85.2655C235.756 92.7593 236.024 105.338 246.997 103.732C255.829 102.662 262.787 93.5622 264.661 85.2655C268.408 71.0807 272.155 56.6284 276.169 42.176H293.566C288.213 61.7135 285.269 88.2095 272.69 105.338C263.858 113.903 255.829 117.649 242.715 117.649C221.571 117.649 216.486 108.015 219.163 87.9418C223.177 72.6866 227.459 57.4313 231.742 42.176H249.673Z" fill="#0F477F"/>
<path fill-rule="evenodd" clip-rule="evenodd" d="M621.151 172.515C616.334 172.515 608.037 174.388 606.431 179.473C605.361 181.614 607.234 183.22 609.107 184.023C617.137 184.023 618.475 178.403 621.151 172.515ZM600.543 164.218C600.543 155.654 611.784 152.442 619.01 151.372C625.969 151.372 631.054 151.104 634.533 157.26C634.801 159.133 635.068 160.204 634.801 162.077C633.462 168.768 626.504 183.488 629.18 189.644V189.911H617.404V186.7C593.585 203.828 585.02 172.247 609.643 169.036C611.784 168.5 623.56 167.43 623.56 162.88C623.56 155.386 614.728 158.33 612.051 162.345C612.051 162.88 611.516 163.95 611.516 164.218H600.543Z" fill="#0F477F"/>
<path fill-rule="evenodd" clip-rule="evenodd" d="M769.421 172.515C764.604 172.515 756.307 174.388 754.702 179.473C753.631 181.614 755.504 183.22 757.378 184.023C765.407 184.023 766.745 178.403 769.421 172.515ZM748.814 164.218C748.814 155.654 760.054 152.442 767.28 151.372C774.239 151.372 779.324 151.104 782.803 157.26C783.071 159.133 783.339 160.204 783.071 162.077C781.733 168.768 774.774 183.488 777.451 189.644V189.911H765.675V186.7C741.855 203.828 733.291 172.247 757.913 169.036C760.054 168.5 771.83 167.43 771.83 162.88C771.83 155.386 762.998 158.33 760.322 162.345C760.322 162.88 759.787 163.95 759.787 164.218H748.814Z" fill="#0F477F"/>
<path fill-rule="evenodd" clip-rule="evenodd" d="M716.698 166.894L704.655 189.911H692.879L691.808 152.442H703.852L703.316 175.459L715.092 152.442H726.065L724.995 175.459L737.039 152.442H749.617L727.671 189.911H715.628L716.698 166.894ZM690.737 151.639L688.329 160.471H687.793C684.047 160.471 683.244 160.204 679.764 161.542C674.679 164.486 672.271 168.5 670.665 174.656L666.65 189.911H653.268L665.58 152.442H676.285L674.679 157.527C679.229 153.245 684.849 151.639 690.737 151.639ZM647.113 147.089L649.254 138.257H661.03L658.621 147.089H647.113ZM657.015 152.442L646.845 189.911H635.337L645.775 152.442H657.015ZM782.269 195.799C789.763 195.799 789.228 195.799 793.242 189.376L787.622 152.442H801.271L802.877 175.726L815.188 152.442H827.232L804.215 192.052C798.06 201.955 792.439 203.293 780.128 203.293L782.269 195.799ZM821.879 177.6H832.852C832.317 180.009 832.317 181.079 833.923 182.953C837.937 186.164 842.487 183.488 844.628 179.741C845.699 173.05 832.585 175.191 828.035 170.641C826.964 169.303 826.429 168.5 826.429 166.627C826.429 162.88 827.5 159.401 829.908 156.457C831.514 154.851 833.388 153.78 835.529 152.977C839.008 151.639 842.487 151.372 845.966 151.372C848.375 151.372 850.249 151.372 852.657 151.639C859.348 152.71 859.348 157.527 859.348 162.612H848.91L849.178 161.542C849.178 158.062 846.502 158.062 844.093 158.062C840.881 158.062 838.473 159.401 837.937 162.88C837.937 164.486 838.74 165.289 840.078 165.824C849.713 167.43 859.883 169.303 855.869 180.009C853.996 184.558 850.516 187.77 845.966 189.644C843.022 190.714 839.276 190.982 836.064 190.982C833.388 190.982 830.711 190.982 828.035 190.179C825.626 189.108 824.02 188.038 822.414 186.164C820.809 182.953 820.541 181.347 821.076 177.6H821.879Z" fill="#0F477F"/>
</g>
</g>
<defs>
<clipPath id="clip0_22_2">
<rect width="859" height="203" fill="white"/>
</clipPath>
</defs>
</svg>
