<svg width="120" height="120" viewBox="0 0 120 120" fill="none" xmlns="http://www.w3.org/2000/svg">
<path d="M96.2187 39.6177H23.7817C22.1704 39.6177 20.8643 40.7153 20.8643 42.0694V93.1175C20.8643 94.4717 22.1704 95.5693 23.7817 95.5693H36.6955V112.773C36.6955 116.764 40.5459 120 45.2959 120C50.0455 120 53.8962 116.764 53.8962 112.773V95.5693H65.9252V112.773C65.9252 116.764 69.7755 120 74.5256 120C79.2752 120 83.1259 116.764 83.1259 112.773V95.5693H96.2191C97.8304 95.5693 99.1366 94.4717 99.1366 93.1175V42.0694C99.1362 40.7153 97.8301 39.6177 96.2187 39.6177Z" fill="#AAC148"/>
<path d="M8.60034 39.6055C3.85068 39.6055 0 42.8412 0 46.833V76.1883C0 80.1798 3.85033 83.4159 8.60034 83.4159C13.35 83.4159 17.2007 80.1801 17.2007 76.1883V46.833C17.2003 42.8415 13.35 39.6055 8.60034 39.6055Z" fill="#AAC148"/>
<path d="M111.399 39.6055C106.65 39.6055 102.799 42.8412 102.799 46.833V76.1883C102.799 80.1798 106.649 83.4159 111.399 83.4159C116.149 83.4159 120 80.1801 120 76.1883V46.833C120 42.8415 116.149 39.6055 111.399 39.6055Z" fill="#AAC148"/>
<path d="M24.3678 36.0372H95.4613C97.316 36.0372 98.6992 34.6014 98.3183 33.0759C95.9666 23.6569 88.8307 15.7192 79.1479 11.1337L85.2255 1.91828C85.6368 1.29437 85.3685 0.508091 84.6261 0.162444C83.882 -0.184075 82.9477 0.0421932 82.5364 0.666102L76.4129 9.95095C71.3974 7.99499 65.8079 6.90257 59.9145 6.90257C54.0208 6.90257 48.4313 7.99499 43.4158 9.95095L37.2923 0.665811C36.8806 0.0416124 35.945 -0.183494 35.203 0.162153C34.4605 0.507801 34.1923 1.29408 34.6036 1.91798L40.6812 11.1334C30.9984 15.7192 23.8625 23.6566 21.5108 33.0759C21.1295 34.6014 22.5128 36.0372 24.3678 36.0372ZM81.128 22.3034C81.128 23.8376 79.648 25.0816 77.822 25.0816C75.9964 25.0816 74.5161 23.8379 74.5161 22.3034C74.5161 20.7691 75.9961 19.5251 77.822 19.5251C79.648 19.5251 81.128 20.7691 81.128 22.3034ZM42.0064 19.5251C43.832 19.5251 45.3123 20.7689 45.3123 22.3034C45.3123 23.8376 43.8323 25.0816 42.0064 25.0816C40.1807 25.0816 38.7004 23.8379 38.7004 22.3034C38.7004 20.7691 40.1804 19.5251 42.0064 19.5251Z" fill="#AAC148"/>
</svg>
