<svg width="850" height="160" viewBox="0 0 850 160" fill="none" xmlns="http://www.w3.org/2000/svg">
<g clip-path="url(#clip0_25_7)">
<path fill-rule="evenodd" clip-rule="evenodd" d="M104.825 58.6605L91.0143 69.8049L76.8111 81.2668V75.9987V58.6605L2.38965 118.717H23.8743L63.0012 87.1431V92.4112V108.092L62.9957 109.753L63.0012 109.749L75.5463 99.6259L76.8111 98.6049L91.0143 87.1431V97.4666V108.092H104.825H108.508H108.905H117.719C126.449 108.092 132.984 106.571 137.326 103.544C141.666 100.518 143.845 95.9555 143.845 89.8566C143.845 85.6816 142.715 82.2208 140.44 79.4743C138.181 76.7271 134.727 74.6634 130.112 73.2665C132.968 72.0244 135.163 70.3485 136.664 68.2224C138.164 66.0961 138.906 63.0481 138.906 60.2394C138.906 54.8388 136.694 51.3563 132.258 48.6061C127.834 45.8627 121.269 44.4937 112.571 44.4937H108.508H63.6868L50.4263 55.1185H108.508H108.921H113.378C117.823 55.1185 118.334 55.4502 119.806 56.641C121.287 57.8403 122.425 60.0769 122.425 62.5294C122.425 64.7489 121.836 66.7435 120.452 67.9277C118.416 69.6682 117.49 69.9396 114.657 69.9396H108.508V80.5652H114.314C118.778 80.5652 120.323 80.6698 122.854 82.4201C124.773 83.747 126.217 86.5996 126.217 89.3302C126.217 91.5452 125.352 93.5338 123.306 95.2765C120.498 97.6688 118.703 97.4666 114.41 97.4666H108.905H108.508H104.825V75.9987V58.6605Z" fill="url(#paint0_radial_25_7)"/>
<path d="M13.4543 90.4106C13.5856 91.1188 13.5958 91.8143 13.4848 92.4954C13.3738 93.1775 13.1189 93.8036 12.7202 94.3751C12.3215 94.9457 11.7602 95.4419 11.037 95.863C10.3131 96.2848 9.39923 96.59 8.29381 96.7795L7.94904 96.8388C6.88975 97.0208 5.95631 97.0329 5.14953 96.8742C4.34196 96.7164 3.65087 96.4351 3.07705 96.0307C2.50324 95.6269 2.04511 95.1232 1.70113 94.5194C1.35716 93.9156 1.1195 93.2601 0.988158 92.5519C0.856821 91.8429 0.843531 91.149 0.948289 90.4678C1.05383 89.7874 1.30321 89.1619 1.69566 88.592C2.0889 88.0221 2.63535 87.5281 3.33581 87.1108C4.03629 86.6935 4.91655 86.3943 5.97508 86.2124L6.32061 86.153C7.42604 85.9628 8.3931 85.9455 9.22412 86.0996C10.0544 86.2537 10.7595 86.5327 11.3388 86.9357C11.9189 87.3386 12.3832 87.8416 12.7327 88.4438C13.0822 89.0468 13.3229 89.7024 13.4543 90.4106ZM11.6242 90.725C11.5475 90.3152 11.399 89.9295 11.1778 89.5679C10.9557 89.2061 10.6477 88.9047 10.2521 88.6641C9.85735 88.4236 9.3664 88.2596 8.78008 88.1716C8.19374 88.0845 7.50344 88.1085 6.70916 88.2445L6.36361 88.304C5.60451 88.4348 4.97909 88.6364 4.48971 88.9092C3.99954 89.1814 3.61882 89.4957 3.34598 89.8505C3.07314 90.2061 2.8988 90.5903 2.82062 91.0031C2.74323 91.4166 2.74246 91.8278 2.81828 92.2375C2.89646 92.6579 3.04655 93.0496 3.2678 93.4112C3.48982 93.7728 3.79238 94.0751 4.17544 94.3172C4.55928 94.56 5.02913 94.7247 5.58576 94.8119C6.14237 94.8991 6.80062 94.8772 7.56051 94.7472L7.90527 94.6879C8.69955 94.551 9.35702 94.3472 9.87611 94.0751C10.396 93.8029 10.7978 93.4886 11.0824 93.1315C11.3662 92.7737 11.5468 92.3887 11.6249 91.976C11.7023 91.5625 11.7023 91.1452 11.6242 90.725ZM2.92539 82.4561L5.13467 82.4028L5.19252 84.5945L2.98324 84.6486L0.21655 82.8599L0.18997 81.848L2.92539 82.4561ZM10.5844 79.8857L2.30544 72.9199L1.81918 79.0752L0 78.9428L0.677795 70.3651L2.32186 70.4847L10.6016 77.4512L11.1144 70.9591L12.9336 71.0913L12.2285 80.006L10.5844 79.8857ZM1.24458 66.2473L2.34844 61.6452C2.66194 60.3417 3.18181 59.4499 3.90885 58.9711C4.63512 58.4913 5.48335 58.3597 6.45195 58.5748C7.06643 58.7108 7.55661 58.9815 7.92168 59.386C8.28677 59.7898 8.50176 60.2815 8.56665 60.8618C8.88952 60.2176 9.34059 59.75 9.92068 59.4575C10.5008 59.1649 11.1785 59.1041 11.9533 59.2762C12.4544 59.3875 12.8945 59.5664 13.2737 59.8116C13.6528 60.0575 13.9515 60.3747 14.1704 60.7642C14.3893 61.1529 14.5206 61.6175 14.5644 62.1581C14.609 62.6986 14.5456 63.3257 14.3744 64.0377L13.2072 68.9028L1.24458 66.2473ZM12.5459 63.8572C12.7515 63.0023 12.7499 62.3814 12.5427 61.9949C12.3356 61.6084 11.9353 61.3498 11.3435 61.2183C11.0582 61.1551 10.7931 61.1363 10.5469 61.1626C10.3006 61.1889 10.0794 61.2724 9.88316 61.4137C9.6877 61.5551 9.51493 61.7619 9.36562 62.034C9.21551 62.3069 9.08965 62.6573 8.98724 63.0844L8.34853 65.7466L11.9033 66.536L12.5459 63.8572ZM7.27986 62.9994C7.46358 62.2324 7.44402 61.6656 7.21966 61.2988C6.99607 60.9311 6.63333 60.6919 6.13221 60.5807C5.61938 60.4672 5.19409 60.528 4.8548 60.7649C4.5163 61.001 4.25361 61.5085 4.06677 62.2867L3.4953 64.6692L6.70759 65.3827L7.27986 62.9994ZM4.72738 53.5436L7.75126 46.1687L9.44771 46.8124L7.1962 52.3044L10.1982 53.4428L12.2574 48.4212L13.9538 49.0647L11.8954 54.0864L15.2242 55.3479L17.4757 49.8564L19.1729 50.4993L16.1491 57.8749L4.72738 53.5436ZM9.77604 42.4666L10.8252 40.7119L15.9036 43.5207L13.4128 36.3843L14.6723 34.2784L16.7299 40.5142L25.4905 39.8713L24.2138 42.0058L17.2928 42.3817L18.048 44.7056L21.469 46.5972L20.4198 48.352L9.77604 42.4666ZM17.4663 31.0778L18.7664 29.4863L28.4198 36.782L27.1197 38.3729L17.4663 31.0778ZM33.5661 31.6154C32.9907 32.1431 32.431 32.5393 31.886 32.8055C31.342 33.0717 30.8198 33.2243 30.3179 33.2649C29.8167 33.3047 29.343 33.2461 28.8958 33.089C28.4494 32.9319 28.0312 32.689 27.6427 32.362L29.1656 30.9658C29.3689 31.1056 29.5791 31.2079 29.7972 31.2726C30.0145 31.3372 30.2521 31.3523 30.5094 31.3184C30.7667 31.2847 31.0394 31.1891 31.3287 31.0327C31.6179 30.8764 31.9361 30.6396 32.2832 30.3215C32.6382 29.9952 32.911 29.6877 33.1002 29.3975C33.2893 29.1072 33.4114 28.8396 33.4669 28.5945C33.5231 28.3494 33.516 28.1223 33.4464 27.914C33.3778 27.7059 33.2621 27.5201 33.101 27.3569C32.7053 26.9585 32.2144 26.8337 31.6273 26.9833C31.041 27.1329 30.2608 27.4991 29.2867 28.081C28.7332 28.4028 28.2118 28.6592 27.7232 28.8502C27.2345 29.0419 26.7733 29.1471 26.3387 29.1651C25.904 29.1824 25.4858 29.1072 25.0847 28.9389C24.6836 28.7712 24.2896 28.4915 23.9027 28.1005C23.5877 27.7833 23.3593 27.4179 23.2162 27.0051C23.0731 26.5924 23.0326 26.1555 23.0935 25.6961C23.1545 25.2361 23.3257 24.7609 23.6064 24.27C23.8877 23.7798 24.2943 23.2896 24.8274 22.8009C25.3442 22.3271 25.8532 21.9693 26.355 21.7264C26.8577 21.4836 27.3447 21.3439 27.8169 21.3069C28.2899 21.2701 28.741 21.3257 29.1718 21.4746C29.6018 21.6243 30.0036 21.8543 30.3765 22.1648L28.8528 23.5617C28.4783 23.3143 28.0594 23.2211 27.5949 23.282C27.1298 23.343 26.6349 23.6135 26.1104 24.0947C25.5014 24.6534 25.1644 25.1571 25.0995 25.6052C25.0346 26.0525 25.1434 26.4195 25.4256 26.7037C25.8125 27.0945 26.273 27.2321 26.8046 27.1171C27.337 27.0022 28.0226 26.6916 28.8622 26.1863C29.4837 25.8188 30.0591 25.5241 30.5899 25.3015C31.1207 25.079 31.6203 24.9511 32.0886 24.918C32.5561 24.8849 32.9969 24.9511 33.4106 25.1158C33.8241 25.2804 34.2291 25.5616 34.6239 25.9609C34.971 26.3104 35.2219 26.7021 35.3766 27.1351C35.5315 27.5683 35.5713 28.0284 35.497 28.5156C35.4237 29.0035 35.229 29.5079 34.9138 30.0298C34.5988 30.5516 34.15 31.0801 33.5661 31.6154ZM34.5191 17.3101L31.1598 19.607L30.1029 18.1777L38.5366 12.4104L39.5935 13.8397L36.2344 16.1373L42.2922 24.33L40.5771 25.503L34.5191 17.3101ZM50.9112 19.4921C50.2451 19.8205 49.5573 20.0333 48.8466 20.1303C48.1368 20.2273 47.4394 20.1761 46.7545 19.9761C46.0706 19.7761 45.4131 19.4055 44.7821 18.8627C44.1521 18.3206 43.5807 17.5689 43.0693 16.608L42.9091 16.3079C42.4189 15.3869 42.1343 14.5321 42.0561 13.7435C41.9771 12.9548 42.0553 12.2375 42.2892 11.5917C42.5228 10.9459 42.8904 10.376 43.3899 9.88352C43.8893 9.39107 44.4718 8.98131 45.1386 8.65276C45.804 8.32496 46.4911 8.10993 47.1986 8.00768C47.9061 7.90544 48.6011 7.95204 49.2829 8.14678C49.9646 8.3415 50.6149 8.70013 51.2349 9.22191C51.8548 9.74444 52.4099 10.4662 52.9001 11.3864L53.0604 11.6872C53.5716 12.648 53.8719 13.5329 53.9617 14.3419C54.0509 15.1501 53.9797 15.8801 53.7483 16.5312C53.5169 17.1824 53.1527 17.7568 52.6554 18.2537C52.159 18.7514 51.5773 19.1642 50.9112 19.4921ZM50.0638 17.9011C50.4484 17.7108 50.7886 17.4612 51.0832 17.1523C51.3787 16.8425 51.5874 16.4711 51.7118 16.0374C51.8353 15.6035 51.8548 15.1043 51.7712 14.5397C51.6868 13.9743 51.4608 13.3465 51.0935 12.6563L50.9332 12.3556C50.5814 11.6954 50.1983 11.1797 49.784 10.809C49.3696 10.4376 48.9459 10.179 48.5135 10.0324C48.0805 9.88502 47.6473 9.8369 47.2136 9.88578C46.7804 9.9354 46.3707 10.0549 45.9861 10.2444C45.5906 10.4391 45.245 10.6918 44.9503 11.0008C44.6556 11.3105 44.4429 11.6767 44.3139 12.1007C44.1849 12.524 44.1584 13.0051 44.2349 13.542C44.3107 14.0795 44.5243 14.6787 44.8761 15.3389L45.0362 15.6396C45.4038 16.3297 45.7993 16.8749 46.2214 17.2726C46.6435 17.6711 47.0743 17.9492 47.5121 18.1056C47.9507 18.2627 48.3862 18.3161 48.8201 18.2672C49.2531 18.2176 49.6683 18.0959 50.0638 17.9011ZM54.4222 4.66351L56.3798 4.12895L64.579 10.6564L62.1837 2.54407L64.2077 1.99072L67.5614 13.3487L65.6047 13.8833L57.4054 7.35584L59.8008 15.4689L57.776 16.0215L54.4222 4.66351ZM75.6036 0.115642L80.2495 0.00286601C81.0212 -0.0159299 81.6982 0.0577503 82.2814 0.223155C82.8653 0.389311 83.354 0.63065 83.748 0.947174C84.1427 1.2637 84.4454 1.64413 84.6556 2.08922C84.866 2.5343 84.9785 3.02601 84.9926 3.56583C85.0138 4.37481 84.8041 5.08079 84.364 5.6815C83.9239 6.28297 83.2508 6.72429 82.3462 7.00473L85.557 11.6849L83.2422 11.7413L80.4059 7.28817L77.8987 7.34908L78.0176 11.8684L75.9139 11.9195L75.6036 0.115642ZM80.0463 5.60932C81.1213 5.58375 81.8679 5.39655 82.2861 5.04921C82.7035 4.70111 82.9045 4.22368 82.8888 3.61695C82.8724 3.01021 82.6465 2.54257 82.211 2.21628C81.7756 1.88922 81.0204 1.73887 79.9446 1.76518L77.7534 1.81856L77.8543 5.66271L80.0463 5.60932ZM90.0374 0.124664L98.2146 1.12461L97.9849 2.86436L91.8956 2.12004L91.4883 5.19882L97.0561 5.87923L96.8262 7.61974L91.2585 6.93932L90.8074 10.3527L96.8974 11.097L96.6675 12.8375L88.4894 11.8375L90.0374 0.124664ZM103.072 14.6359C102.307 14.4269 101.668 14.1645 101.153 13.8487C100.638 13.5329 100.236 13.1773 99.9455 12.7826C99.6546 12.3879 99.4663 11.9654 99.381 11.515C99.2951 11.0647 99.2998 10.5955 99.3951 10.1076L101.42 10.6602C101.398 10.9 101.413 11.1263 101.465 11.3391C101.518 11.5526 101.625 11.7571 101.786 11.9526C101.947 12.1488 102.17 12.3262 102.457 12.4871C102.745 12.6473 103.119 12.7901 103.58 12.9157C104.052 13.045 104.467 13.1142 104.822 13.1239C105.178 13.133 105.48 13.0991 105.727 13.0202C105.976 12.942 106.175 12.8209 106.327 12.6578C106.479 12.4946 106.587 12.3052 106.65 12.0887C106.806 11.5586 106.669 11.0887 106.237 10.6782C105.805 10.2685 105.081 9.80758 104.065 9.29633C103.496 9.00086 103.001 8.69862 102.582 8.39113C102.163 8.08362 101.834 7.75431 101.597 7.40396C101.361 7.05284 101.216 6.66791 101.163 6.25063C101.11 5.83261 101.16 5.36422 101.314 4.8447C101.438 4.42292 101.649 4.04851 101.947 3.7207C102.244 3.39215 102.615 3.13728 103.057 2.95383C103.5 2.77113 104.013 2.67114 104.595 2.65535C105.177 2.63881 105.823 2.72752 106.531 2.92074C107.218 3.10796 107.797 3.34854 108.269 3.641C108.742 3.93347 109.115 4.26655 109.388 4.63871C109.661 5.01161 109.84 5.41385 109.925 5.84615C110.009 6.27846 110.008 6.72806 109.919 7.19495L107.894 6.64234C107.925 6.20628 107.795 5.81156 107.505 5.45745C107.215 5.10333 106.721 4.83117 106.023 4.64096C105.214 4.41991 104.592 4.39585 104.157 4.56953C103.723 4.7432 103.45 5.01913 103.338 5.39805C103.185 5.91757 103.295 6.36793 103.668 6.75062C104.041 7.13329 104.668 7.5438 105.547 7.98212C106.192 8.31068 106.749 8.63773 107.217 8.96477C107.686 9.29107 108.054 9.63993 108.321 10.0113C108.588 10.382 108.753 10.7812 108.815 11.2075C108.878 11.6338 108.831 12.112 108.675 12.6413C108.537 13.1066 108.314 13.5134 108.005 13.8615C107.695 14.2096 107.304 14.4765 106.829 14.6623C106.355 14.8487 105.804 14.9434 105.177 14.9479C104.55 14.9517 103.848 14.8479 103.072 14.6359ZM115.073 5.94991L119.148 7.72199C120.651 8.37533 121.613 9.16703 122.035 10.097C122.458 11.0271 122.424 12.015 121.932 13.06C121.441 14.1051 120.693 14.7825 119.688 15.0922C118.682 15.402 117.428 15.2298 115.926 14.5764L113.769 13.639L111.933 17.5425L110.016 16.7087L115.073 5.94991ZM116.517 12.9089C117.019 13.127 117.457 13.2713 117.834 13.3427C118.212 13.4142 118.536 13.4194 118.808 13.3585C119.081 13.2984 119.314 13.1713 119.507 12.9781C119.701 12.7841 119.87 12.5337 120.014 12.2262C120.159 11.9188 120.242 11.6338 120.262 11.3714C120.283 11.109 120.229 10.8571 120.098 10.6151C119.968 10.3737 119.75 10.1399 119.445 9.9151C119.141 9.6903 118.738 9.46851 118.237 9.25123L116.239 8.38209L114.52 12.0405L116.517 12.9089ZM124.222 24.4804C123.603 24.0564 123.102 23.5895 122.719 23.079C122.335 22.5693 122.089 22.0279 121.98 21.4573C121.872 20.886 121.907 20.286 122.086 19.6559C122.264 19.0259 122.604 18.3725 123.106 17.6944L127.375 11.921L129.091 13.0939L124.893 18.7711C124.222 19.6784 123.929 20.4815 124.014 21.1814C124.099 21.8813 124.528 22.4956 125.299 23.0234C126.081 23.5572 126.827 23.7466 127.537 23.591C128.248 23.4353 128.935 22.9084 129.599 22.0106L133.807 16.3193L135.522 17.4928L131.253 23.2662C130.752 23.9444 130.221 24.4676 129.661 24.8368C129.102 25.206 128.523 25.4345 127.927 25.5241C127.33 25.6127 126.719 25.5668 126.092 25.3865C125.465 25.206 124.841 24.9037 124.222 24.4804ZM138.632 20.1529L142.187 23.4121C143.194 24.3354 143.726 25.2202 143.785 26.066C143.843 26.9119 143.529 27.6803 142.843 28.3719C142.407 28.8118 141.916 29.0794 141.368 29.1757C140.82 29.2719 140.271 29.199 139.719 28.9569C140.131 29.5516 140.319 30.1644 140.286 30.7929C140.251 31.4221 139.961 32.0131 139.412 32.5673C139.057 32.9251 138.673 33.198 138.259 33.3868C137.847 33.5754 137.41 33.6604 136.951 33.6431C136.492 33.6257 136.009 33.498 135.502 33.2589C134.996 33.0205 134.468 32.6484 133.918 32.144L130.16 28.6991L138.632 20.1529ZM135.012 30.7229C135.672 31.3281 136.227 31.6439 136.679 31.6695C137.13 31.6944 137.566 31.4959 137.985 31.0726C138.187 30.8688 138.339 30.6591 138.441 30.4417C138.543 30.2244 138.581 29.999 138.554 29.7651C138.527 29.5313 138.431 29.2825 138.263 29.0201C138.095 28.7577 137.847 28.4749 137.516 28.1719L135.46 26.2864L132.943 28.826L135.012 30.7229ZM138.463 26.8022C139.054 27.3457 139.572 27.6179 140.014 27.6201C140.457 27.6217 140.856 27.4435 141.211 27.0855C141.574 26.7194 141.736 26.336 141.698 25.9353C141.658 25.5338 141.339 25.0579 140.737 24.5075L138.897 22.8196L136.621 25.1151L138.463 26.8022ZM148.544 30.1402L149.763 31.7898L141.244 37.6159L144.7 42.2892L143.213 43.3065L138.538 36.9828L148.544 30.1402ZM155.099 39.5375L156.149 41.2924L145.505 47.1777L144.456 45.4228L155.099 39.5375ZM158.419 45.0529L159.19 46.9356L153.741 49.0023L161.095 51.5805L162.022 53.8404L155.669 51.4985L150.729 58.4845L149.789 56.1937L153.8 50.7564L151.441 49.8745L147.769 51.2669L146.997 49.3836L158.419 45.0529ZM155.682 66.4743L154.561 61.8063L151.628 61.4364L151.155 59.4634L164.162 61.1641L164.637 63.1361L153.718 70.1471L153.213 68.0435L155.682 66.4743ZM156.492 62.0528L157.304 65.4384L161.824 62.6692L156.492 62.0528ZM153.833 75.2972C153.771 74.5348 153.808 73.8672 153.938 73.2935C154.068 72.7199 154.277 72.2342 154.561 71.8358C154.847 71.4365 155.195 71.1207 155.604 70.8877C156.013 70.6553 156.473 70.4975 156.982 70.4147L157.141 72.4335C156.901 72.4959 156.684 72.5875 156.495 72.7087C156.305 72.8297 156.143 72.9972 156.007 73.21C155.871 73.4228 155.775 73.6867 155.718 74.0003C155.66 74.3153 155.65 74.7017 155.686 75.1619C155.724 75.6324 155.8 76.0303 155.913 76.3551C156.026 76.6791 156.164 76.9399 156.326 77.1361C156.489 77.3331 156.675 77.4716 156.887 77.552C157.099 77.6324 157.321 77.664 157.554 77.6474C158.124 77.6054 158.536 77.3188 158.788 76.7874C159.039 76.2557 159.239 75.4431 159.387 74.3498C159.479 73.7341 159.602 73.1837 159.758 72.6988C159.912 72.214 160.121 71.8041 160.381 71.4688C160.642 71.1343 160.968 70.8711 161.356 70.6787C161.747 70.487 162.22 70.3703 162.781 70.3297C163.235 70.296 163.673 70.3568 164.095 70.5124C164.519 70.6673 164.895 70.9132 165.227 71.25C165.559 71.5869 165.833 72.0147 166.051 72.535C166.267 73.0544 166.403 73.6679 166.459 74.374C166.514 75.058 166.479 75.664 166.356 76.1919C166.234 76.7188 166.039 77.1708 165.77 77.5459C165.499 77.9203 165.169 78.2211 164.776 78.4474C164.384 78.6729 163.944 78.8263 163.459 78.9068L163.298 76.8889C163.735 76.767 164.076 76.5136 164.321 76.1287C164.566 75.7446 164.661 75.2047 164.605 74.51C164.542 73.7025 164.349 73.1327 164.03 72.801C163.711 72.4688 163.348 72.3177 162.94 72.3478C162.38 72.3884 161.978 72.6439 161.733 73.1123C161.489 73.5815 161.305 74.2881 161.179 75.234C161.083 75.9287 160.956 76.5444 160.798 77.0799C160.641 77.6159 160.428 78.0685 160.158 78.4377C159.889 78.8076 159.557 79.094 159.162 79.2977C158.767 79.5007 158.285 79.624 157.714 79.6653C157.212 79.7023 156.739 79.6413 156.291 79.4819C155.845 79.3225 155.45 79.0617 155.104 78.6977C154.759 78.3338 154.476 77.8692 154.255 77.3046C154.035 76.7399 153.894 76.0708 153.833 75.2972ZM166.425 82.3261L166.372 84.3501L154.098 84.0516L154.151 82.0276L166.425 82.3261Z" fill="#E4A216"/>
<path d="M28.9292 123.683L30.4295 125.197L27.8605 132.75L35.8277 130.642L37.2794 132.107L28.3938 140.254L26.9413 138.789L33.1619 133.086L26.5434 134.843L25.5748 133.866L27.7152 127.593L21.4954 133.295L20.043 131.831L28.9292 123.683ZM39.5653 144.732L35.5056 141.956L33.0563 143.551L31.341 142.378L42.2445 135.346L43.9596 136.519L40.6323 148.732L38.8023 147.481L39.5653 144.732ZM37.1207 140.908L40.0649 142.921L41.5345 137.965L37.1207 140.908ZM48.9145 139.67L53.1494 141.511C53.853 141.816 54.4299 142.166 54.8801 142.559C55.3305 142.952 55.6611 143.374 55.873 143.824C56.0849 144.274 56.1857 144.743 56.174 145.232C56.1622 145.721 56.0411 146.211 55.8097 146.702C55.4626 147.44 54.9553 147.988 54.2868 148.345C53.6184 148.702 52.8132 148.817 51.872 148.692L52.6467 154.25L50.5374 153.332L49.9964 148.137L47.7114 147.143L45.7748 151.262L43.8572 150.429L48.9145 139.67ZM50.4311 146.474C51.4114 146.9 52.1683 147.044 52.7014 146.906C53.2353 146.768 53.6317 146.422 53.892 145.869C54.1523 145.315 54.1602 144.801 53.9155 144.324C53.6708 143.847 53.0587 143.396 52.0783 142.97L50.0809 142.102L48.4337 145.606L50.4311 146.474ZM59.9172 144.294L61.9419 144.847L60.3416 150.266L66.9359 146.211L69.3657 146.874L63.5751 150.308L66.3495 158.324L63.8862 157.652L61.8277 151.286L59.6661 152.554L58.589 156.205L56.5641 155.652L59.9172 144.294ZM77.475 156.913L72.5084 156.55L71.2668 159.132L69.1678 158.979L74.7332 147.543L76.8316 147.697L80.5356 159.809L78.2973 159.646L77.475 156.913ZM73.3292 154.851L76.9316 155.114L75.5307 150.14L73.3292 154.851ZM83.3672 158.419L89.2758 149.495L82.8746 149.964L82.7362 148.214L91.6555 147.562L91.7805 149.143L85.8727 158.067L92.6233 157.572L92.7617 159.322L83.4923 160L83.3672 158.419ZM94.8154 147.086L96.8871 146.73L99.0456 158.355L96.9739 158.711L94.8154 147.086ZM105.76 152.14L98.8572 146.729L101.216 145.961L106.115 149.886L107.296 143.982L109.489 143.269L107.754 151.491L109.271 155.805L107.278 156.454L105.76 152.14ZM115.085 140.869L119.342 138.515C120.548 137.848 121.582 137.608 122.441 137.794C123.301 137.98 123.979 138.488 124.474 139.316C124.789 139.842 124.917 140.372 124.857 140.904C124.798 141.436 124.569 141.923 124.172 142.363C124.882 142.152 125.545 142.151 126.163 142.361C126.78 142.571 127.288 143.007 127.684 143.67C127.941 144.099 128.104 144.53 128.175 144.965C128.246 145.399 128.207 145.825 128.06 146.244C127.913 146.663 127.648 147.072 127.266 147.472C126.884 147.87 126.364 148.253 125.706 148.617L121.205 151.105L115.085 140.869ZM124.599 147.206C125.389 146.768 125.861 146.345 126.014 145.936C126.168 145.526 126.093 145.068 125.79 144.562C125.644 144.318 125.477 144.118 125.29 143.963C125.102 143.807 124.888 143.708 124.647 143.666C124.406 143.624 124.131 143.644 123.821 143.723C123.513 143.804 123.16 143.953 122.765 144.172L120.301 145.534L122.12 148.576L124.599 147.206ZM121.667 142.911C122.377 142.519 122.795 142.119 122.922 141.711C123.049 141.304 122.985 140.885 122.728 140.457C122.466 140.018 122.13 139.76 121.719 139.682C121.308 139.604 120.743 139.764 120.024 140.162L117.818 141.381L119.462 144.13L121.667 142.911ZM136.073 138.233L132.157 141.193L133.055 143.904L131.4 145.154L127.469 133.109L129.123 131.858L140.365 138.38L138.599 139.714L136.073 138.233ZM131.567 139.408L134.408 137.261L129.88 134.504L131.567 139.408ZM133.186 128.496L134.518 127.017L145.097 128.153L138.469 122.631L139.847 121.101L149.127 128.832L147.794 130.311L137.215 129.175L143.844 134.697L142.466 136.226L133.186 128.496ZM141.513 119.137L142.562 117.382L147.641 120.191L145.15 113.054L146.408 110.949L148.467 117.184L157.227 116.541L155.951 118.676L149.029 119.052L149.784 121.376L153.206 123.267L152.156 125.022L141.513 119.137ZM147.712 108.183L148.579 106.339L159.765 111.203L158.898 113.048L147.712 108.183Z" fill="#E4A216"/>
<path fill-rule="evenodd" clip-rule="evenodd" d="M158.003 93.7896C160.373 93.7896 162.295 95.6384 162.295 97.9187C162.295 100.199 160.373 102.048 158.003 102.048C155.631 102.048 153.709 100.199 153.709 97.9187C153.709 95.6384 155.631 93.7896 158.003 93.7896Z" fill="#E4A216"/>
<path d="M222.356 106.946C225.595 106.946 227.782 110.741 227.782 117.153C227.782 122.78 225.544 124.271 223.835 124.271C219.928 124.271 218.408 118.514 218.408 115.048C218.408 110.741 219.169 106.946 222.356 106.946ZM211.744 116.08C211.744 122.194 216.67 126.241 223.069 126.241C226.427 126.241 229.26 125.293 231.211 123.569C233.614 121.446 234.446 118.263 234.446 115.657C234.446 109.529 230.186 104.98 223.121 104.98C219.169 104.98 216.226 106.314 214.347 108.446C212.547 110.481 211.744 113.306 211.744 116.08ZM247.155 119.792V107.838H251.245C252.104 107.838 252.912 107.605 252.912 107.043V105.965C252.912 105.682 252.865 105.496 251.962 105.496H247.155V103.099C247.155 96.083 249.105 95.0562 250.154 95.0562C250.962 95.0562 251.15 95.7577 251.485 96.8867C251.915 98.3967 253.152 99.5721 254.863 99.5721C256.436 99.5721 257.578 98.5826 257.578 96.5615C257.578 95.2885 256.1 93.0908 251.056 93.0908C248.817 93.0908 246.154 93.8853 244.345 95.8041C242.583 97.6859 240.968 100.041 240.968 104.562V105.496H240.874C239.254 105.496 237.303 105.728 237.303 106.105V107.368C237.303 107.698 237.492 107.838 238.587 107.838H240.968V119.885C240.968 123.718 240.203 124.132 237.303 124.271C237.016 124.554 237.016 125.581 237.303 125.864C239.301 125.818 241.44 125.772 244.062 125.772C246.677 125.772 248.771 125.818 250.82 125.864C251.103 125.581 251.103 124.554 250.82 124.271C247.915 124.132 247.155 123.718 247.155 119.792ZM269.715 105.496C269.05 105.505 268.327 105.682 267.713 106.198V107.559C267.713 107.791 267.759 107.838 267.953 107.838H271.048C270.943 112.535 270.905 118.528 270.905 120.861C270.905 122.501 271.317 124.071 272.332 124.926C273.404 125.832 275.155 126.241 276.279 126.241C278.906 126.241 281.801 124.926 282.754 123.616C282.754 123.054 282.467 122.775 281.899 122.315C281.276 122.775 280.09 122.961 279.185 122.961C278.136 122.961 277.091 122.171 277.091 119.834C277.091 117.497 277.044 112.502 277.044 107.838H281.848C282.324 107.838 282.991 107.652 282.991 107.229V105.779C282.991 105.589 282.849 105.496 282.613 105.496H277.044L277.091 103.902C277.187 100.789 277.329 98.615 277.329 98.615C277.329 98.3177 277.187 98.2062 276.955 98.2062C276.615 98.2062 274.839 98.7219 274.094 99.0332C273.281 99.3631 271.893 99.6371 271.571 100.065C271.237 100.511 271.048 101.774 271.048 105.496H269.715ZM308.88 119.778V112.474C308.88 107.322 306.646 104.98 302.552 104.98C300.801 104.98 297.404 106.699 294.698 108.367V98.471C294.698 95.4278 294.844 93.6947 294.844 93.6947C294.844 93.2767 294.509 93.0908 294.079 93.0908C292.319 93.6483 288.512 94.1641 285.135 94.3081C284.988 94.8657 285.041 95.3813 285.277 95.8041C288.276 96.0364 288.512 96.1014 288.512 99.3166V119.825C288.512 123.709 287.751 124.132 284.847 124.271C284.563 124.554 284.563 125.581 284.847 125.864C286.85 125.818 288.975 125.772 291.605 125.772C293.867 125.772 295.365 125.818 297.414 125.864C297.697 125.581 297.697 124.554 297.414 124.271C295.416 124.132 294.698 123.709 294.698 119.825V110.24C296.678 108.999 298.278 108.446 299.128 108.446C301.032 108.446 302.694 109.287 302.694 111.959V119.778C302.694 123.709 301.933 124.132 299.982 124.271C299.695 124.554 299.695 125.581 299.982 125.864C301.98 125.818 303.529 125.772 305.787 125.772C308.422 125.772 310.5 125.818 312.545 125.864C312.834 125.581 312.834 124.554 312.545 124.271C309.645 124.132 308.88 123.709 308.88 119.778ZM321.636 112.893C321.683 111.257 321.939 109.492 322.59 108.539C323.341 107.424 324.622 106.946 325.16 106.946C326.444 106.946 328.206 108.163 328.206 111.912C328.206 112.191 328.206 112.8 328.111 112.893H321.636ZM333.727 119.732C331.776 121.697 329.207 122.213 327.399 122.213C323.686 122.213 321.4 120.103 321.4 115.518C321.4 115.188 321.447 115.002 321.447 114.765H332.872C334.01 114.765 334.25 113.971 334.25 113.315C334.25 109.334 332.679 104.98 325.683 104.98C320.688 104.98 314.972 109.334 314.972 116.498C314.972 119.239 315.984 122.087 318.018 123.899C319.805 125.488 322.152 126.241 325.543 126.241C328.825 126.241 332.06 124.601 334.439 121.181C334.439 120.573 334.203 119.732 333.727 119.732ZM370.039 103.902C370.039 109.65 366.521 110.551 362.521 110.551H360.476V101.235C360.476 98.0529 361.566 97.0678 364.094 97.0678C366.851 97.0678 370.039 98.1922 370.039 103.902ZM365.614 95.149C363.711 95.149 351.763 95.4742 349.859 95.4742C349.387 95.7577 349.387 96.7891 349.859 97.0678C352.48 97.2073 353.812 97.3977 353.812 101.282V120.057C353.812 123.946 352.48 124.132 349.859 124.271C349.387 124.554 349.387 125.581 349.859 125.864C351.763 125.818 355.285 125.772 357.189 125.772C359.092 125.772 362.521 125.818 364.423 125.864C364.901 125.581 364.901 124.554 364.423 124.271C361.807 124.132 360.476 123.946 360.476 120.057V112.521C364.25 112.526 364.659 112.855 365.331 113.924L370.898 122.073C372.373 124.178 374.323 126.241 377.18 126.241C379.093 126.241 381.558 126.097 382.035 125.864C382.201 125.535 382.177 124.647 381.988 124.271C379.843 124.271 378.752 123.147 377.415 121.181L370.947 111.35C373.515 110.319 377.228 107.884 377.228 103.108C377.228 101.226 376.514 98.4107 373.562 96.6962C371.801 95.6694 369.185 95.149 365.614 95.149ZM389.936 112.893C389.982 111.257 390.238 109.492 390.885 108.539C391.64 107.424 392.917 106.946 393.46 106.946C394.744 106.946 396.501 108.163 396.501 111.912C396.501 112.191 396.501 112.8 396.406 112.893H389.936ZM402.026 119.732C400.071 121.697 397.502 122.213 395.693 122.213C391.98 122.213 389.695 120.103 389.695 115.518C389.695 115.188 389.742 115.002 389.742 114.765H401.167C402.309 114.765 402.545 113.971 402.545 113.315C402.545 109.334 400.978 104.98 393.978 104.98C388.981 104.98 383.272 109.334 383.272 116.498C383.272 119.239 384.277 122.087 386.318 123.899C388.104 125.488 390.451 126.241 393.836 126.241C397.124 126.241 400.359 124.601 402.739 121.181C402.739 120.573 402.498 119.732 402.026 119.732ZM409.304 111.304V130.919C409.304 134.808 408.784 134.901 405.88 135.134C405.591 135.417 405.591 136.444 405.88 136.727C407.878 136.681 409.861 136.634 412.397 136.634C414.938 136.634 416.874 136.681 418.919 136.727C419.208 136.444 419.208 135.417 418.919 135.134C416.015 134.948 415.495 134.808 415.495 130.919V125.442C416.515 125.957 417.539 126.241 418.683 126.241C425.941 126.241 430.627 121.581 430.627 114.672C430.627 112.065 429.621 109.148 427.774 107.322C426.108 105.677 423.718 104.98 421.253 104.98C419.873 104.98 417.299 106.62 415.637 108.116H415.368C415.254 106.792 415.112 105.779 415.112 105.779C415.065 105.208 414.682 104.98 414.017 104.98C412.255 105.45 409.402 106.105 406.116 106.527C406.022 106.806 406.116 107.745 406.21 108.023C408.808 108.26 409.304 108.632 409.304 111.304ZM415.495 122.728V110.723C415.495 110.477 415.486 110.216 415.476 109.961C416.851 108.744 418.612 108.116 419.726 108.116C421.682 108.116 423.963 110.458 423.963 115.936C423.963 119.871 422.537 124.271 418.395 124.271C417.871 124.271 416.68 123.992 415.495 122.728ZM456.711 119.541V111.443C456.711 107.508 456.804 108.07 456.804 106.946C456.804 106.151 456.615 105.635 456.328 105.357C455.473 105.403 454.519 105.449 453.616 105.449C452.299 105.449 449.192 105.403 447.335 105.357C447.047 105.635 447.047 106.667 447.335 106.946C449.762 107.182 450.523 107.508 450.523 111.443V120.122C450.523 120.573 450.538 121.042 450.561 121.511C448.625 122.687 447.023 122.775 446.193 122.775C444.289 122.775 442.858 122.561 442.858 119.262V111.443C442.858 107.508 442.953 108.07 442.953 106.946C442.953 106.151 442.764 105.635 442.481 105.357C441.621 105.403 440.639 105.449 439.765 105.449C437.313 105.449 435.529 105.403 433.484 105.357C433.196 105.635 433.196 106.667 433.484 106.946C435.671 107.043 436.672 107.508 436.672 111.443V118.747C436.672 123.732 438.67 126.241 442.764 126.241C444.493 126.241 447.955 124.889 450.689 123.383C450.801 124.559 450.901 125.442 450.901 125.442C450.944 126.004 451.331 126.241 451.996 126.241C453.758 125.772 456.615 125.117 459.897 124.694C459.993 124.41 459.897 123.476 459.803 123.193C457.211 122.961 456.711 122.213 456.711 119.541ZM464.418 119.825C464.418 123.709 464.323 124.271 464.134 126.05C464.705 126.241 465.23 126.38 465.753 126.38C466.372 125.864 466.845 125.223 467.275 124.364C469.131 125.772 472.05 126.241 474.222 126.241C479.506 126.241 485.075 121.098 485.075 114.393C485.075 111.731 484.036 109.087 482.505 107.368C480.792 105.45 478.5 104.98 475.984 104.98C474.511 104.98 471.988 106.62 470.608 107.605V98.471C470.608 95.4278 470.751 93.6947 470.751 93.6947C470.751 93.2767 470.415 93.0908 469.99 93.0908C468.229 93.6483 464.418 94.1641 461.041 94.3081C460.899 94.8657 460.947 95.3813 461.183 95.8041C464.182 96.0364 464.418 96.1014 464.418 99.3166V119.825ZM470.608 109.478C472.177 108.469 473.202 108.307 474.322 108.307C476.649 108.307 478.411 110.412 478.411 115.002C478.411 118.826 477.744 124.271 473.986 124.271C472.588 124.271 471.511 123.709 470.608 122.636V109.478ZM491.455 119.825C491.455 123.709 490.689 124.132 487.79 124.271C487.503 124.554 487.503 125.581 487.79 125.864C489.788 125.818 491.913 125.772 494.548 125.772C497.179 125.772 499.257 125.818 501.307 125.864C501.59 125.581 501.59 124.554 501.307 124.271C498.401 124.132 497.642 123.709 497.642 119.825V98.471C497.642 95.4278 497.783 93.6947 497.783 93.6947C497.783 93.2767 497.448 93.0908 497.023 93.0908C495.261 93.6483 491.455 94.1641 488.073 94.3081C487.932 94.8657 487.979 95.3813 488.215 95.8041C491.214 96.0364 491.455 96.1014 491.455 99.3166V119.825ZM513.202 120.057V110.723C513.202 108.4 513.391 105.779 513.391 105.779C513.391 105.264 512.966 104.98 512.296 104.98C510.941 105.496 507.11 105.872 503.828 106.29C503.73 106.574 503.828 107.508 503.923 107.791C506.516 108.023 507.016 108.4 507.016 111.067V120.057C507.016 123.946 506.491 124.039 503.588 124.271C503.305 124.554 503.305 125.581 503.588 125.864C505.59 125.818 507.573 125.772 510.109 125.772C512.646 125.772 514.582 125.818 516.631 125.864C516.915 125.581 516.915 124.554 516.631 124.271C513.727 124.085 513.202 123.946 513.202 120.057ZM506.78 97.8625C506.78 99.4095 507.918 100.957 509.822 100.957C511.965 100.957 513.202 99.2702 513.202 98.0529C513.202 96.6451 512.107 94.9633 510.109 94.9633C507.871 94.9633 506.78 96.4593 506.78 97.8625ZM537.572 121.697C537.572 121.135 537.477 120.247 536.954 120.247C535.05 121.976 533.43 122.868 532.05 122.868C528.481 122.868 525.671 120.34 525.671 114.718C525.671 109.524 526.861 106.946 529.382 106.946C531.145 106.946 531.857 108.776 532.004 110.272C532.146 111.536 533.43 112.474 534.951 112.474C536.476 112.474 537.572 111.304 537.572 109.849C537.572 107.745 535.003 104.98 529.812 104.98C524.198 104.98 519.248 109.431 519.248 116.359C519.248 119.388 520.349 122.096 522.2 123.802C524.069 125.53 526.218 126.241 529.624 126.241C532.477 126.241 535.764 124.271 537.572 121.697ZM564.411 106.946C567.651 106.946 569.838 110.741 569.838 117.153C569.838 122.78 567.604 124.271 565.889 124.271C561.988 124.271 560.463 118.514 560.463 115.048C560.463 110.741 561.223 106.946 564.411 106.946ZM553.8 116.08C553.8 122.194 558.726 126.241 565.129 126.241C568.482 126.241 571.315 125.293 573.266 123.569C575.67 121.446 576.502 118.263 576.502 115.657C576.502 109.529 572.241 104.98 565.176 104.98C561.223 104.98 558.281 106.314 556.401 108.446C554.603 110.481 553.8 113.306 553.8 116.08ZM589.209 119.792V107.838H593.305C594.159 107.838 594.967 107.605 594.967 107.043V105.965C594.967 105.682 594.92 105.496 594.017 105.496H589.209V103.099C589.209 96.083 591.16 95.0562 592.208 95.0562C593.016 95.0562 593.21 95.7577 593.541 96.8867C593.97 98.3967 595.208 99.5721 596.923 99.5721C598.49 99.5721 599.633 98.5826 599.633 96.5615C599.633 95.2885 598.16 93.0908 593.111 93.0908C590.877 93.0908 588.209 93.8853 586.401 95.8041C584.643 97.6859 583.023 100.041 583.023 104.562V105.496H582.929C581.308 105.496 579.359 105.728 579.359 106.105V107.368C579.359 107.698 579.548 107.838 580.643 107.838H583.023V119.885C583.023 123.718 582.262 124.132 579.359 124.271C579.07 124.554 579.07 125.581 579.359 125.864C581.357 125.818 583.5 125.772 586.116 125.772C588.733 125.772 590.831 125.818 592.875 125.864C593.163 125.581 593.163 124.554 592.875 124.271C589.97 124.132 589.209 123.718 589.209 119.792ZM619.576 101.328C619.576 97.4443 620.29 97.2073 623.955 97.0678C624.238 96.7891 624.238 95.7577 623.955 95.4742C621.621 95.5254 618.462 95.5718 616.196 95.5718C614.038 95.5718 611.628 95.5254 609.248 95.4742C608.96 95.7577 608.96 96.7891 609.248 97.0678C612.1 97.2073 612.912 97.4443 612.912 101.328V114.718C612.912 119.262 614.363 122.557 617.05 124.271C620.045 126.185 624.404 126.241 626.665 126.241C636.422 126.241 639.516 120.294 639.516 111.959V101.328C639.516 97.4443 640.376 97.3513 643.181 97.0678C643.469 96.7891 643.469 95.7577 643.181 95.4742C641.325 95.5254 639.408 95.5718 638.09 95.5718C636.702 95.5718 634.226 95.5254 632.045 95.4742C631.762 95.7577 631.762 96.7891 632.045 97.0678C635.639 97.3746 636.422 97.4443 636.422 101.328V112.8C636.422 118.045 635.71 124.271 627.666 124.271C625.381 124.271 623.43 123.291 622.004 121.929C619.672 119.732 619.576 116.219 619.576 113.176V101.328ZM645.562 104.887C645.448 104.887 645.277 105.059 645.277 105.171C645.226 107.275 644.942 109.375 644.56 111.661C644.979 111.833 646.052 111.926 646.61 111.801C647.558 108.39 649.037 107.368 650.464 107.322L655.319 107.192L655.399 107.275C652.168 112.544 647.531 119.42 643.893 124.224C643.493 124.773 643.469 124.926 643.469 125.163C643.469 125.488 643.847 125.725 644.56 125.725L661.315 125.864C661.887 124.271 662.506 121.846 662.837 119.513C662.53 119.341 661.505 119.23 660.933 119.23L660.267 120.582C659.054 123.049 658.076 123.899 655.601 123.899H651.035L650.998 123.755C654.491 119.341 659.252 111.949 662.123 107.322C662.846 106.142 662.978 105.779 662.978 105.589C662.978 105.403 662.742 105.264 662.412 105.264C662.17 105.264 658.936 105.357 657.557 105.357H648.37C646.837 105.357 646.392 105.05 645.562 104.887ZM668.168 119.825C668.168 123.709 668.075 124.271 667.881 126.05C668.451 126.241 668.976 126.38 669.501 126.38C670.119 125.864 670.596 125.223 671.025 124.364C672.881 125.772 675.8 126.241 677.972 126.241C683.258 126.241 688.826 121.098 688.826 114.393C688.826 111.731 687.786 109.087 686.256 107.368C684.542 105.45 682.246 104.98 679.734 104.98C678.257 104.98 675.734 106.62 674.356 107.605V98.471C674.356 95.4278 674.497 93.6947 674.497 93.6947C674.497 93.2767 674.167 93.0908 673.737 93.0908C671.975 93.6483 668.168 94.1641 664.791 94.3081C664.646 94.8657 664.693 95.3813 664.933 95.8041C667.932 96.0364 668.168 96.1014 668.168 99.3166V119.825ZM674.356 109.478C675.927 108.469 676.948 108.307 678.067 108.307C680.4 108.307 682.162 110.412 682.162 115.002C682.162 118.826 681.496 124.271 677.736 124.271C676.339 124.271 675.262 123.709 674.356 122.636V109.478ZM699.343 112.893C699.39 111.257 699.646 109.492 700.293 108.539C701.048 107.424 702.323 106.946 702.866 106.946C704.151 106.946 705.907 108.163 705.907 111.912C705.907 112.191 705.907 112.8 705.813 112.893H699.343ZM711.434 119.732C709.478 121.697 706.908 122.213 705.1 122.213C701.388 122.213 699.103 120.103 699.103 115.518C699.103 115.188 699.154 115.002 699.154 114.765H710.573C711.717 114.765 711.953 113.971 711.953 113.315C711.953 109.334 710.384 104.98 703.386 104.98C698.389 104.98 692.679 109.334 692.679 116.498C692.679 119.239 693.685 122.087 695.725 123.899C697.51 125.488 699.857 126.241 703.244 126.241C706.53 126.241 709.765 124.601 712.146 121.181C712.146 120.573 711.906 119.732 711.434 119.732ZM718.952 119.825C718.952 123.709 718.191 124.132 715.287 124.271C714.999 124.554 714.999 125.581 715.287 125.864C717.284 125.818 719.41 125.772 722.045 125.772C724.123 125.772 726.235 125.818 727.377 125.864C727.661 125.581 727.661 124.554 727.377 124.271C725.923 124.108 725.138 123.709 725.138 119.825V115.982C726.471 115.982 727.919 116.15 728.42 116.874C729.517 118.468 730.848 120.41 731.66 122.12C732.278 123.43 732.421 123.853 732.421 124.554V125.772L732.516 125.864C732.516 125.864 734.654 125.772 736.321 125.772C738.272 125.772 740.94 125.818 742.702 125.864C742.985 125.581 742.985 124.554 742.702 124.271C740.851 124.108 739.812 124.215 738.371 122.12L732.85 114.11C732.619 113.785 732.501 113.394 732.703 113.176L735.061 110.625C736.601 108.953 737.894 107.345 741.512 106.946C741.795 106.667 741.795 105.635 741.512 105.357C740.464 105.403 737.465 105.449 736.227 105.449C734.465 105.449 732.231 105.403 730.469 105.357C730.182 105.635 730.182 106.667 730.469 106.946C733.039 107.136 733.776 107.582 732.421 109.431C731.372 110.848 730.324 111.982 729.374 112.795C728.765 113.306 726.564 114.11 725.138 114.11V98.471C725.138 95.4278 725.28 93.6947 725.28 93.6947C725.28 93.2767 724.949 93.0908 724.519 93.0908C722.757 93.6483 718.952 94.1641 715.57 94.3081C715.428 94.8657 715.475 95.3813 715.717 95.8041C718.71 96.0364 718.952 96.1014 718.952 99.3166V119.825ZM754.887 120.057V110.723C754.887 108.4 755.076 105.779 755.076 105.779C755.076 105.264 754.646 104.98 753.979 104.98C752.624 105.496 748.794 105.872 745.508 106.29C745.413 106.574 745.508 107.508 745.602 107.791C748.2 108.023 748.695 108.4 748.695 111.067V120.057C748.695 123.946 748.176 124.039 745.272 124.271C744.983 124.554 744.983 125.581 745.272 125.864C747.268 125.818 749.253 125.772 751.789 125.772C754.33 125.772 756.266 125.818 758.311 125.864C758.598 125.581 758.598 124.554 758.311 124.271C755.405 124.085 754.887 123.946 754.887 120.057ZM748.459 97.8625C748.459 99.4095 749.602 100.957 751.505 100.957C753.649 100.957 754.887 99.2702 754.887 98.0529C754.887 96.6451 753.792 94.9633 751.789 94.9633C749.555 94.9633 748.459 96.4593 748.459 97.8625ZM761.451 118.933C761.644 121.251 761.857 123.453 762.263 125.209C763.142 125.511 766.203 126.241 768.875 126.241C772.54 126.241 777.112 124.28 777.112 120.196C777.112 118.617 776.705 117.334 775.653 116.173C774.278 114.658 772.304 113.501 770.112 112.567C768.21 111.745 767.543 110.272 767.543 108.916C767.543 107.838 768.45 106.946 769.83 106.946C771.496 106.946 773.112 108.446 774.302 111.304C775.161 111.443 775.68 111.397 776.158 111.067C776.158 109.385 775.969 107.605 775.539 106.105C774.018 105.45 772.829 104.98 770.212 104.98C767.694 104.98 765.291 105.909 763.784 107.415C762.688 108.507 762.164 109.803 762.164 111.067C762.164 112.456 762.712 113.58 763.642 114.579C765.115 116.173 767.709 117.827 769.163 118.468C771.067 119.309 771.59 120.995 771.59 122.12C771.59 123.625 770.066 124.41 768.78 124.41C766.632 124.41 764.356 122.282 763.355 118.84C762.594 118.7 762.211 118.747 761.451 118.933ZM782.014 105.496C781.348 105.505 780.626 105.682 780.016 106.198V107.559C780.016 107.791 780.063 107.838 780.252 107.838H783.345C783.242 112.535 783.204 118.528 783.204 120.861C783.204 122.501 783.614 124.071 784.63 124.926C785.703 125.832 787.454 126.241 788.583 126.241C791.204 126.241 794.098 124.926 795.053 123.616C795.053 123.054 794.77 122.775 794.198 122.315C793.58 122.775 792.389 122.961 791.483 122.961C790.438 122.961 789.39 122.171 789.39 119.834C789.39 117.497 789.343 112.502 789.343 107.838H794.151C794.623 107.838 795.289 107.652 795.289 107.229V105.779C795.289 105.589 795.148 105.496 794.911 105.496H789.343L789.39 103.902C789.486 100.789 789.626 98.615 789.626 98.615C789.626 98.3177 789.485 98.2062 789.254 98.2062C788.914 98.2062 787.138 98.7219 786.391 99.0332C785.583 99.3631 784.195 99.6371 783.87 100.065C783.534 100.511 783.345 101.774 783.345 105.496H782.014ZM810.586 123.5C810.902 125.395 812.187 126.241 814.279 126.241C816.905 126.241 818.756 125.256 820.518 123.616C820.405 123.072 820.207 122.696 819.659 122.306C819.039 122.775 818.562 122.961 817.661 122.961C816.611 122.961 816.329 122.12 816.329 119.825L816.424 113.083C816.424 106.337 812.187 104.98 808.276 104.98C804.787 104.98 799.431 106.922 799.431 110.017C799.431 111.355 800.012 112.386 801.901 112.386C803.582 112.386 804.858 111.355 804.858 110.226C804.858 109.608 804.527 108.823 804.636 108.01C804.707 107.494 805.046 106.946 806.652 106.946C808.659 106.946 810.33 107.791 810.33 113.738L807.134 114.718C802.128 116.266 798.624 117.622 798.624 121.321C798.624 124.554 800.433 126.241 804.574 126.241C805.953 126.241 808.712 124.74 810.283 123.523L810.586 123.5ZM810.33 115.564V121.743C809.141 122.682 807.951 123.43 807.097 123.43C805.046 123.43 804.333 122.073 804.333 120.619C804.333 118.886 804.485 117.446 807.856 116.359L810.33 115.564ZM831.937 120.057V110.723V110.639C833.826 109.357 835.762 108.446 836.603 108.446C838.507 108.446 839.933 109.287 839.933 111.959V119.778C839.933 123.709 839.173 124.132 837.222 124.271C836.934 124.554 836.934 125.581 837.222 125.864C839.22 125.818 840.768 125.772 843.026 125.772C845.661 125.772 847.739 125.818 849.784 125.864C850.073 125.581 850.073 124.554 849.784 124.271C846.885 124.132 846.119 123.709 846.119 119.778V112.474C846.119 107.322 843.885 104.98 839.791 104.98C837.873 104.98 834.483 107.048 831.866 108.813C831.757 107.169 831.559 105.779 831.559 105.779C831.512 105.208 831.129 104.98 830.464 104.98C828.702 105.45 825.845 106.105 822.563 106.527C822.468 106.806 822.563 107.745 822.657 108.023C825.251 108.26 825.751 108.632 825.751 111.304V120.057C825.751 123.946 825.226 124.039 822.327 124.271C822.038 124.554 822.038 125.581 822.327 125.864C824.325 125.818 826.308 125.772 828.844 125.772C831.012 125.772 832.367 125.818 834.411 125.864C834.7 125.581 834.7 124.554 834.411 124.271C832.414 124.085 831.937 123.946 831.937 120.057Z" fill="black" fill-opacity="0.87"/>
<path d="M241.39 61.1229V31.2286C241.39 26.1955 242.2 23.2819 245.124 23.2819H246.915C253.005 23.2819 256.417 25.2515 257.794 31.3057C258.689 31.3057 260.23 31.2286 260.962 30.9154C260.395 27.2939 259.987 23.2047 259.908 19.6648C259.908 19.5877 259.743 19.4288 259.665 19.4288C256.904 19.6648 247.889 20.0597 241.47 20.0597H230.017C223.766 20.0597 214.181 19.6648 211.097 19.4288C210.933 19.4288 210.768 19.5877 210.768 19.6648C210.445 23.2047 209.634 27.3755 208.74 31.1515C209.551 31.4646 210.933 31.5417 211.907 31.5417C213.533 25.2515 216.861 23.2819 222.221 23.2819H226.203C229.207 23.2819 230.017 26.1955 230.017 30.9926V61.1229C230.017 67.6535 228.64 68.0439 222.141 68.2798C221.654 68.7518 221.654 70.4855 222.141 70.9575C226.118 70.8757 230.317 70.7986 235.542 70.7986C240.889 70.7986 245.209 70.8757 249.266 70.9575C249.753 70.4855 249.753 68.7518 249.266 68.2798C242.772 68.0439 241.39 67.6535 241.39 61.1229ZM319.009 49.1641C319.087 46.4139 319.519 43.4504 320.63 41.8484C321.919 39.974 324.097 39.1752 325.015 39.1752C327.208 39.1752 330.216 41.2175 330.216 47.5122C330.216 47.9842 330.216 49.01 330.053 49.1641H319.009ZM339.634 60.6508C336.308 63.9547 331.922 64.8216 328.834 64.8216C322.5 64.8216 318.6 61.2817 318.6 53.571C318.6 53.0218 318.681 52.7041 318.681 52.3138H338.173C340.123 52.3138 340.53 50.9751 340.53 49.8722C340.53 43.1871 337.849 35.8713 325.91 35.8713C317.383 35.8713 307.637 43.1871 307.637 55.2229C307.637 59.8248 309.356 64.6082 312.832 67.6535C315.878 70.3266 319.885 71.5838 325.667 71.5838C331.27 71.5838 336.795 68.8335 340.853 63.0879C340.853 62.0668 340.449 60.6508 339.634 60.6508ZM394.907 71.5838C402.788 71.5838 410.018 67.9666 415.538 60.964C415.13 60.2559 413.752 59.3119 412.858 59.3119C407.094 65.4478 400.51 67.4946 394.827 67.4946C385.404 67.4946 377.936 56.7978 377.936 44.5215C377.936 32.2905 384.43 22.2607 394.096 22.2607C405.305 22.2607 408.959 28.3966 411.072 35.1634C412.048 35.4764 413.645 35.2405 414.563 34.7685C414.16 30.6795 413.509 26.9035 412.778 22.5739C408.635 22.1836 404.981 19.0339 394.992 19.0339C379.068 19.0339 365.668 28.6962 365.668 46.0191C365.668 53.4122 368.985 62.094 375.499 66.6279C380.694 70.2494 387.03 71.5838 394.907 71.5838ZM431.132 49.1641C431.216 46.4139 431.647 43.4504 432.758 41.8484C434.042 39.974 436.226 39.1752 437.144 39.1752C439.337 39.1752 442.34 41.2175 442.34 47.5122C442.34 47.9842 442.341 49.01 442.18 49.1641H431.132ZM451.763 60.6508C448.431 63.9547 444.045 64.8216 440.963 64.8216C434.627 64.8216 430.729 61.2817 430.729 53.571C430.729 53.0218 430.808 52.7041 430.808 52.3138H450.301C452.25 52.3138 452.658 50.9751 452.658 49.8722C452.658 43.1871 449.978 35.8713 438.039 35.8713C429.51 35.8713 419.764 43.1871 419.764 55.2229C419.764 59.8248 421.479 64.6082 424.961 67.6535C428.007 70.3266 432.013 71.5838 437.796 71.5838C443.399 71.5838 448.918 68.8335 452.981 63.0879C452.981 62.0668 452.574 60.6508 451.763 60.6508ZM472.553 61.1999V45.5199V45.3746C475.778 43.2235 479.081 41.6895 480.515 41.6895C483.762 41.6895 486.199 43.11 486.199 47.594V60.7279C486.199 67.3358 484.899 68.0439 481.569 68.2798C481.082 68.7518 481.082 70.4855 481.569 70.9575C484.98 70.8757 487.622 70.7986 491.479 70.7986C495.972 70.7986 499.52 70.8757 503.016 70.9575C503.503 70.4855 503.503 68.7518 503.016 68.2798C498.058 68.0439 496.76 67.3358 496.76 60.7279V48.4562C496.76 39.806 492.941 35.8713 485.96 35.8713C482.679 35.8713 476.902 39.3432 472.432 42.3067C472.245 39.5429 471.908 37.2101 471.908 37.2101C471.823 36.2526 471.175 35.8713 470.037 35.8713C467.034 36.6565 462.161 37.7593 456.556 38.4673C456.393 38.9393 456.556 40.5141 456.716 40.9861C461.143 41.3764 461.996 42.0072 461.996 46.4911V61.1999C461.996 67.7307 461.101 67.8895 456.149 68.2798C455.662 68.7518 455.662 70.4855 456.149 70.9575C459.56 70.8757 462.943 70.7986 467.278 70.7986C470.97 70.7986 473.284 70.8757 476.781 70.9575C477.268 70.4855 477.268 68.7518 476.781 68.2798C473.369 67.9666 472.553 67.7307 472.553 61.1999ZM507.561 36.7336C506.426 36.7473 505.194 37.0513 504.149 37.9135V40.1964C504.149 40.5912 504.233 40.6684 504.557 40.6684H509.837C509.66 48.5607 509.593 58.6312 509.593 62.5524C509.593 65.3071 510.297 67.9394 512.03 69.3826C513.858 70.9029 516.847 71.5838 518.768 71.5838C523.252 71.5838 528.192 69.3826 529.818 67.1815C529.818 66.2376 529.329 65.7656 528.355 64.9895C527.297 65.7656 525.267 66.0786 523.726 66.0786C521.941 66.0786 520.15 64.7535 520.15 60.8187C520.15 56.9022 520.072 48.5106 520.072 40.6684H528.275C529.086 40.6684 530.22 40.3553 530.22 39.6472V37.2101C530.22 36.8924 529.977 36.7336 529.574 36.7336H520.072L520.15 34.0606C520.315 28.8278 520.559 25.1698 520.559 25.1698C520.559 24.6751 520.315 24.4891 519.92 24.4891C519.34 24.4891 516.309 25.356 515.034 25.8779C513.651 26.4315 511.286 26.8899 510.728 27.6115C510.161 28.3558 509.837 30.4798 509.837 36.7336H507.561ZM551.662 49.6907C551.662 46.8859 552.558 45.7423 553.616 44.5215C554.277 43.7499 554.994 43.1871 556.185 43.1871C556.942 43.1871 557.795 43.868 558.49 44.6804C559.057 45.3519 560.439 45.9783 562.266 45.9783C564.618 45.9783 566.932 43.582 566.932 40.278C566.932 38.2313 564.495 35.8713 561.572 35.8713C558.733 35.8713 555.645 38.2313 551.906 43.4232H551.582C551.419 41.0632 551.015 37.2101 551.015 37.2101C550.945 36.5249 550.284 35.8713 549.146 35.8713C545.29 36.8153 541.025 37.9544 535.665 38.4673C535.502 38.9393 535.665 40.4324 535.824 40.9044C540.252 41.2993 541.105 42.0072 541.105 46.4911V61.1999C541.105 67.7307 540.21 67.8895 535.258 68.2798C534.77 68.7518 534.77 70.4855 535.258 70.9575C538.669 70.8757 542.052 70.7986 546.385 70.7986C550.715 70.7986 554.019 70.8757 557.509 70.9575C557.996 70.4855 557.996 68.7518 557.509 68.2798C552.558 67.9666 551.662 67.7307 551.662 61.1999V49.6907ZM591.894 66.9818C592.437 70.1678 594.63 71.5838 598.205 71.5838C602.685 71.5838 605.838 69.9317 608.842 67.1815C608.655 66.2603 608.317 65.634 607.38 64.9759C606.325 65.7656 605.515 66.0786 603.969 66.0786C602.183 66.0786 601.696 64.6628 601.696 60.8097L601.861 49.4818C601.861 38.1496 594.63 35.8713 587.958 35.8713C582.002 35.8713 572.865 39.1345 572.865 44.3263C572.865 46.5819 573.849 48.3111 577.073 48.3111C579.945 48.3111 582.123 46.5819 582.123 44.6804C582.123 43.6456 581.551 42.3204 581.745 40.9589C581.866 40.092 582.447 39.1752 585.183 39.1752C588.604 39.1752 591.463 40.5912 591.463 50.5801L586.009 52.2321C577.466 54.8282 571.483 57.1109 571.483 63.3239C571.483 68.7518 574.57 71.5838 581.636 71.5838C583.99 71.5838 588.702 69.0695 591.382 67.0226L591.894 66.9818ZM591.463 53.6481V64.0319C589.433 65.6068 587.4 66.8638 585.938 66.8638C582.447 66.8638 581.229 64.5855 581.229 62.1439C581.229 59.2348 581.486 56.8113 587.241 54.987L591.463 53.6481ZM618.752 60.8097C618.752 67.3358 617.454 68.0439 612.496 68.2798C612.009 68.7518 612.009 70.4855 612.496 70.9575C615.908 70.8757 619.54 70.7986 624.033 70.7986C628.527 70.7986 632.074 70.8757 635.564 70.9575C636.051 70.4855 636.051 68.7518 635.564 68.2798C630.611 68.0439 629.313 67.3358 629.313 60.8097V24.9339C629.313 19.8236 629.557 16.91 629.557 16.91C629.557 16.2021 628.985 15.8889 628.255 15.8889C625.251 16.8329 618.752 17.6997 612.983 17.9358C612.74 18.8796 612.824 19.742 613.227 20.4499C618.345 20.8448 618.752 20.9491 618.752 26.3499V60.8097ZM731.392 66.9818C731.935 70.1678 734.123 71.5838 737.699 71.5838C742.179 71.5838 745.337 69.9317 748.341 67.1815C748.148 66.2603 747.811 65.634 746.878 64.9759C745.824 65.7656 745.009 66.0786 743.467 66.0786C741.681 66.0786 741.194 64.6628 741.194 60.8097L741.354 49.4818C741.354 38.1496 734.123 35.8713 727.452 35.8713C721.496 35.8713 712.359 39.1345 712.359 44.3263C712.359 46.5819 713.347 48.3111 716.567 48.3111C719.439 48.3111 721.618 46.5819 721.618 44.6804C721.618 43.6456 721.051 42.3204 721.239 40.9589C721.36 40.092 721.941 39.1752 724.678 39.1752C728.102 39.1752 730.956 40.5912 730.956 50.5801L725.502 52.2321C716.96 54.8282 710.977 57.1109 710.977 63.3239C710.977 68.7518 714.064 71.5838 721.13 71.5838C723.488 71.5838 728.196 69.0695 730.876 67.0226L731.392 66.9818ZM730.956 53.6481V64.0319C728.928 65.6068 726.898 66.8638 725.436 66.8638C721.941 66.8638 720.723 64.5855 720.723 62.1439C720.723 59.2348 720.98 56.8113 726.735 54.987L730.956 53.6481ZM767.022 61.1999V45.5199V45.3746C770.241 43.2235 773.544 41.6895 774.978 41.6895C778.23 41.6895 780.666 43.11 780.666 47.594V60.7279C780.666 67.3358 779.364 68.0439 776.038 68.2798C775.55 68.7518 775.55 70.4855 776.038 70.9575C779.449 70.8757 782.086 70.7986 785.943 70.7986C790.441 70.7986 793.983 70.8757 797.479 70.9575C797.967 70.4855 797.967 68.7518 797.479 68.2798C792.522 68.0439 791.223 67.3358 791.223 60.7279V48.4562C791.223 39.806 787.406 35.8713 780.423 35.8713C777.148 35.8713 771.366 39.3432 766.9 42.3067C766.708 39.5429 766.37 37.2101 766.37 37.2101C766.292 36.2526 765.64 35.8713 764.501 35.8713C761.497 36.6565 756.624 37.7593 751.021 38.4673C750.857 38.9393 751.021 40.5141 751.184 40.9861C755.608 41.3764 756.461 42.0072 756.461 46.4911V61.1999C756.461 67.7307 755.57 67.8895 750.612 68.2798C750.125 68.7518 750.125 70.4855 750.612 70.9575C754.024 70.8757 757.408 70.7986 761.741 70.7986C765.439 70.7986 767.753 70.8757 771.244 70.9575C771.731 70.4855 771.731 68.7518 771.244 68.2798C767.833 67.9666 767.022 67.7307 767.022 61.1999ZM806.658 60.8097C806.658 67.3358 805.356 68.0439 800.404 68.2798C799.915 68.7518 799.915 70.4855 800.404 70.9575C803.814 70.8757 807.441 70.7986 811.935 70.7986C815.481 70.7986 819.086 70.8757 821.034 70.9575C821.522 70.4855 821.522 68.7518 821.034 68.2798C818.555 68.0075 817.215 67.3358 817.215 60.8097V54.3562C819.488 54.3562 821.967 54.633 822.82 55.8538C824.689 58.5269 826.961 61.7899 828.343 64.6628C829.398 66.8638 829.643 67.5719 829.643 68.7518V70.7986L829.806 70.9575C829.806 70.9575 833.46 70.7986 836.3 70.7986C839.632 70.7986 844.182 70.8757 847.186 70.9575C847.673 70.4855 847.673 68.7518 847.186 68.2798C844.032 68.0075 842.261 68.189 839.796 64.6628L830.373 51.211C829.98 50.6619 829.777 50.0039 830.13 49.6362L834.15 45.3519C836.778 42.5428 838.98 39.8424 845.156 39.1752C845.643 38.7033 845.643 36.9742 845.156 36.4977C843.367 36.5793 838.25 36.6565 836.142 36.6565C833.133 36.6565 829.319 36.5793 826.311 36.4977C825.824 36.9742 825.824 38.7033 826.311 39.1752C830.697 39.4884 831.957 40.2373 829.643 43.346C827.856 45.7287 826.067 47.6302 824.446 48.9963C823.401 49.8585 819.651 51.211 817.215 51.211V24.9339C817.215 19.8236 817.46 16.91 817.46 16.91C817.46 16.2021 816.893 15.8889 816.16 15.8889C813.152 16.8329 806.658 17.6997 800.891 17.9358C800.647 18.8796 800.726 19.742 801.134 20.4499C806.251 20.8448 806.658 20.9491 806.658 26.3499V60.8097ZM300.303 61.4314V50.0174C300.303 41.9663 296.756 38.3084 290.257 38.3084C287.474 38.3084 282.085 40.9906 277.788 43.6002V28.1334C277.788 23.3772 278.018 20.6723 278.018 20.6723C278.018 20.0143 277.489 19.7193 276.808 19.7193C274.012 20.5998 267.966 21.403 262.602 21.6208C262.376 22.5013 262.452 23.3046 262.832 23.9627C267.591 24.3302 267.966 24.4302 267.966 29.454V61.5041C267.966 67.5809 266.758 68.2389 262.153 68.4568C261.697 68.897 261.697 70.5082 262.153 70.9438C265.324 70.8712 268.698 70.7986 272.877 70.7986C276.466 70.7986 278.847 70.8712 282.094 70.9438C282.55 70.5082 282.55 68.897 282.094 68.4568C278.923 68.2389 277.788 67.5809 277.788 61.5041V46.5273C280.928 44.5896 283.468 43.7227 284.817 43.7227C287.839 43.7227 290.482 45.0388 290.482 49.2095V61.4314C290.482 67.5809 289.272 68.2389 286.175 68.4568C285.721 68.897 285.721 70.5082 286.175 70.9438C289.348 70.8712 291.803 70.7986 295.392 70.7986C299.577 70.7986 302.875 70.8712 306.123 70.9438C306.576 70.5082 306.576 68.897 306.123 68.4568C301.511 68.2389 300.303 67.5809 300.303 61.4314Z" fill="black"/>
<path d="M678.057 26.6562C678.057 24.3839 678.461 23.287 683.712 23.287C687.43 23.287 691.955 24.6973 691.955 32.3759C691.955 38.6441 688.319 41.2298 682.581 41.2298H678.057V26.6562ZM678.057 44.5206H683.794C692.115 44.5206 695.753 49.3002 695.753 56.0385C695.753 60.7398 694.056 67.5565 683.39 67.5565C678.541 67.5565 678.057 66.3811 678.057 64.1089V44.5206ZM672.48 20.1527C669.248 20.1527 660.038 19.9961 660.038 19.9961C659.228 20.4662 659.228 22.19 660.038 22.6601C664.481 22.8951 666.744 23.2086 666.744 29.7119V61.1315C666.744 67.6347 664.481 67.9482 660.038 68.1832C659.228 68.6533 659.228 70.3771 660.038 70.8472C660.038 70.8472 669.248 70.6906 672.48 70.6906C675.713 70.6906 680.884 70.8472 685.733 70.8472C702.297 70.8472 707.63 64.1089 707.63 56.1169C707.63 49.2218 704.074 44.7556 695.509 42.5617V42.4051C699.873 40.5247 703.267 36.2151 703.267 32.2192C703.267 26.8128 700.196 19.9961 683.956 19.9961C679.914 19.9961 674.985 20.1527 672.48 20.1527Z" fill="black"/>
</g>
<defs>
<radialGradient id="paint0_radial_25_7" cx="0" cy="0" r="1" gradientUnits="userSpaceOnUse" gradientTransform="translate(123.934 45.2736) rotate(145.34) scale(129.21 131.053)">
<stop stop-color="#E4A237"/>
<stop offset="0.501961" stop-color="#F0B644"/>
<stop offset="1" stop-color="#E7C66E"/>
</radialGradient>
<clipPath id="clip0_25_7">
<rect width="850" height="160" fill="white"/>
</clipPath>
</defs>
</svg>
