<svg width="120" height="120" viewBox="0 0 120 120" fill="none" xmlns="http://www.w3.org/2000/svg">
<g clip-path="url(#clip0_19_23)">
<path d="M60 120C93.1371 120 120 93.1371 120 60C120 26.8629 93.1371 0 60 0C26.8629 0 0 26.8629 0 60C0 93.1371 26.8629 120 60 120Z" fill="#00BCEB"/>
<path d="M44.8125 76.3359H47.8828V64.1836H44.8125V76.3359ZM31.3359 70.2539C31.3359 74.168 34.3594 76.5469 37.8047 76.5469C39.1758 76.5469 40.2188 76.2305 40.6055 76.1133V72.8555C40.4648 72.9258 39.4688 73.5 38.0273 73.5C35.9766 73.5 34.6641 72.0586 34.6641 70.2539C34.6641 68.4023 36.0352 67.0078 38.0273 67.0078C39.4922 67.0078 40.4766 67.5938 40.6055 67.6641V64.4062C40.3125 64.3242 39.2461 63.9727 37.8047 63.9727C34.0781 63.9727 31.3359 66.6328 31.3359 70.2539ZM63.3398 70.2539C63.3398 74.168 66.3633 76.5469 69.8086 76.5469C71.168 76.5469 72.2227 76.2305 72.5977 76.1133V72.8555C72.4687 72.9258 71.4609 73.5 70.0195 73.5C67.9805 73.5 66.6562 72.0586 66.6562 70.2539C66.6562 68.4023 68.0273 67.0078 70.0195 67.0078C71.4844 67.0078 72.4687 67.5938 72.5977 67.6641V64.4062C72.3047 64.3242 71.2383 63.9727 69.8086 63.9727C66.0703 63.9727 63.3398 66.6328 63.3398 70.2539ZM79.0781 70.2539C79.0781 68.4961 80.4258 67.0547 82.2539 67.0547C84.0703 67.0547 85.4297 68.4844 85.4297 70.2539C85.4297 72.0234 84.0703 73.4531 82.2539 73.4531C80.4258 73.4648 79.0781 72.0234 79.0781 70.2539ZM75.832 70.2539C75.832 73.7344 78.5156 76.5469 82.2422 76.5469C85.9805 76.5469 88.6641 73.7344 88.6641 70.2539C88.6641 66.7852 85.9805 63.9727 82.2422 63.9727C78.5156 63.9727 75.832 66.7852 75.832 70.2539ZM51.9961 67.7695C51.9961 69.7852 53.4258 70.7812 55.125 71.3203C55.3125 71.3789 55.5937 71.4727 55.7812 71.5313C56.543 71.7656 57.1406 72.1289 57.1406 72.7383C57.1406 73.4297 56.4375 73.875 54.9141 73.875C53.5781 73.875 52.2891 73.4883 52.0195 73.418V76.2188C52.1719 76.2539 53.6953 76.5469 55.3242 76.5469C57.668 76.5469 60.3516 75.5273 60.3516 72.4688C60.3516 70.9922 59.4492 69.6211 57.457 69L56.6133 68.7305C56.1094 68.5664 55.207 68.3086 55.207 67.5703C55.207 66.9844 55.875 66.5742 57.1055 66.5742C58.1602 66.5742 59.4609 66.9258 59.4961 66.9492V64.3477C59.4023 64.3242 57.9961 63.9609 56.5078 63.9609C53.6953 63.9727 51.9961 65.4961 51.9961 67.7695ZM25.043 51.1289V54.3164C25.043 55.1602 25.7344 55.8398 26.5664 55.8398C27.4102 55.8398 28.0898 55.1602 28.0898 54.3164V51.1289C28.0898 50.2969 27.4102 49.6055 26.5664 49.6055C25.7227 49.6172 25.043 50.2969 25.043 51.1289ZM58.4883 51.1289V54.3164C58.4883 55.1602 59.168 55.8398 60.0117 55.8398C60.8437 55.8398 61.5234 55.1602 61.5234 54.3164V51.1289C61.5234 50.2969 60.8437 49.6055 60.0117 49.6055C59.168 49.6172 58.4883 50.2969 58.4883 51.1289ZM91.9219 51.1289V54.3164C91.9219 55.1602 92.6016 55.8398 93.4336 55.8398C94.2656 55.8398 94.9453 55.1602 94.9453 54.3164V51.1289C94.9453 50.2969 94.2656 49.6055 93.4336 49.6055C92.6016 49.6172 91.9219 50.2969 91.9219 51.1289ZM33.3984 46.9453V54.3164C33.3984 55.1602 34.0781 55.8398 34.9219 55.8398C35.7656 55.8398 36.4453 55.1602 36.4453 54.3164V46.9453C36.4453 46.1133 35.7656 45.4219 34.9219 45.4219C34.0781 45.4219 33.3984 46.1133 33.3984 46.9453ZM50.1211 46.9453V54.3164C50.1211 55.1602 50.8008 55.8398 51.6445 55.8398C52.4883 55.8398 53.168 55.1602 53.168 54.3164V46.9453C53.168 46.1133 52.4883 45.4219 51.6445 45.4219C50.8125 45.4219 50.1211 46.1133 50.1211 46.9453ZM66.8438 46.9453V54.3164C66.8438 55.1602 67.5234 55.8398 68.3672 55.8398C69.1992 55.8398 69.8906 55.1602 69.8906 54.3164V46.9453C69.8906 46.1133 69.2109 45.4219 68.3672 45.4219C67.5234 45.4219 66.8438 46.1133 66.8438 46.9453ZM83.5547 46.9453V54.3164C83.5547 55.1602 84.2344 55.8398 85.0664 55.8398C85.9219 55.8398 86.6016 55.1602 86.6016 54.3164V46.9453C86.6016 46.1133 85.9219 45.4219 85.0664 45.4219C84.2344 45.4219 83.5547 46.1133 83.5547 46.9453ZM41.7656 41.2148V57.3516C41.7656 58.1953 42.4453 58.875 43.2891 58.875C44.1211 58.875 44.8125 58.1953 44.8125 57.3516V41.2148C44.8125 40.3711 44.1328 39.6914 43.2891 39.6914C42.4453 39.7031 41.7656 40.3828 41.7656 41.2148ZM75.2109 41.2148V57.3516C75.2109 58.1953 75.8906 58.875 76.7227 58.875C77.5664 58.875 78.2344 58.1953 78.2344 57.3516V41.2148C78.2344 40.3711 77.5547 39.6914 76.7227 39.6914C75.8906 39.7031 75.2109 40.3828 75.2109 41.2148Z" fill="white"/>
</g>
<defs>
<clipPath id="clip0_19_23">
<rect width="120" height="120" fill="white"/>
</clipPath>
</defs>
</svg>
