<svg width="120" height="120" viewBox="0 0 120 120" fill="none" xmlns="http://www.w3.org/2000/svg">
<path d="M120 61.35C120 57.4 119.642 53.65 119.029 50H61.3027V72.55H94.3551C92.8736 79.95 88.5313 86.2 82.0946 90.45V105.45H101.814C113.359 95 120 79.6 120 61.35Z" fill="#4285F4"/>
<path d="M61.3025 120C77.8542 120 91.6984 114.6 101.813 105.45L82.0943 90.4502C76.5771 94.0502 69.5784 96.2502 61.3025 96.2502C45.3127 96.2502 31.775 85.7002 26.9219 71.4502H6.58984V86.9002C16.6537 106.5 37.3434 120 61.3025 120Z" fill="#34A853"/>
<path d="M26.9221 71.4506C25.645 67.8506 24.9808 64.0006 24.9808 60.0006C24.9808 56.0006 25.696 52.1506 26.9221 48.5506V33.1006H6.59003C2.40102 41.2006 0 50.3006 0 60.0006C0 69.7006 2.40102 78.8006 6.59003 86.9006L26.9221 71.4506Z" fill="#FBBC05"/>
<path d="M61.3025 23.75C70.3446 23.75 78.4162 26.8 84.8018 32.75L102.273 15.65C91.6984 5.95001 77.8542 0 61.3025 0C37.3434 0 16.6537 13.5 6.58984 33.1L26.9219 48.55C31.775 34.3 45.3127 23.75 61.3025 23.75Z" fill="#EA4335"/>
</svg>
