<svg width="120" height="120" viewBox="0 0 120 120" fill="none" xmlns="http://www.w3.org/2000/svg">
<path d="M72.9824 63.0337H109.877C115.462 63.0337 120 67.6459 120 73.3837V109.65C120 115.36 115.489 120 109.877 120H72.9824C67.3973 120 62.8594 115.388 62.8594 109.65V73.3837C62.8594 67.6459 67.3973 63.0337 72.9824 63.0337Z" fill="#00005B"/>
<path d="M76.4463 102.951V77.9134C76.4463 77.7487 76.5268 77.6388 76.688 77.6388C77.0907 77.6388 77.4666 77.6388 78.0305 77.6114C78.5944 77.5839 79.1852 77.5839 79.8296 77.5565C80.474 77.529 81.1722 77.529 81.8972 77.5016C82.6222 77.4741 83.3472 77.4741 84.0722 77.4741C86.0323 77.4741 87.6434 77.7212 88.986 78.2154C90.1675 78.6272 91.2684 79.3135 92.1813 80.2195C92.9332 80.9882 93.5508 81.9491 93.9267 82.9923C94.2758 84.0081 94.4637 85.0513 94.4637 86.1495C94.4637 88.236 93.9804 89.9655 93.0406 91.3382C92.1008 92.7109 90.7582 93.7267 89.2008 94.3032C87.5897 94.9072 85.7907 95.1268 83.8573 95.1268C83.2935 95.1268 82.9175 95.1268 82.6759 95.0994C82.4342 95.0719 82.112 95.0719 81.6555 95.0719V102.951C81.6824 103.116 81.5481 103.281 81.387 103.281C81.3601 103.281 81.3333 103.281 81.2796 103.281H76.7685C76.5268 103.281 76.4463 103.171 76.4463 102.951ZM81.6287 82.3609V90.5421C81.9509 90.5695 82.2731 90.597 82.5685 90.597H83.8305C84.7703 90.597 85.6833 90.4597 86.5694 90.1577C87.3212 89.9381 87.9925 89.4714 88.5295 88.8674C89.0397 88.2634 89.2545 87.4398 89.2545 86.3691C89.2814 85.6279 89.0934 84.8592 88.7175 84.2003C88.3147 83.5688 87.7508 83.0747 87.0527 82.8001C86.1666 82.4432 85.2268 82.2785 84.2333 82.306C83.6157 82.306 83.0786 82.306 82.6222 82.3334C82.112 82.306 81.7898 82.3334 81.6287 82.3609Z" fill="#9999FF"/>
<path d="M97.7669 83.7611H101.929C102.171 83.7611 102.359 83.9259 102.439 84.1455C102.52 84.3377 102.546 84.5298 102.573 84.7495C102.627 84.9966 102.681 85.2711 102.681 85.4907C102.708 85.7652 102.734 86.0398 102.734 86.3692C103.459 85.5182 104.319 84.8044 105.285 84.2828C106.386 83.6513 107.648 83.3219 108.91 83.3219C109.071 83.2944 109.233 83.4317 109.233 83.5964C109.233 83.6239 109.233 83.6513 109.233 83.7062V88.4557C109.233 88.6479 109.125 88.7303 108.857 88.7303C107.997 88.7028 107.111 88.7852 106.279 88.9773C105.581 89.1146 104.909 89.3342 104.292 89.6362C103.835 89.8558 103.406 90.1578 103.084 90.5422V102.951C103.084 103.198 102.976 103.281 102.761 103.281H98.0623C97.8743 103.308 97.7132 103.171 97.6863 102.979C97.6863 102.951 97.6863 102.896 97.6863 102.869V89.3891C97.6863 88.8126 97.6863 88.2086 97.6595 87.5772C97.6326 86.9458 97.6326 86.3143 97.6058 85.6829C97.6058 85.1338 97.5521 84.5847 97.4984 84.0357C97.4715 83.9259 97.5521 83.7886 97.6595 83.7611C97.6863 83.7337 97.74 83.7337 97.7669 83.7611Z" fill="#9999FF"/>
<path d="M72.9824 0H109.877C115.462 0 120 4.61222 120 10.35V46.6163C120 52.3267 115.489 56.9664 109.877 56.9664H72.9824C67.3973 56.9664 62.8594 52.3541 62.8594 46.6163V10.35C62.8594 4.61222 67.3973 0 72.9824 0Z" fill="#001E36"/>
<path d="M75.7217 39.9449V14.8797C75.7217 14.715 75.8022 14.6052 75.9633 14.6052C76.3661 14.6052 76.742 14.6052 77.3059 14.5777C77.8698 14.5502 78.4605 14.5502 79.105 14.5228C79.7494 14.4953 80.4476 14.4953 81.1726 14.4679C81.8976 14.4404 82.6226 14.4404 83.3475 14.4404C85.3077 14.4404 86.9188 14.6875 88.2614 15.1817C89.4429 15.5935 90.5438 16.2798 91.4567 17.1858C92.2086 17.9545 92.8262 18.9154 93.2021 19.9586C93.5512 20.9744 93.7391 22.0176 93.7391 23.1158C93.7391 25.2023 93.2558 26.9319 92.316 28.3045C91.3762 29.6772 90.0336 30.693 88.4762 31.2695C86.8651 31.8735 85.0661 32.0931 83.1327 32.0931C82.5689 32.0931 82.1929 32.0931 81.9513 32.0657C81.7096 32.0382 81.3874 32.0382 80.9309 32.0382V39.8625C80.9577 40.0272 80.8235 40.192 80.6624 40.192C80.6355 40.192 80.6087 40.192 80.555 40.192H76.0439C75.8022 40.2469 75.7217 40.1645 75.7217 39.9449ZM80.904 19.3272V27.5084C81.2263 27.5358 81.5485 27.5633 81.8439 27.5633H83.1059C84.0457 27.5633 84.9586 27.426 85.8448 27.124C86.5966 26.9044 87.2679 26.4377 87.8049 25.8337C88.3151 25.2297 88.5299 24.4061 88.5299 23.3354C88.5568 22.5942 88.3688 21.8255 87.9929 21.1666C87.5901 20.5351 87.0262 20.041 86.3281 19.7664C85.442 19.4095 84.5022 19.2448 83.5087 19.2723C82.8911 19.2723 82.354 19.2723 81.8976 19.2997C81.4142 19.2723 81.0652 19.2997 80.904 19.3272Z" fill="#31A8FF"/>
<path d="M108.561 26.0264C107.836 25.642 107.084 25.3675 106.278 25.2028C105.392 25.0106 104.506 24.8733 103.62 24.8733C103.137 24.8459 102.653 24.9282 102.197 25.038C101.875 25.1204 101.633 25.2851 101.472 25.5322C101.365 25.7244 101.284 25.9715 101.284 26.1911C101.284 26.4107 101.391 26.6304 101.526 26.8225C101.74 27.0971 102.036 27.3167 102.331 27.4814C102.868 27.7834 103.459 28.0305 104.023 28.2776C105.312 28.7168 106.547 29.3208 107.702 30.0621C108.48 30.5837 109.125 31.2426 109.581 32.0936C109.957 32.8623 110.145 33.7134 110.118 34.5919C110.145 35.745 109.796 36.8706 109.178 37.8315C108.507 38.7923 107.594 39.561 106.52 40.0003C105.365 40.5219 103.915 40.769 102.224 40.769C101.123 40.769 100.049 40.6592 98.9747 40.4396C98.1423 40.3023 97.3099 40.0277 96.5581 39.6708C96.397 39.561 96.2627 39.3963 96.2896 39.2041V34.9763C96.2896 34.8939 96.3164 34.8116 96.397 34.7566C96.4775 34.7017 96.5312 34.7292 96.6118 34.7841C97.5516 35.3332 98.5183 35.745 99.5655 35.9646C100.478 36.2117 101.418 36.3215 102.385 36.3215C103.298 36.3215 103.942 36.2117 104.372 35.9921C104.748 35.8273 105.016 35.4155 105.016 34.9763C105.016 34.6468 104.828 34.3174 104.452 34.0154C104.077 33.6859 103.298 33.3291 102.116 32.8623C100.908 32.4231 99.7803 31.8466 98.7331 31.1053C98.0081 30.5562 97.3636 29.8699 96.934 29.0463C96.5581 28.2776 96.3701 27.4265 96.397 26.5755C96.397 25.5322 96.6923 24.5439 97.2025 23.6379C97.7933 22.677 98.6794 21.8809 99.6997 21.3867C100.827 20.8102 102.224 20.5356 103.915 20.5356C104.882 20.5356 105.902 20.618 106.869 20.7553C107.594 20.8651 108.265 21.0573 108.91 21.3043C109.017 21.3318 109.098 21.4142 109.152 21.524C109.178 21.6338 109.205 21.7162 109.205 21.826V25.7793C109.205 25.8891 109.152 25.9715 109.098 26.0264C108.776 26.0538 108.668 26.0538 108.561 26.0264Z" fill="#31A8FF"/>
<path d="M10.1231 0H47.0172C52.6024 0 57.1403 4.61222 57.1403 10.35V46.6163C57.1403 52.3267 52.6292 56.9664 47.0172 56.9664H10.1231C4.53793 56.9664 0 52.3541 0 46.6163V10.35C0 4.61222 4.51108 0 10.1231 0Z" fill="#330000"/>
<path d="M27.6839 34.1523H18.8229L17.0238 39.8627C16.9701 40.0823 16.7822 40.2196 16.5674 40.1921H12.0831C11.8146 40.1921 11.7609 40.0549 11.8146 39.7529L19.4673 17.186C19.5479 16.9389 19.6016 16.6643 19.709 16.3898C19.8164 15.8682 19.8433 15.3466 19.8433 14.7975C19.8164 14.6877 19.9238 14.5504 20.0312 14.5229C20.0581 14.5229 20.0849 14.5229 20.1118 14.5229H26.2071C26.3951 14.5229 26.5025 14.6053 26.5293 14.7151L35.2292 39.7803C35.3098 40.0549 35.2292 40.1647 34.9876 40.1647H30.02C29.8589 40.1921 29.6978 40.0549 29.6441 39.8901L27.6839 34.1523ZM20.2192 29.2381H26.2608C26.1265 28.7165 25.9386 28.1125 25.7238 27.4811C25.509 26.8222 25.2941 26.1084 25.0793 25.3946C24.8377 24.6534 24.6228 23.9121 24.3812 23.1434C24.1395 22.4022 23.9247 21.6884 23.7367 20.9746C23.5488 20.2882 23.3877 19.6568 23.1997 19.0803H23.146C22.9312 20.1235 22.6627 21.1667 22.3405 22.21C21.9914 23.3905 21.6155 24.5984 21.2395 25.8064C20.9173 27.0693 20.5682 28.1949 20.2192 29.2381Z" fill="#FF9A00"/>
<path d="M40.4119 18.7232C39.6332 18.7507 38.8545 18.4213 38.2906 17.8722C37.7536 17.2682 37.4582 16.472 37.4851 15.621C37.4582 14.7974 37.7804 14.0012 38.3443 13.4521C38.9082 12.9031 39.6869 12.6011 40.4656 12.6011C41.4054 12.6011 42.1036 12.9031 42.6406 13.4521C43.1776 14.0287 43.4461 14.8248 43.4193 15.621C43.4461 16.4446 43.1508 17.2407 42.5869 17.8722C42.023 18.4762 41.2175 18.7781 40.4119 18.7232ZM37.7536 39.8626V21.1117C37.7536 20.8646 37.861 20.7823 38.0758 20.7823H42.8017C43.0165 20.7823 43.1239 20.8921 43.1239 21.1117V39.8626C43.1239 40.1371 43.0165 40.2469 42.8017 40.2469H38.1295C37.861 40.2469 37.7536 40.1096 37.7536 39.8626Z" fill="#FF9A00"/>
<path d="M10.1231 63.0337H47.0172C52.6024 63.0337 57.1403 67.6734 57.1403 73.3837V109.65C57.1403 115.36 52.6024 120 47.0172 120H10.1231C4.53793 120 0 115.36 0 109.65V73.3837C0 67.6459 4.53793 63.0337 10.1231 63.0337Z" fill="#00005B"/>
<path d="M22.9587 97.1038H14.0977L12.2986 102.842C12.2449 103.061 12.0569 103.199 11.8421 103.199H7.35789C7.08937 103.199 7.00882 103.061 7.08937 102.759L14.7421 80.2747C14.8226 80.0276 14.9032 79.808 14.9838 79.506C15.0912 78.9844 15.1449 78.4628 15.1449 77.9137C15.118 77.7764 15.2254 77.6666 15.3597 77.6392C15.3865 77.6392 15.4134 77.6392 15.4134 77.6392H21.5087C21.6967 77.6392 21.7772 77.6941 21.8041 77.8313L30.504 102.787C30.5846 103.061 30.504 103.171 30.2623 103.171H25.2679C25.08 103.199 24.9189 103.061 24.892 102.897L22.9587 97.1038ZM15.4671 92.272H21.5087C21.3476 91.7503 21.1865 91.1738 20.9717 90.5149C20.7569 89.856 20.542 89.1697 20.3272 88.4285C20.0856 87.6872 19.8708 86.946 19.6291 86.2047C19.3874 85.4635 19.1995 84.7497 18.9846 84.0633C18.7967 83.377 18.6087 82.7455 18.4745 82.169H18.4476C18.2328 83.2397 17.9643 84.283 17.6421 85.2987C17.293 86.4792 16.9171 87.6872 16.5411 88.8952C16.1921 90.0757 15.843 91.2287 15.4671 92.272Z" fill="#9999FF"/>
<path d="M44.6012 94.88H37.0559C37.1364 95.6487 37.4049 96.3899 37.7809 97.0488C38.2105 97.7077 38.8281 98.2019 39.5262 98.5313C40.4929 98.9431 41.5132 99.1628 42.5605 99.1353C43.3929 99.1078 44.2253 99.0255 45.0308 98.8608C45.7558 98.7509 46.4808 98.5588 47.1521 98.2842C47.2864 98.1744 47.3401 98.2568 47.3401 98.4764V102.21C47.3401 102.32 47.3132 102.402 47.2864 102.512C47.2327 102.594 47.1789 102.649 47.1252 102.677C46.3734 103.034 45.5678 103.253 44.7623 103.391C43.6614 103.61 42.5336 103.693 41.379 103.693C39.5531 103.693 38.0494 103.418 36.8142 102.842C35.6596 102.32 34.6392 101.524 33.8337 100.535C33.0818 99.602 32.5179 98.5039 32.1957 97.3508C31.8735 96.1978 31.6855 95.0172 31.6855 93.8093C31.6855 92.4915 31.8735 91.2012 32.2763 89.9383C32.6522 88.7304 33.2698 87.6048 34.0485 86.6164C34.8272 85.6555 35.8207 84.8594 36.9216 84.3103C38.0494 83.7612 39.3651 83.5416 40.8957 83.5416C42.1577 83.5142 43.4197 83.7612 44.6012 84.2829C45.5678 84.7221 46.454 85.381 47.0984 86.2321C47.716 87.0557 48.1993 87.9891 48.5215 89.0049C48.8169 89.9658 48.978 90.9816 48.978 91.9699C48.978 92.5464 48.9512 93.068 48.9243 93.5348C48.8975 94.0015 48.8437 94.3309 48.8169 94.5505C48.79 94.7427 48.6558 94.8525 48.4678 94.8525C48.3067 94.8525 48.0651 94.88 47.6891 94.9074C47.3132 94.9349 46.8567 94.9623 46.3197 94.9898C45.8095 94.9623 45.2188 94.88 44.6012 94.88ZM37.0559 91.311H42.0771C42.6947 91.311 43.1512 91.311 43.4466 91.2835C43.6345 91.2561 43.8225 91.2012 44.0105 91.0914V90.8443C44.0105 90.5423 43.9567 90.2403 43.8493 89.9383C43.4197 88.5656 42.1577 87.6597 40.7346 87.7146C39.4188 87.6322 38.1836 88.346 37.5661 89.554C37.2975 90.103 37.1364 90.707 37.0559 91.311Z" fill="#9999FF"/>
</svg>
