<svg width="120" height="120" viewBox="0 0 120 120" fill="none" xmlns="http://www.w3.org/2000/svg">
<path d="M36.8419 100.116V111.331C36.8419 114.516 35.2345 116.216 32.3137 116.216C29.3765 116.216 27.7595 114.467 27.7595 111.195V100.129H23.7186V111.331C23.7186 116.843 26.832 120.001 32.2604 120.001C37.7402 120.001 40.8828 116.782 40.8828 111.169V100.116H36.8419ZM51.7092 100.116L42.9327 119.696H47.0575L48.7516 115.904L48.8728 115.62H57.9904L59.7786 119.696H64.0155L55.3206 100.232L55.2425 100.116L51.7092 100.116ZM75.7359 100.116L71.2134 113.588L66.811 100.126H62.5106L69.4524 119.708H72.7987L77.3303 106.845L81.8585 119.708H85.2331L92.1579 100.126H87.9674L83.556 113.588L79.0323 100.116H75.7359ZM115.28 100.116V119.679H119.268V100.116H115.28ZM0.904297 100.117V119.707H4.94635V111.751H14.073V119.707H18.1161V100.117H14.073V108.02H4.94635V100.117H0.904297ZM95.4169 100.131V119.694H110.461V116.127H99.4046V111.276H106.757V107.708H99.4046V103.698H110.076V100.131H95.4169ZM53.4214 105.074L56.3031 111.633H56.293L56.489 112.085H50.3755L50.5692 111.633L53.4214 105.074Z" fill="#232527"/>
<path d="M51.2385 0.000252718C49.6353 0.139706 45.3028 1.10946 45.3028 1.10946C35.5374 3.59156 33.2275 12.306 33.2275 12.306C32.7506 13.7714 32.534 15.2732 32.4703 16.688V18.6137C32.5998 21.589 33.2727 23.8106 33.2727 23.8106C36.5347 38.0341 52.5732 61.4053 56.0202 66.3149C56.2648 66.5534 56.4606 66.4673 56.4606 66.4673C56.8327 66.3662 56.8035 66.0153 56.8035 66.0153L56.8106 66.0171C62.1198 13.8326 51.2385 0.000252718 51.2385 0.000252718ZM68.7813 0.000252718C68.7813 0.000252718 57.8525 13.84 63.1658 66.0547H63.1729C63.214 66.3862 63.4532 66.4552 63.4532 66.4552C63.8087 66.5907 63.991 66.2548 63.991 66.2548L63.9928 66.2582C67.5282 61.2233 83.4753 37.9793 86.7229 23.8104C86.7229 23.8104 88.4837 16.9526 86.7839 12.3057C86.7839 12.3057 84.3697 3.45634 74.592 1.11777C74.592 1.11777 71.774 0.414604 68.7813 0.000252718ZM18.3724 15.6661C18.3724 15.6661 9.06775 24.3505 8.60528 33.5573H8.60898V34.9523C8.61606 35.0573 8.62145 35.1637 8.62819 35.2707C9.02899 42.6947 14.7085 47.0886 14.7085 47.0886C23.8593 55.8587 46.0169 66.9315 51.1657 69.4439C51.2378 69.4704 51.5038 69.5559 51.6601 69.3618C51.6601 69.3618 51.7413 69.3011 51.7784 69.1921V68.9609C51.7747 68.9477 51.7677 68.9344 51.7609 68.9199C37.6606 38.6295 18.3724 15.6661 18.3724 15.6661ZM101.625 15.6661C101.625 15.6661 82.3932 38.5576 68.2992 68.7866L68.3045 68.7849C68.3045 68.7849 68.1381 69.1354 68.4073 69.3618C68.4073 69.3618 68.4876 69.4214 68.5987 69.4456H68.7937C68.8287 69.4356 68.8663 69.4224 68.9034 69.3975C74.192 66.8164 96.1781 55.8197 105.286 47.09C105.286 47.09 111.053 42.5354 111.356 35.2225C112.022 25.0657 101.625 15.6661 101.625 15.6661ZM118.934 45.738C118.934 45.738 87.581 62.2839 71.3698 73.0369L71.3752 73.042C71.3752 73.042 71.0811 73.2314 71.1838 73.5709C71.1838 73.5709 71.3376 73.8449 71.5615 73.8449C77.3681 73.8548 99.3405 73.8807 99.8914 73.7797C99.8914 73.7797 102.733 73.6681 106.243 72.3419C106.243 72.3419 114.059 69.8984 118.118 61.1727C118.118 61.1727 119.973 57.5242 120 52.3983V52.181C119.987 50.2043 119.703 48.016 118.934 45.738ZM1.05411 45.8152C-1.79858 54.4995 2.04186 61.4971 2.04806 61.5084C6.05027 69.8242 13.6899 72.3438 13.6899 72.3438C17.217 73.7687 20.7449 73.8673 20.7449 73.8673C21.2958 73.9663 42.6829 73.8772 48.4134 73.8507C48.6559 73.8489 48.7894 73.6092 48.7894 73.6092C48.8062 73.5827 48.821 73.5562 48.8277 73.532V73.3147C48.7802 73.1693 48.6536 73.0667 48.6536 73.0667L48.6573 73.0649C32.4542 62.3154 1.05411 45.8152 1.05411 45.8152ZM47.7589 76.5204L10.8752 77.7923C14.875 84.804 21.6113 90.2533 28.6286 88.5797C33.4712 87.3892 44.4418 79.8643 48.0635 77.3215L48.0514 77.3116C48.333 77.0628 48.2324 76.8631 48.2324 76.8631C48.1398 76.5375 47.7589 76.5378 47.7589 76.5378L47.7589 76.5204ZM72.1879 76.5469L72.1842 76.5602C72.1842 76.5602 71.8604 76.6006 71.7699 76.8391C71.7699 76.8391 71.6912 77.165 71.9091 77.3269L71.9054 77.3302C75.4367 79.8204 86.1415 87.1799 91.2986 88.6089C91.2986 88.6089 92.0799 88.8703 93.3892 88.917H94.176C97.6312 88.7977 103.65 87.0523 109.12 77.8111L72.1879 76.5469Z" fill="#CF0A2C"/>
</svg>
