<svg width="70" height="120" viewBox="0 0 70 120" fill="none" xmlns="http://www.w3.org/2000/svg">
<path d="M66.5244 94.0241H66.0488V93.7754H67.3289V94.0241H66.8566V95.2651H66.5244V94.0241ZM69.0775 94.0889H69.07L68.5989 95.2654H68.3833L67.9153 94.0889H67.9094V95.2654H67.5963V93.7756H68.0571L68.4911 94.8305L68.9237 93.7756H69.3829V95.2654H69.0773L69.0775 94.0889Z" fill="#E76F00"/>
<path d="M23.9593 63.5615C23.9593 63.5615 20.6511 65.3604 26.3136 65.9692C33.1736 66.7009 36.6797 66.596 44.2394 65.2581C44.2394 65.2581 46.227 66.4234 49.0027 67.4327C32.0557 74.2243 10.6483 67.0393 23.9593 63.5615Z" fill="#5382A1"/>
<path d="M21.8878 54.6992C21.8878 54.6992 18.1773 57.2674 23.8441 57.8155C31.1721 58.5224 36.9593 58.5802 46.9732 56.7772C46.9732 56.7772 48.3583 58.0902 50.5362 58.8082C30.0463 64.4107 7.2242 59.2501 21.8878 54.6992Z" fill="#5382A1"/>
<path d="M39.3457 39.6652C43.5214 44.1607 38.2485 48.206 38.2485 48.206C38.2485 48.206 48.8514 43.0879 43.982 36.6788C39.4341 30.7019 35.9465 27.7322 54.8271 17.4932C54.8271 17.4932 25.1907 24.4143 39.3457 39.6652Z" fill="#E76F00"/>
<path d="M61.7598 70.1168C61.7598 70.1168 64.2079 72.003 59.0636 73.4622C49.2816 76.2331 18.3498 77.0698 9.75709 73.5726C6.66822 72.3161 12.4607 70.5723 14.2828 70.2065C16.1831 69.8211 17.269 69.8929 17.269 69.8929C13.8339 67.6302 -4.93426 74.336 7.73572 76.2564C42.2886 81.4961 70.7223 73.897 61.7598 70.1168Z" fill="#5382A1"/>
<path d="M25.5499 45.5166C25.5499 45.5166 9.81598 49.011 19.9781 50.2799C24.2689 50.8171 32.8224 50.6956 40.7898 50.0714C47.3012 49.5578 53.8395 48.4658 53.8395 48.4658C53.8395 48.4658 51.5435 49.3852 49.8824 50.4458C33.9049 54.375 3.03927 52.5471 11.9251 48.5279C19.4398 45.1313 25.5499 45.5166 25.5499 45.5166Z" fill="#5382A1"/>
<path d="M53.7747 60.2686C70.0165 52.3767 62.5069 44.7927 57.2653 45.8145C55.9806 46.0645 55.4078 46.2812 55.4078 46.2812C55.4078 46.2812 55.8847 45.5825 56.7956 45.2801C67.1652 41.8713 75.1401 55.3342 53.4482 60.6663C53.4482 60.6663 53.6995 60.4564 53.7747 60.2686Z" fill="#5382A1"/>
<path d="M43.9821 0.959961C43.9821 0.959961 52.9771 9.37371 35.4507 22.3117C21.3964 32.6901 32.2459 38.6077 35.4449 45.3687C27.2411 38.4475 21.2207 32.3548 25.2597 26.6843C31.188 18.3604 47.6114 14.3247 43.9821 0.959961Z" fill="#E76F00"/>
<path d="M27.1453 81.6538C42.7355 82.587 66.676 81.1361 67.243 74.2383C67.243 74.2383 66.1531 76.8532 54.3585 78.9298C41.052 81.2714 24.6402 80.998 14.9062 79.4973C14.9062 79.4973 16.8989 81.0394 27.1453 81.6538Z" fill="#5382A1"/>
<path d="M24.5904 108.01C23.1197 109.203 21.5664 109.873 20.1724 109.873C18.1828 109.873 17.1078 108.757 17.1078 106.968C17.1078 105.032 18.2595 103.617 22.8803 103.617H24.5901L24.5904 108.01ZM28.6485 112.292V99.0389C28.6485 95.6534 26.5835 93.4194 21.6046 93.4194C18.698 93.4194 16.1518 94.0906 14.0824 94.9465L14.6797 97.2924C16.3091 96.7332 18.4182 96.2126 20.4884 96.2126C23.3565 96.2126 24.5904 97.2924 24.5904 99.5248V101.2H23.1589C16.1903 101.2 13.0469 103.729 13.0469 107.526C13.0469 110.802 15.1184 112.665 19.0188 112.665C21.526 112.665 23.3976 111.697 25.1471 110.28L25.4647 112.292L28.6485 112.292Z" fill="#E76F00"/>
<path d="M42.1929 112.292H37.1314L31.04 93.7549H35.4601L39.2399 105.144L40.0801 108.569C41.9923 103.617 43.3447 98.5926 44.0211 93.7549H48.3207C47.1688 99.859 45.0958 106.559 42.1929 112.292Z" fill="#E76F00"/>
<path d="M61.609 108.01C60.1355 109.203 58.5794 109.873 57.1855 109.873C55.1993 109.873 54.1216 108.757 54.1216 106.968C54.1216 105.032 55.2761 103.617 59.8963 103.617H61.609V108.01ZM65.6667 112.292V99.0389C65.6667 95.6534 63.5965 93.4194 58.6235 93.4194C55.7148 93.4194 53.1677 94.0906 51.0992 94.9465L51.6956 97.2924C53.3257 96.7332 55.4387 96.2126 57.5072 96.2126C60.3733 96.2126 61.609 97.2924 61.609 99.5248V101.2H60.1752C53.2046 101.2 50.0625 103.729 50.0625 107.526C50.0625 110.802 52.1324 112.665 56.0321 112.665C58.5407 112.665 60.4115 111.697 62.1641 110.28L62.4828 112.292L65.6667 112.292Z" fill="#E76F00"/>
<path d="M8.5981 115.44C7.44123 117.019 5.5727 118.269 3.52707 118.975L1.52344 116.771C3.08047 116.024 4.41584 114.817 5.03627 113.693C5.57293 112.694 5.79507 111.406 5.79507 108.325V87.1626H10.1066V108.035C10.1064 112.154 9.75427 113.817 8.5981 115.44Z" fill="#E76F00"/>
</svg>
