<svg width="100" height="80" viewBox="0 0 100 80" fill="none" xmlns="http://www.w3.org/2000/svg">
<g clip-path="url(#clip0_27_304)">
<path fill-rule="evenodd" clip-rule="evenodd" d="M42.4135 36.9123C40.0296 37.2839 37.6043 36.8403 35.6124 35.9576C33.4243 34.9878 32.9431 33.1916 34.0628 30.8975C35.0856 28.8023 36.9184 27.4219 37.2855 26.6122C38.2742 24.4317 36.1405 22.821 34.248 22.3572C31.7677 21.7495 5.70811 22.1018 1.20605 22.2198C5.24497 24.5483 7.7022 24.4769 11.5314 28.4784C14.0019 31.0599 13.3185 38.5164 16.0851 40.0841C17.6512 40.9715 25.2904 40.6472 27.4095 40.3879L28.8953 46.7786C25.0397 47.1517 22.3094 46.9429 18.6373 46.6486C18.7723 48.5769 20.1187 53.1862 21.4166 54.2822C23.3814 55.9418 28.9451 55.4326 31.9459 55.3752L34.3029 62.1117L27.8372 62.3879C25.2969 62.4962 24.009 62.2976 26.1327 66.0023C27.1369 67.7536 29.1152 70.677 30.5562 71.9726C40.7302 81.1218 56.2842 82.7967 66.5051 74.6801C68.4996 73.0961 70.0689 71.3008 71.6068 69.3343C72.671 67.9735 74.6446 65.2 74.8107 63.4178L74.61 62.5684L65.5673 62.1129L67.9461 55.3818C70.591 55.4262 76.46 55.8638 78.3199 54.4292C79.5698 53.4651 81.0926 48.5841 81.2292 46.6486C77.5564 46.944 74.8272 47.1508 71.059 46.7951L72.5009 40.3965C74.6286 40.6548 81.8152 40.9347 83.5785 40.1797C86.4555 38.9483 86.0012 30.99 88.1918 28.6225C90.0732 26.589 92.1274 25.2101 94.8101 24.0529C96.0748 23.5075 97.8463 22.8317 98.6567 22.2215C95.0199 22.1191 67.5244 21.9838 65.8596 22.3021C63.9272 22.6717 61.9499 24.1326 62.4331 26.1982C62.6286 27.0322 63.5257 27.7536 64.0343 28.3473C70.601 36.0111 61.5107 37.5255 57.4506 36.9164C55.0137 30.8689 54.2502 15.3178 54.2028 8.19628C54.3785 7.73542 57.0909 5.75895 58.4344 5.30517L60.4447 4.63159C57.6665 2.35313 58.3545 4.46252 54.5818 2.42217C53.7939 1.99598 54.0541 2.22069 53.2704 1.91686C52.3191 1.54803 51.9134 1.03993 50.8149 0.812031C48.3016 0.290552 47.0266 1.48585 44.3611 1.307C41.9335 1.14408 40.6421 0.417633 38.6722 0C38.995 1.73691 40.1481 2.87556 41.2506 3.54852C41.7925 3.87918 41.7999 3.83907 42.2335 4.04109C42.2957 4.07009 42.3819 4.09859 42.4433 4.12868C43.8618 4.82412 43.3583 5.22706 44.4194 6.50227C46.1033 8.52615 46.2517 6.88058 45.8721 10.3357C45.6662 12.2099 45.518 14.1664 45.3837 16.0679C44.939 22.3558 44.6574 31.3744 42.4135 36.9123Z" fill="#003298"/>
<path fill-rule="evenodd" clip-rule="evenodd" d="M62.6663 44.0795L37.4453 44.0305C37.6904 44.2609 37.6865 44.259 38.0071 44.4998C40.4828 46.361 39.7031 45.2233 39.8987 49.6015C40.0061 51.9993 40.23 54.3534 40.7003 56.6896C41.7361 61.8349 43.2234 64.2224 49.9393 64.221C57.003 64.2193 58.0219 60.5572 58.8837 56.4188C59.3446 54.2041 59.7575 51.9661 60.0189 49.6749C60.7673 43.1156 59.8087 46.3629 62.6663 44.0795Z" fill="white"/>
<path fill-rule="evenodd" clip-rule="evenodd" d="M30.3672 69.0701C33.3645 73.9789 42.2684 77.4976 49.3022 77.8645C56.4939 78.2398 64.8116 74.9082 68.9215 69.6186L65.1327 66.3476C61.6047 70.346 56.1075 72.9169 49.9314 72.9169C43.479 72.9169 37.7676 70.1105 34.2686 65.8018C34.2231 65.7749 34.178 65.7491 34.1345 65.7263L30.3672 69.0701Z" fill="white"/>
<path fill-rule="evenodd" clip-rule="evenodd" d="M41.6832 52.6315C43.26 51.6347 43.9935 48.0885 48.4965 48.1747C48.4342 53.4757 48.1654 58.8005 43.2305 60.9963L56.6002 61.0917C51.6869 58.7678 51.3788 53.486 51.3365 48.1724C55.8525 48.0964 56.5946 51.6789 58.1458 52.6247C58.308 50.2728 57.9416 47.9004 57.399 45.7776L42.4321 45.778C41.8893 47.8899 41.5264 50.2847 41.6832 52.6315Z" fill="#003298"/>
<path d="M32.4434 70.1704L34.8361 68.1354L34.0168 67.3811L34.5034 66.9673L36.6979 68.9889L36.2114 69.4025L35.3963 68.6516L33.0038 70.6864L32.4434 70.1704ZM36.2595 71.0489C36.4977 70.7567 36.7474 70.543 37.0084 70.4073C37.2005 70.308 37.4087 70.2409 37.6308 70.2064C37.8527 70.1716 38.0623 70.1747 38.26 70.2148C38.5235 70.2685 38.7872 70.3791 39.051 70.5475C39.5289 70.8527 39.8031 71.2279 39.8765 71.6735C39.9485 72.1192 39.794 72.5755 39.413 73.0432C39.0347 73.5067 38.5965 73.7786 38.099 73.8586C37.6013 73.9392 37.1139 73.8269 36.6385 73.523C36.157 73.2155 35.8794 72.8402 35.808 72.398C35.736 71.9563 35.8863 71.5065 36.2595 71.0489ZM36.9489 71.4598C36.684 71.7848 36.5685 72.0854 36.6008 72.3618C36.634 72.6374 36.7809 72.8591 37.0416 73.0257C37.3032 73.1929 37.5853 73.2462 37.8887 73.1875C38.192 73.1277 38.4791 72.9315 38.7505 72.5987C39.0187 72.2699 39.1374 71.9723 39.1056 71.7064C39.0749 71.4405 38.9246 71.2215 38.6539 71.0487C38.3841 70.8764 38.0995 70.8192 37.8011 70.8772C37.5021 70.9358 37.2182 71.1298 36.9489 71.4598ZM40.4386 74.1183L41.2007 74.303C41.1507 74.5354 41.1702 74.7244 41.2606 74.8723C41.3508 75.0201 41.5102 75.1322 41.7383 75.2098C41.9797 75.2916 42.1817 75.3083 42.3431 75.2591C42.5049 75.21 42.6122 75.1248 42.665 75.0035C42.6989 74.9251 42.7014 74.8503 42.6742 74.7777C42.6466 74.7057 42.5771 74.6275 42.4658 74.5438C42.3903 74.4865 42.2112 74.3711 41.9286 74.1961C41.5657 73.9705 41.3308 73.7658 41.2246 73.5808C41.0754 73.3214 41.0578 73.0609 41.1712 72.7991C41.2441 72.6306 41.3663 72.4908 41.5369 72.3801C41.7079 72.2701 41.9107 72.2111 42.1461 72.2029C42.3817 72.1948 42.6413 72.2386 42.9277 72.3359C43.3936 72.4941 43.7054 72.7049 43.8611 72.9681C44.0177 73.232 44.0351 73.518 43.9145 73.8286L43.1494 73.5954C43.1912 73.414 43.1757 73.2686 43.1029 73.1585C43.0302 73.0483 42.8887 72.957 42.6784 72.8856C42.4616 72.812 42.2741 72.7943 42.1173 72.8328C42.016 72.8575 41.9463 72.9122 41.9091 72.9983C41.8752 73.0765 41.8836 73.1561 41.9342 73.2367C41.9979 73.3401 42.1958 73.4919 42.5279 73.6928C42.8604 73.8927 43.0957 74.0642 43.2347 74.2049C43.3746 74.3466 43.4633 74.5046 43.5007 74.6802C43.5381 74.8558 43.5116 75.0477 43.4215 75.256C43.3397 75.4448 43.2038 75.6021 43.0135 75.727C42.823 75.8518 42.6022 75.9178 42.3508 75.9242C42.0989 75.9312 41.8108 75.8792 41.4869 75.7693C41.0157 75.6095 40.6955 75.3907 40.5264 75.1121C40.3572 74.8344 40.3284 74.5031 40.4386 74.1183ZM45.093 76.7402L45.5619 73.2307L46.3649 73.3148L46.1802 74.6971L47.7418 74.8606L47.9265 73.4783L48.7296 73.5622L48.2607 77.0718L47.4577 76.9879L47.6626 75.4537L46.101 75.2902L45.896 76.8244L45.093 76.7402ZM50.5828 77.1112L50.2798 73.5873L51.0858 73.533L51.2201 75.094L52.7104 73.4236L53.7911 73.3508L52.4067 74.8244L54.1721 76.8692L53.1321 76.9393L51.8944 75.3586L51.2975 75.9912L51.389 77.0567L50.5828 77.1112ZM56.0105 76.4244L54.7502 73.0709L57.5547 72.2452L57.7678 72.812L55.7305 73.4117L56.0103 74.1564L57.9046 73.5989L58.1177 74.1654L56.2233 74.7232L56.5647 75.6318L58.676 75.0103L58.8891 75.5769L56.0105 76.4244ZM60.8685 74.7867L58.69 71.8253L59.3457 71.4473L62.1827 72.6384L60.7228 70.6537L61.349 70.2929L63.5275 73.2544L62.8507 73.6445L60.0627 72.4793L61.4949 74.426L60.8685 74.7867ZM65.9967 71.4203L63.6979 69.3025L62.8454 70.0276L62.3779 69.597L64.6619 67.6546L65.1294 68.0852L64.2808 68.8069L66.5797 70.9243L65.9967 71.4203Z" fill="#003298"/>
</g>
<defs>
<clipPath id="clip0_27_304">
<rect width="100" height="80" fill="white"/>
</clipPath>
</defs>
</svg>
