<svg width="850" height="200" viewBox="0 0 850 200" fill="none" xmlns="http://www.w3.org/2000/svg">
<mask id="mask0_24_15" style="mask-type:luminance" maskUnits="userSpaceOnUse" x="0" y="0" width="850" height="200">
<path d="M850 0H0V200H850V0Z" fill="white"/>
</mask>
<g mask="url(#mask0_24_15)">
<mask id="mask1_24_15" style="mask-type:luminance" maskUnits="userSpaceOnUse" x="0" y="0" width="808" height="200">
<path d="M807.121 0H0V199.214H807.121V0Z" fill="white"/>
</mask>
<g mask="url(#mask1_24_15)">
<path d="M21.8652 83.0717C26.1152 79.6252 36.0451 77.2146 47.6236 77.2146C59.2017 77.2146 69.1117 79.6252 73.3814 83.0717C74.8113 81.9109 75.6057 80.6432 75.6057 79.3219C75.6057 74.0183 63.0943 69.7146 47.6431 69.7146C32.1923 69.7146 19.6807 74.0183 19.6807 79.3219C19.6807 80.6611 20.4751 81.9289 21.905 83.0717H21.8652Z" fill="#BC9339"/>
<path d="M90.4014 79.3219C90.4014 80.6611 91.1958 81.9289 92.6257 83.0717C96.8759 79.6252 106.806 77.2146 118.384 77.2146C129.962 77.2146 139.873 79.6252 144.142 83.0717C145.572 81.9109 146.367 80.6432 146.367 79.3219C146.367 74.0183 133.855 69.7146 118.404 69.7146C102.953 69.7146 90.4413 74.0183 90.4413 79.3219H90.4014Z" fill="#BC9339"/>
<path d="M82.9937 75.2143C87.9789 70.1429 101.92 66.482 118.364 66.482C134.808 66.482 148.75 70.1429 153.735 75.2143C158.719 70.1429 172.661 66.482 189.105 66.482C199.829 66.482 209.481 68.0359 216.293 70.518L160.924 20.7321L151.173 29.5L118.364 0L85.5558 29.5L75.8047 20.7321L20.4355 70.518C27.2474 68.0359 36.8993 66.482 47.6237 66.482C64.0677 66.482 78.009 70.1429 82.9937 75.2143Z" fill="#BC9339"/>
<path d="M189.105 69.6968C173.654 69.6968 161.143 74.0005 161.143 79.3041C161.143 80.6433 161.937 81.9111 163.367 83.0539C167.617 79.6074 177.547 77.1968 189.125 77.1968C200.703 77.1968 210.613 79.6074 214.883 83.0539C216.313 81.8931 217.107 80.6253 217.107 79.3041C217.107 74.0005 204.596 69.6968 189.145 69.6968H189.105Z" fill="#BC9339"/>
<path d="M226.342 80.1245C225.131 86.8388 208.925 92.1425 189.085 92.1425C172.641 92.1425 158.7 88.4817 153.715 83.4102C148.73 88.4817 134.789 92.1425 118.345 92.1425C101.901 92.1425 87.9592 88.4817 82.9745 83.4102C77.9898 88.4817 64.048 92.1425 47.6041 92.1425C27.7841 92.1425 11.5586 86.8208 10.3471 80.1245H10.2677V90.1066C10.2677 95.3208 19.3238 99.8208 32.3319 101.821L3.87284 109.982C-0.0991436 111.607 -3.59447 113.535 7.20929 121.089C8.91723 122.285 48.7362 151.5 48.7362 151.5C51.1988 153.125 52.4698 155.518 44.5654 157.749C44.7442 158 92.2689 144.91 92.2689 144.91C96.1215 143.321 100.689 139.392 89.0119 133.642C87.8997 133.089 49.4511 113.089 49.4511 113.089C41.4873 107.553 47.5446 104.267 51.4966 102.857C66.2523 102.339 78.4265 98.8568 82.9945 94.1604C86.3109 97.571 93.6988 100.339 103.172 101.803L75.6066 109.892C71.1181 111.732 64.1074 114.357 80.0947 121.607C84.901 123.785 106.131 134.714 106.568 134.928C118.246 140.678 113.678 144.142 109.825 145.732L64.8029 157.732C60.3143 159.571 55.528 162.464 68.576 170.285C71.1775 171.839 106.528 193.678 106.528 193.678C108.256 195.249 108.296 197.303 101.444 199.214C101.623 199.464 156.456 183.732 156.456 183.732C160.308 182.142 164.876 178.678 153.199 172.928C150.696 171.696 123.389 158.107 123.389 158.107C112.387 150.446 128.155 147.089 128.155 147.089L155.364 138.928C159.216 137.339 162.354 134.178 150.736 128.357C145.573 125.767 120.172 113.035 120.172 113.035C110.163 107.749 118.265 104.214 122.217 102.821C136.993 102.303 149.227 98.8208 153.794 94.1245C155.959 96.3568 159.872 98.3208 164.956 99.8033L141.322 106.642C137.629 108.16 133.26 111.482 144.441 116.982C144.599 117.071 165.889 128.142 167.021 128.678C178.699 134.428 174.131 137.892 170.278 139.482L139.376 148.339C134.888 150.178 129.585 153.749 143.15 160.428C143.269 160.482 171.331 174.696 171.331 174.696C172.84 176.232 172.621 178.196 166.048 180.053C166.227 180.303 212.242 167.232 212.242 167.232C215.936 165.714 220.305 162.392 209.124 156.892C207.217 155.946 180.129 148.785 180.129 148.785C172.344 144.41 187.258 142.464 189.085 141.464L229.858 132.91C233.71 131.321 238.298 125.285 225.766 121.321C219.531 119.339 180.129 107.964 180.129 107.964C176.157 105.732 177.864 103.928 180.744 102.553C183.465 102.767 186.285 102.892 189.205 102.892C209.819 102.892 226.541 97.1425 226.541 90.0531V80.071H226.342V80.1245Z" fill="#BC9339"/>
<path d="M275.509 130.89V31.5401H296.66L361.85 103.072H351.59V31.5401H376.846V130.89H355.852L290.504 59.3582H300.764V130.89H275.509ZM402.987 130.89V31.5401H424.139L471.176 101.653H459.969L506.22 31.5401H527.21L527.528 130.89H503.538L503.379 64.6096H507.796L470.863 120.387H459.338L421.613 64.6096H426.98V130.89H402.987ZM553.743 130.89V31.5401H574.892L621.934 101.653H610.726L656.973 31.5401H677.968L678.281 130.89H654.291L654.132 64.6096H658.553L621.616 120.387H610.095L572.368 64.6096H577.734V130.89H553.743ZM757.375 132.593C748.851 132.593 740.907 131.363 733.539 128.903C726.281 126.348 719.966 122.753 714.601 118.117C709.235 113.48 705.023 108.039 701.972 101.795C699.026 95.55 697.551 88.69 697.551 81.2149C697.551 73.7402 699.026 66.8802 701.972 60.6353C705.023 54.3904 709.235 48.95 714.601 44.3137C720.071 39.6773 726.44 36.1291 733.698 33.669C740.961 31.1143 748.905 29.8369 757.534 29.8369C767.108 29.8369 775.737 31.3508 783.422 34.3786C791.208 37.3118 797.731 41.6643 802.992 47.4361L786.577 61.061C782.791 57.1819 778.579 54.2961 773.949 52.4035C769.319 50.4165 764.271 49.4231 758.796 49.4231C753.64 49.4231 748.905 50.1802 744.593 51.6941C740.276 53.208 736.54 55.3839 733.385 58.2227C730.225 61.061 727.756 64.4202 725.963 68.2994C724.283 72.179 723.439 76.4843 723.439 81.2149C723.439 85.9459 724.283 90.2512 725.963 94.1304C727.756 98.01 730.225 101.369 733.385 104.208C736.54 107.046 740.276 109.222 744.593 110.736C748.905 112.25 753.64 113.007 758.796 113.007C764.271 113.007 769.319 112.061 773.949 110.168C778.579 108.181 782.791 105.201 786.577 101.227L802.992 114.852C797.731 120.624 791.208 125.024 783.422 128.052C775.737 131.079 767.058 132.593 757.375 132.593Z" fill="#37333F"/>
<path d="M273.985 176.375V160H276.389L286.179 172.75V160H288.582V176.375H286.179L276.389 163.625V176.375H273.985Z" fill="#37333F"/>
<path d="M297.699 176.607C296.686 176.607 295.831 176.446 295.137 176.107C294.442 175.767 293.905 175.303 293.528 174.732C293.17 174.143 292.972 173.482 292.972 172.75C292.972 171.518 293.369 170.625 294.183 170.089C294.998 169.553 296.149 169.267 297.659 169.267H302.127V168.428C302.127 167.375 301.869 166.643 301.333 166.232C300.797 165.821 300.002 165.625 298.95 165.625C297.957 165.625 297.242 165.785 296.785 166.125C296.328 166.464 296.09 166.839 296.03 167.25H293.747C293.806 166.571 294.044 165.982 294.501 165.464C294.958 164.946 295.574 164.518 296.348 164.214C297.122 163.892 298.036 163.75 299.089 163.75C300.181 163.75 301.134 163.91 301.929 164.214C302.723 164.518 303.339 165 303.775 165.643C304.213 166.285 304.431 167.143 304.431 168.214V173.214C304.431 173.875 304.431 174.446 304.451 174.928C304.451 175.428 304.49 175.892 304.57 176.357H302.564C302.504 176 302.485 175.661 302.465 175.339C302.445 175.018 302.445 174.661 302.445 174.25C302.088 174.91 301.492 175.464 300.677 175.91C299.843 176.375 298.85 176.607 297.699 176.607ZM298.175 174.732C298.91 174.732 299.565 174.607 300.161 174.375C300.757 174.143 301.233 173.803 301.591 173.339C301.948 172.875 302.127 172.339 302.127 171.678V170.839H298.036C297.182 170.839 296.527 171 296.03 171.303C295.534 171.607 295.295 172.089 295.295 172.75C295.295 173.321 295.534 173.803 295.99 174.178C296.467 174.553 297.202 174.732 298.175 174.732Z" fill="#37333F"/>
<path d="M313.149 176.375L307.43 163.982H309.972L314.44 174.285L318.492 163.982H320.934L315.731 176.375H313.149Z" fill="#37333F"/>
<path d="M329.812 176.608C328.64 176.608 327.568 176.376 326.555 175.911C325.542 175.447 324.728 174.751 324.112 173.822C323.496 172.893 323.179 171.715 323.179 170.286V169.822C323.179 168.482 323.496 167.358 324.112 166.447C324.728 165.536 325.542 164.876 326.555 164.411C327.568 163.965 328.66 163.733 329.812 163.733C330.984 163.733 332.076 163.965 333.089 164.411C334.102 164.858 334.896 165.536 335.532 166.447C336.147 167.358 336.445 168.482 336.445 169.822V170.286C336.445 171.697 336.127 172.893 335.532 173.822C334.916 174.751 334.102 175.465 333.089 175.911C332.076 176.376 330.984 176.608 329.812 176.608ZM329.812 174.733C330.527 174.733 331.202 174.59 331.858 174.304C332.513 174.018 333.049 173.536 333.466 172.893C333.883 172.251 334.102 171.376 334.102 170.286V169.822C334.102 168.822 333.883 168.018 333.466 167.393C333.049 166.768 332.513 166.322 331.858 166.036C331.202 165.751 330.527 165.608 329.812 165.608C329.117 165.608 328.442 165.751 327.786 166.036C327.131 166.322 326.595 166.768 326.158 167.393C325.721 168.018 325.522 168.822 325.522 169.822V170.286C325.522 171.358 325.741 172.233 326.158 172.893C326.575 173.554 327.131 174.018 327.786 174.304C328.442 174.59 329.117 174.733 329.812 174.733Z" fill="#37333F"/>
<path d="M341.628 162.339C341.171 162.339 340.794 162.214 340.516 161.947C340.238 161.678 340.079 161.339 340.079 160.947C340.079 160.536 340.218 160.214 340.516 159.947C340.814 159.678 341.191 159.553 341.628 159.553C342.065 159.553 342.442 159.678 342.74 159.947C343.038 160.214 343.177 160.553 343.177 160.947C343.177 161.357 343.038 161.696 342.74 161.947C342.442 162.214 342.065 162.339 341.628 162.339ZM340.476 176.375V163.982H342.76V176.375H340.476Z" fill="#37333F"/>
<path d="M355.252 176.375V160H357.794L363.891 170.41L369.988 160H372.431V176.375H369.988V163.982L364.765 172.875H362.938L357.715 163.982V176.375H355.252Z" fill="#37333F"/>
<path d="M379.025 162.339C378.568 162.339 378.191 162.214 377.913 161.947C377.634 161.678 377.476 161.339 377.476 160.947C377.476 160.536 377.615 160.214 377.913 159.947C378.211 159.678 378.588 159.553 379.025 159.553C379.462 159.553 379.839 159.678 380.137 159.947C380.435 160.214 380.574 160.553 380.574 160.947C380.574 161.357 380.435 161.696 380.137 161.947C379.859 162.214 379.482 162.339 379.025 162.339ZM377.893 176.375V163.982H380.177V176.375H377.893Z" fill="#37333F"/>
<path d="M385.121 176.375V163.982H387.246V166.321C387.564 165.643 388.1 165.035 388.895 164.518C389.689 164 390.702 163.75 391.953 163.75C393.681 163.75 394.972 164.161 395.826 165C396.66 165.839 397.097 167.053 397.097 168.661V176.375H394.813V169.125C394.813 167.964 394.535 167.107 393.999 166.5C393.462 165.91 392.549 165.607 391.298 165.607C390.404 165.607 389.649 165.785 389.093 166.125C388.517 166.464 388.1 166.91 387.822 167.428C387.544 167.946 387.425 168.518 387.425 169.107V176.357H385.121V176.375Z" fill="#37333F"/>
<path d="M403.055 162.339C402.598 162.339 402.221 162.214 401.943 161.947C401.665 161.678 401.506 161.339 401.506 160.947C401.506 160.536 401.645 160.214 401.943 159.947C402.241 159.678 402.618 159.553 403.055 159.553C403.492 159.553 403.869 159.678 404.167 159.947C404.465 160.214 404.604 160.553 404.604 160.947C404.604 161.357 404.465 161.696 404.167 161.947C403.869 162.214 403.492 162.339 403.055 162.339ZM401.903 176.375V163.982H404.187V176.375H401.903Z" fill="#37333F"/>
<path d="M409.132 176.375V163.982H411.257V166.321C411.574 165.643 412.111 165.035 412.905 164.518C413.7 164 414.713 163.75 415.964 163.75C417.691 163.75 418.982 164.161 419.836 165C420.671 165.839 421.107 167.053 421.107 168.661V176.375H418.823V169.125C418.823 167.964 418.546 167.107 418.009 166.5C417.473 165.91 416.56 165.607 415.308 165.607C414.415 165.607 413.66 165.785 413.104 166.125C412.528 166.464 412.111 166.91 411.853 167.428C411.574 167.964 411.456 168.518 411.456 169.107V176.357H409.132V176.375Z" fill="#37333F"/>
<path d="M431.117 181.285C429.786 181.285 428.694 181.125 427.86 180.821C427.026 180.5 426.41 180.089 426.013 179.553C425.616 179.018 425.358 178.428 425.258 177.785H427.661C427.84 178.285 428.158 178.678 428.654 178.982C429.151 179.285 429.965 179.428 431.117 179.428C432.527 179.428 433.559 179.125 434.215 178.518C434.87 177.91 435.208 177.036 435.208 175.91V173.928C434.811 174.75 434.195 175.375 433.381 175.785C432.547 176.196 431.594 176.393 430.481 176.393C429.349 176.393 428.356 176.161 427.483 175.696C426.609 175.232 425.953 174.536 425.477 173.607C425 172.678 424.762 171.553 424.762 170.196V169.732C424.762 168.446 425 167.375 425.497 166.5C425.993 165.625 426.668 164.946 427.522 164.482C428.376 164.018 429.369 163.785 430.481 163.785C431.653 163.785 432.686 164.018 433.56 164.5C434.433 164.982 435.029 165.589 435.387 166.357V164.018H437.512V175.946C437.512 177.625 436.956 178.946 435.863 179.893C434.751 180.803 433.182 181.285 431.117 181.285ZM430.978 174.553C431.812 174.553 432.547 174.393 433.182 174.089C433.818 173.785 434.314 173.339 434.672 172.785C435.029 172.232 435.208 171.589 435.208 170.875V169C435.208 168.357 435.029 167.785 434.672 167.267C434.314 166.75 433.818 166.339 433.182 166.036C432.547 165.714 431.812 165.571 430.978 165.571C429.866 165.571 428.933 165.946 428.178 166.678C427.423 167.41 427.026 168.428 427.026 169.714V170.178C427.026 171.589 427.403 172.678 428.178 173.428C428.933 174.178 429.886 174.553 430.978 174.553Z" fill="#37333F"/>
<path d="M453.124 176.607C452.107 176.607 451.255 176.446 450.56 176.107C449.865 175.767 449.329 175.303 448.952 174.732C448.594 174.143 448.396 173.482 448.396 172.75C448.396 171.518 448.793 170.625 449.607 170.089C450.421 169.553 451.573 169.267 453.083 169.267H457.55V168.428C457.55 167.375 457.291 166.643 456.756 166.232C456.22 165.821 455.426 165.625 454.373 165.625C453.378 165.625 452.666 165.785 452.207 166.125C451.751 166.464 451.513 166.839 451.454 167.25H449.17C449.229 166.571 449.468 165.982 449.924 165.464C450.381 164.946 450.997 164.518 451.771 164.214C452.548 163.892 453.46 163.75 454.513 163.75C455.603 163.75 456.556 163.91 457.35 164.214C458.145 164.518 458.762 165 459.198 165.643C459.638 166.285 459.856 167.143 459.856 168.214V173.214C459.856 173.875 459.856 174.446 459.874 174.928C459.874 175.428 459.915 175.892 459.992 176.357H457.986C457.927 176 457.909 175.661 457.891 175.339C457.868 175.018 457.868 174.661 457.868 174.25C457.509 174.91 456.915 175.464 456.102 175.91C455.285 176.375 454.295 176.607 453.124 176.607ZM453.619 174.732C454.354 174.732 455.008 174.607 455.603 174.375C456.202 174.143 456.679 173.803 457.033 173.339C457.391 172.892 457.573 172.339 457.573 171.678V170.839H453.478C452.625 170.839 451.971 171 451.474 171.303C450.997 171.607 450.739 172.089 450.739 172.75C450.739 173.321 450.977 173.803 451.434 174.178C451.912 174.553 452.625 174.732 453.619 174.732Z" fill="#37333F"/>
<path d="M464.422 176.375V163.982H466.546V166.321C466.864 165.643 467.4 165.035 468.194 164.518C468.989 164 470.001 163.75 471.254 163.75C472.983 163.75 474.272 164.161 475.126 165C475.961 165.839 476.397 167.053 476.397 168.661V176.375H474.113V169.125C474.113 167.964 473.837 167.107 473.301 166.5C472.761 165.91 471.848 165.607 470.6 165.607C469.706 165.607 468.948 165.785 468.394 166.125C467.817 166.464 467.4 166.91 467.141 167.428C466.864 167.964 466.746 168.518 466.746 169.107V176.357H464.422V176.375Z" fill="#37333F"/>
<path d="M485.753 176.607C484.618 176.607 483.628 176.375 482.752 175.91C481.881 175.446 481.223 174.75 480.746 173.803C480.269 172.875 480.033 171.696 480.033 170.303V169.821C480.033 168.518 480.269 167.41 480.769 166.5C481.263 165.589 481.94 164.91 482.793 164.446C483.647 163.982 484.641 163.75 485.753 163.75C486.865 163.75 487.836 163.964 488.649 164.41C489.466 164.839 490.079 165.446 490.478 166.214V160H492.762V176.375H490.637V174.035C490.301 174.803 489.684 175.41 488.808 175.892C487.954 176.375 486.924 176.607 485.753 176.607ZM486.266 174.785C487.101 174.785 487.836 174.625 488.472 174.303C489.107 173.982 489.602 173.535 489.961 172.964C490.319 172.392 490.496 171.732 490.496 170.982V169.107C490.496 168.428 490.319 167.839 489.961 167.285C489.602 166.75 489.107 166.321 488.472 166.018C487.836 165.696 487.101 165.553 486.266 165.553C485.154 165.553 484.223 165.928 483.47 166.661C482.711 167.41 482.317 168.446 482.317 169.803V170.268C482.317 171.732 482.693 172.857 483.47 173.625C484.223 174.41 485.154 174.785 486.266 174.785Z" fill="#37333F"/>
<path d="M504.995 176.375V160H507.537L513.634 170.41L519.73 160H522.172V176.375H519.73V163.982L514.51 172.875H512.68L507.46 163.982V176.375H504.995Z" fill="#37333F"/>
<path d="M533.099 176.608C531.946 176.608 530.852 176.376 529.84 175.929C528.828 175.482 528.015 174.786 527.398 173.84C526.781 172.911 526.463 171.715 526.463 170.286V169.822C526.463 168.447 526.762 167.322 527.357 166.411C527.956 165.518 528.728 164.84 529.704 164.411C530.675 163.965 531.729 163.733 532.841 163.733C534.865 163.733 536.436 164.233 537.548 165.233C538.66 166.233 539.214 167.643 539.214 169.465V170.768H528.751C528.751 171.733 528.969 172.5 529.404 173.09C529.84 173.661 530.399 174.09 531.07 174.34C531.747 174.59 532.405 174.733 533.099 174.733C534.13 174.733 534.947 174.572 535.501 174.268C536.059 173.947 536.472 173.518 536.713 172.982H538.955C538.678 174.161 538.002 175.072 536.913 175.679C535.819 176.304 534.566 176.608 533.099 176.608ZM532.977 165.608C532.264 165.608 531.588 165.733 530.952 165.965C530.317 166.197 529.781 166.59 529.386 167.09C528.969 167.608 528.769 168.268 528.769 169.072H537.071C537.049 168.215 536.854 167.536 536.495 167.018C536.118 166.518 535.642 166.143 535.024 165.911C534.407 165.679 533.712 165.608 532.977 165.608Z" fill="#37333F"/>
<path d="M548.051 176.5C547.08 176.5 546.285 176.375 545.668 176.107C545.051 175.839 544.597 175.446 544.315 174.893C544.038 174.357 543.879 173.679 543.879 172.875V165.804H541.796V163.982H543.879V161.179H546.163V163.982H549.858V165.804H546.163V172.625C546.163 173.322 546.322 173.839 546.662 174.143C546.998 174.464 547.634 174.607 548.569 174.607C549.086 174.607 549.599 174.589 550.135 174.536V176.357C549.799 176.393 549.481 176.411 549.145 176.446C548.827 176.482 548.469 176.5 548.051 176.5Z" fill="#37333F"/>
<path d="M557.843 176.607C556.83 176.607 555.977 176.446 555.282 176.107C554.583 175.767 554.048 175.303 553.671 174.732C553.312 174.143 553.117 173.482 553.117 172.75C553.117 171.518 553.512 170.625 554.329 170.089C555.142 169.553 556.295 169.267 557.802 169.267H562.273V168.428C562.273 167.375 562.014 166.643 561.479 166.232C560.939 165.821 560.144 165.625 559.096 165.625C558.101 165.625 557.384 165.785 556.93 166.125C556.472 166.464 556.236 166.839 556.172 167.25H553.889C553.948 166.571 554.188 165.982 554.647 165.464C555.101 164.946 555.718 164.518 556.49 164.214C557.266 163.892 558.179 163.75 559.232 163.75C560.326 163.75 561.279 163.91 562.073 164.214C562.868 164.518 563.481 165 563.921 165.643C564.357 166.285 564.575 167.143 564.575 168.214V173.214C564.575 173.875 564.575 174.446 564.593 174.928C564.593 175.428 564.634 175.892 564.715 176.357H562.709C562.65 176 562.627 175.661 562.609 175.339C562.591 175.018 562.591 174.661 562.591 174.25C562.232 174.91 561.638 175.464 560.821 175.91C559.985 176.375 558.996 176.607 557.843 176.607ZM558.337 174.732C559.073 174.732 559.731 174.607 560.326 174.375C560.92 174.143 561.397 173.803 561.756 173.339C562.114 172.892 562.291 172.339 562.291 171.678V170.839H558.201C557.348 170.839 556.69 171 556.195 171.303C555.718 171.607 555.46 172.089 555.46 172.75C555.46 173.321 555.696 173.803 556.154 174.178C556.631 174.553 557.348 174.732 558.337 174.732Z" fill="#37333F"/>
<path d="M573.295 176.5C572.341 176.5 571.565 176.357 570.97 176.089C570.376 175.821 569.935 175.392 569.659 174.803C569.4 174.214 569.264 173.464 569.264 172.518V160H571.547V172.518C571.547 173.321 571.683 173.875 571.983 174.178C572.282 174.482 572.795 174.625 573.553 174.625C573.749 174.625 573.907 174.625 574.048 174.607C574.189 174.607 574.325 174.589 574.466 174.571V176.392C574.384 176.41 574.266 176.428 574.107 176.446C573.966 176.464 573.808 176.482 573.671 176.482C573.531 176.482 573.395 176.5 573.295 176.5Z" fill="#37333F"/>
<path d="M582.151 176.5C581.198 176.5 580.422 176.357 579.827 176.089C579.232 175.821 578.797 175.392 578.515 174.803C578.256 174.214 578.12 173.464 578.12 172.518V160H580.403V172.518C580.403 173.321 580.544 173.875 580.839 174.178C581.139 174.482 581.656 174.625 582.41 174.625C582.61 174.625 582.768 174.625 582.905 174.607C583.045 174.607 583.182 174.589 583.322 174.571V176.392C583.245 176.41 583.123 176.428 582.964 176.446C582.827 176.464 582.669 176.482 582.528 176.482C582.369 176.482 582.251 176.5 582.151 176.5Z" fill="#37333F"/>
<path d="M591.685 176.607C590.014 176.607 588.766 176.178 587.931 175.321C587.095 174.464 586.678 173.143 586.678 171.339V163.964H588.966V171.214C588.966 172.375 589.22 173.232 589.76 173.839C590.296 174.428 591.149 174.732 592.338 174.732C593.214 174.732 593.909 174.553 594.463 174.214C595.021 173.875 595.416 173.428 595.697 172.892C595.956 172.357 596.092 171.803 596.092 171.214V163.964H598.376V176.357H596.251V174.018C595.934 174.696 595.398 175.303 594.603 175.821C593.85 176.357 592.874 176.607 591.685 176.607Z" fill="#37333F"/>
<path d="M604.376 176.375V163.982H606.5V166.321C606.718 165.821 606.995 165.375 607.354 165C607.712 164.625 608.166 164.321 608.684 164.089C609.22 163.857 609.814 163.75 610.472 163.75C610.808 163.75 611.108 163.767 611.326 163.803C611.544 163.839 611.743 163.875 611.902 163.91V165.821C611.684 165.75 611.444 165.696 611.244 165.661C611.026 165.625 610.731 165.607 610.35 165.607C609.655 165.607 609.043 165.75 608.484 166.053C607.93 166.357 607.49 166.767 607.154 167.285C606.818 167.803 606.659 168.41 606.659 169.125V176.375H604.376Z" fill="#37333F"/>
<path d="M620.264 181.285C618.929 181.285 617.84 181.125 617.005 180.821C616.17 180.5 615.557 180.089 615.157 179.553C614.762 179.018 614.503 178.428 614.404 177.785H616.805C616.987 178.285 617.304 178.678 617.799 178.982C618.294 179.285 619.111 179.428 620.264 179.428C621.671 179.428 622.706 179.125 623.36 178.518C624.014 177.91 624.354 177.036 624.354 175.91V173.928C623.955 174.75 623.342 175.375 622.525 175.785C621.689 176.196 620.736 176.393 619.624 176.393C618.494 176.393 617.5 176.161 616.628 175.696C615.752 175.232 615.098 174.536 614.622 173.607C614.145 172.678 613.904 171.553 613.904 170.196V169.732C613.904 168.446 614.145 167.375 614.64 166.5C615.139 165.625 615.815 164.946 616.669 164.482C617.522 164.018 618.512 163.785 619.624 163.785C620.8 163.785 621.83 164.018 622.706 164.5C623.578 164.982 624.172 165.589 624.531 166.357V164.018H626.655V175.946C626.655 177.625 626.102 178.946 625.008 179.893C623.896 180.803 622.329 181.285 620.264 181.285ZM620.123 174.553C620.959 174.553 621.689 174.393 622.325 174.089C622.96 173.785 623.46 173.339 623.818 172.785C624.172 172.232 624.354 171.589 624.354 170.875V169C624.354 168.357 624.172 167.785 623.818 167.267C623.46 166.75 622.96 166.339 622.325 166.036C621.689 165.714 620.959 165.571 620.123 165.571C619.011 165.571 618.076 165.946 617.322 166.678C616.569 167.41 616.169 168.428 616.169 169.714V170.178C616.169 171.589 616.546 172.678 617.322 173.428C618.076 174.178 619.011 174.553 620.123 174.553Z" fill="#37333F"/>
<path d="M632.716 162.339C632.257 162.339 631.88 162.214 631.603 161.947C631.322 161.678 631.163 161.339 631.163 160.947C631.163 160.536 631.304 160.214 631.603 159.947C631.898 159.678 632.275 159.553 632.716 159.553C633.17 159.553 633.528 159.678 633.828 159.947C634.123 160.214 634.263 160.553 634.263 160.947C634.263 161.357 634.123 161.696 633.828 161.947C633.546 162.214 633.17 162.339 632.716 162.339ZM631.581 176.375V163.982H633.864V176.375H631.581Z" fill="#37333F"/>
<path d="M644.133 176.608C642.961 176.608 641.89 176.376 640.955 175.911C640.002 175.447 639.266 174.751 638.713 173.822C638.177 172.893 637.896 171.715 637.896 170.286V169.822C637.896 168.482 638.195 167.358 638.79 166.447C639.389 165.536 640.161 164.876 641.114 164.411C642.067 163.947 643.079 163.733 644.155 163.733C645.245 163.733 646.18 163.911 646.974 164.251C647.769 164.608 648.404 165.072 648.881 165.679C649.357 166.286 649.693 166.947 649.875 167.697H647.528C647.251 167.108 646.874 166.608 646.38 166.197C645.88 165.786 645.145 165.59 644.155 165.59C643.479 165.59 642.843 165.733 642.249 166.018C641.65 166.304 641.173 166.751 640.796 167.376C640.419 168 640.242 168.804 640.242 169.804V170.268C640.242 171.34 640.419 172.179 640.796 172.84C641.173 173.5 641.65 173.965 642.249 174.268C642.843 174.572 643.479 174.715 644.155 174.715C645.009 174.715 645.721 174.518 646.298 174.161C646.874 173.786 647.292 173.268 647.528 172.608H649.875C649.653 173.429 649.298 174.125 648.763 174.733C648.223 175.34 647.569 175.786 646.775 176.108C645.98 176.447 645.109 176.608 644.133 176.608Z" fill="#37333F"/>
<path d="M657.441 176.607C656.424 176.607 655.571 176.446 654.876 176.107C654.182 175.767 653.646 175.303 653.269 174.732C652.911 174.143 652.711 173.482 652.711 172.75C652.711 171.518 653.11 170.625 653.923 170.089C654.74 169.553 655.888 169.267 657.4 169.267H661.867V168.428C661.867 167.375 661.608 166.643 661.072 166.232C660.537 165.821 659.742 165.625 658.689 165.625C657.695 165.625 656.982 165.785 656.524 166.125C656.07 166.464 655.829 166.839 655.77 167.25H653.487C653.546 166.571 653.787 165.982 654.241 165.464C654.699 164.946 655.312 164.518 656.088 164.214C656.864 163.892 657.777 163.75 658.83 163.75C659.919 163.75 660.873 163.91 661.667 164.214C662.462 164.518 663.079 165 663.515 165.643C663.955 166.285 664.173 167.143 664.173 168.214V173.214C664.173 173.875 664.173 174.446 664.191 174.928C664.191 175.428 664.232 175.892 664.309 176.357H662.303C662.244 176 662.225 175.661 662.207 175.339C662.185 175.018 662.185 174.661 662.185 174.25C661.826 174.91 661.231 175.464 660.419 175.91C659.584 176.375 658.589 176.607 657.441 176.607ZM657.936 174.732C658.671 174.732 659.325 174.607 659.919 174.375C660.519 174.143 660.995 173.803 661.349 173.339C661.708 172.892 661.89 172.339 661.89 171.678V170.839H657.795C656.942 170.839 656.288 171 655.789 171.303C655.312 171.607 655.058 172.089 655.058 172.75C655.058 173.321 655.294 173.803 655.752 174.178C656.229 174.553 656.942 174.732 657.936 174.732Z" fill="#37333F"/>
<path d="M672.888 176.5C671.935 176.5 671.163 176.357 670.564 176.089C669.97 175.821 669.534 175.392 669.257 174.803C668.975 174.214 668.857 173.464 668.857 172.518V160H671.141V172.518C671.141 173.321 671.281 173.875 671.581 174.178C671.876 174.482 672.394 174.625 673.147 174.625C673.347 174.625 673.506 174.625 673.647 174.607C673.783 174.607 673.923 174.589 674.06 174.571V176.392C673.982 176.41 673.864 176.428 673.706 176.446C673.565 176.464 673.406 176.482 673.265 176.482C673.129 176.482 672.988 176.5 672.888 176.5Z" fill="#37333F"/>
<path d="M691.755 176.607C690.407 176.607 689.154 176.321 687.983 175.75C686.83 175.178 685.877 174.268 685.164 173.053C684.447 171.821 684.093 170.25 684.093 168.321V167.857C684.093 166.446 684.288 165.25 684.706 164.232C685.123 163.214 685.682 162.375 686.394 161.732C687.111 161.089 687.924 160.589 688.859 160.268C689.79 159.946 690.743 159.786 691.755 159.786C692.749 159.786 693.644 159.911 694.479 160.143C695.314 160.375 696.027 160.714 696.644 161.143C697.257 161.571 697.775 162.125 698.174 162.75C698.569 163.375 698.809 164.107 698.905 164.929H696.304C696.068 163.875 695.55 163.071 694.774 162.535C694.002 162 692.99 161.732 691.755 161.732C690.902 161.732 690.089 161.929 689.313 162.321C688.541 162.714 687.906 163.357 687.407 164.25C686.93 165.143 686.671 166.339 686.671 167.839V168.304C686.671 169.482 686.83 170.482 687.13 171.304C687.429 172.107 687.847 172.768 688.342 173.25C688.836 173.732 689.395 174.089 689.989 174.321C690.584 174.535 691.183 174.643 691.737 174.643C693.09 174.643 694.138 174.339 694.915 173.75C695.668 173.161 696.145 172.393 696.286 171.464H698.887C698.746 172.375 698.469 173.143 698.051 173.804C697.634 174.464 697.121 175 696.485 175.411C695.85 175.821 695.133 176.125 694.32 176.321C693.526 176.518 692.672 176.607 691.755 176.607Z" fill="#37333F"/>
<path d="M708.536 176.608C707.365 176.608 706.294 176.376 705.281 175.911C704.269 175.447 703.452 174.751 702.839 173.822C702.222 172.893 701.927 171.715 701.927 170.286V169.822C701.927 168.482 702.245 167.358 702.839 166.447C703.452 165.536 704.269 164.876 705.281 164.411C706.294 163.947 707.388 163.733 708.536 163.733C709.712 163.733 710.801 163.965 711.814 164.411C712.826 164.858 713.62 165.536 714.238 166.447C714.855 167.358 715.15 168.482 715.15 169.822V170.286C715.15 171.697 714.832 172.893 714.238 173.822C713.62 174.751 712.808 175.465 711.814 175.911C710.801 176.376 709.712 176.608 708.536 176.608ZM708.536 174.733C709.253 174.733 709.93 174.59 710.583 174.304C711.237 174.018 711.777 173.536 712.19 172.893C712.608 172.251 712.826 171.376 712.826 170.286V169.822C712.826 168.822 712.608 168.018 712.19 167.393C711.777 166.768 711.237 166.322 710.583 166.036C709.93 165.751 709.253 165.608 708.536 165.608C707.842 165.608 707.17 165.751 706.512 166.036C705.858 166.322 705.322 166.768 704.882 167.393C704.446 168.018 704.246 168.822 704.246 169.822V170.286C704.246 171.358 704.469 172.233 704.882 172.893C705.3 173.554 705.858 174.018 706.512 174.304C707.17 174.59 707.842 174.733 708.536 174.733Z" fill="#37333F"/>
<path d="M718.945 176.375V163.982H721.07V166.321C721.369 165.553 721.864 164.928 722.599 164.464C723.335 164 724.147 163.75 725.06 163.75C726.254 163.75 727.189 163.982 727.824 164.446C728.46 164.91 728.914 165.5 729.154 166.214C729.608 165.446 730.185 164.839 730.879 164.41C731.574 163.982 732.432 163.75 733.421 163.75C734.851 163.75 735.945 164.143 736.758 164.91C737.552 165.678 737.952 166.892 737.952 168.553V176.392H735.668V169.018C735.668 167.785 735.428 166.91 734.951 166.392C734.474 165.875 733.739 165.625 732.786 165.625C732.232 165.625 731.715 165.767 731.22 166.035C730.72 166.303 730.344 166.696 730.049 167.214C729.749 167.714 729.608 168.321 729.608 169.018V176.392H727.325V169.018C727.325 167.785 727.089 166.91 726.59 166.392C726.095 165.875 725.378 165.625 724.424 165.625C723.87 165.625 723.353 165.767 722.858 166.035C722.359 166.303 721.982 166.696 721.687 167.214C721.387 167.714 721.247 168.321 721.247 169.018V176.392H718.945V176.375Z" fill="#37333F"/>
<path d="M742.478 181.054V163.982H744.602V166.322C745.079 165.5 745.737 164.858 746.568 164.411C747.403 163.965 748.397 163.733 749.491 163.733C751.216 163.733 752.605 164.251 753.658 165.268C754.693 166.286 755.229 167.804 755.229 169.822V170.286C755.229 171.697 754.988 172.858 754.511 173.786C754.035 174.733 753.363 175.429 752.51 175.893C751.652 176.358 750.639 176.59 749.509 176.59C748.338 176.59 747.344 176.358 746.549 175.893C745.755 175.429 745.16 174.84 744.761 174.143V181.054H742.478ZM748.992 174.786C750.126 174.786 751.057 174.411 751.811 173.643C752.569 172.876 752.945 171.768 752.945 170.286V169.822C752.945 168.465 752.569 167.411 751.811 166.679C751.057 165.947 750.126 165.572 748.992 165.572C748.156 165.572 747.425 165.733 746.79 166.036C746.154 166.34 745.655 166.768 745.297 167.304C744.942 167.84 744.761 168.447 744.761 169.125V171C744.761 171.751 744.942 172.411 745.297 172.982C745.655 173.554 746.154 174 746.79 174.322C747.425 174.625 748.156 174.786 748.992 174.786Z" fill="#37333F"/>
<path d="M762.936 176.607C761.919 176.607 761.066 176.446 760.371 176.107C759.677 175.767 759.141 175.303 758.764 174.732C758.406 174.143 758.206 173.482 758.206 172.75C758.206 171.518 758.606 170.625 759.418 170.089C760.235 169.553 761.384 169.267 762.895 169.267H767.362V168.428C767.362 167.375 767.103 166.643 766.568 166.232C766.032 165.821 765.238 165.625 764.184 165.625C763.19 165.625 762.478 165.785 762.019 166.125C761.565 166.464 761.325 166.839 761.266 167.25H758.982C759.041 166.571 759.282 165.982 759.736 165.464C760.194 164.946 760.807 164.518 761.583 164.214C762.36 163.892 763.272 163.75 764.325 163.75C765.415 163.75 766.368 163.91 767.162 164.214C767.957 164.518 768.574 165 769.01 165.643C769.45 166.285 769.668 167.143 769.668 168.214V173.214C769.668 173.875 769.668 174.446 769.686 174.928C769.686 175.428 769.727 175.892 769.804 176.357H767.798C767.739 176 767.721 175.661 767.702 175.339C767.68 175.018 767.68 174.661 767.68 174.25C767.321 174.91 766.727 175.464 765.914 175.91C765.079 176.375 764.085 176.607 762.936 176.607ZM763.431 174.732C764.166 174.732 764.82 174.607 765.415 174.375C766.014 174.143 766.49 173.803 766.845 173.339C767.203 172.892 767.385 172.339 767.385 171.678V170.839H763.29C762.437 170.839 761.783 171 761.284 171.303C760.789 171.607 760.553 172.089 760.553 172.75C760.553 173.321 760.789 173.803 761.248 174.178C761.724 174.553 762.437 174.732 763.431 174.732Z" fill="#37333F"/>
<path d="M775.842 176.375V163.982H777.966V166.321C778.284 165.643 778.824 165.035 779.619 164.518C780.413 164 781.425 163.75 782.674 163.75C784.403 163.75 785.692 164.161 786.546 165C787.381 165.839 787.817 167.053 787.817 168.661V176.375H785.533V169.125C785.533 167.964 785.256 167.107 784.721 166.5C784.185 165.91 783.273 165.607 782.02 165.607C781.126 165.607 780.372 165.785 779.814 166.125C779.237 166.464 778.824 166.91 778.565 167.428C778.284 167.964 778.166 168.518 778.166 169.107V176.357H775.842V176.375Z" fill="#37333F"/>
<path d="M793.677 181.285C793.418 181.285 793.16 181.267 792.901 181.214V179.339C793.16 179.393 793.418 179.41 793.677 179.41C794.013 179.41 794.313 179.339 794.553 179.196C794.789 179.053 795.03 178.75 795.266 178.321C795.506 177.893 795.802 177.232 796.16 176.375L790.3 163.982H792.842L797.313 174.036L801.362 163.982H803.805L798.602 176.375C798.108 177.553 797.649 178.482 797.213 179.214C796.777 179.928 796.278 180.464 795.724 180.785C795.189 181.125 794.49 181.285 793.677 181.285Z" fill="#37333F"/>
</g>
</g>
</svg>
