<svg width="730" height="200" viewBox="0 0 730 200" fill="none" xmlns="http://www.w3.org/2000/svg">
<path fill-rule="evenodd" clip-rule="evenodd" d="M183.983 185.967H15.8691V14.0325H183.983V185.967Z" fill="#335290"/>
<path fill-rule="evenodd" clip-rule="evenodd" d="M360.821 185.967H195.043V14.0325H360.821V185.967Z" fill="#335290"/>
<path fill-rule="evenodd" clip-rule="evenodd" d="M537.783 185.967H372.005V14.0325H537.783V185.967Z" fill="#335290"/>
<path fill-rule="evenodd" clip-rule="evenodd" d="M714.13 185.967H548.105V14.0325H714.13V185.967Z" fill="#335290"/>
<path fill-rule="evenodd" clip-rule="evenodd" d="M681.122 135.785C672.999 139.895 666.192 142.845 660.698 144.429C655.205 146.012 649.699 146.75 644.096 146.75C635.973 146.75 628.083 145.058 620.439 141.696C612.918 138.312 606.946 133.052 602.522 125.98C598.221 118.812 596.07 109.539 595.837 97.9446H639.795C649.589 97.9446 659.494 97.7386 669.288 97.0987C674.425 96.7842 680.398 96.1551 686.972 95.1031C687.329 91.8277 687.452 89.0838 687.452 86.8713C687.452 77.9128 685.534 69.9088 681.713 62.8375C677.891 55.777 671.918 50.1915 663.685 46.081C655.439 41.9705 646.247 39.8557 636.083 39.8557C627.727 39.8557 619.96 41.233 612.796 43.8686C607.303 45.7665 601.81 48.402 596.316 51.775C590.823 55.0395 586.755 57.9895 584.015 60.6249C580.426 64.1064 577.195 69.5834 574.331 77.0669C571.468 84.4528 570.03 92.7822 570.03 102.055C570.03 113.866 572.783 124.083 578.153 132.943C583.536 141.696 591.057 148.333 600.728 152.758C610.399 157.086 621.275 159.298 633.22 159.298C639.315 159.298 645.042 158.767 650.535 157.606C656.028 156.446 660.932 154.971 665.233 153.29C668.096 152.227 672.631 149.917 678.972 146.435L683.261 137.791L681.122 135.785ZM605.509 57.7834C611.727 51.1351 620.083 47.7621 630.48 47.7621C640.274 47.7621 648.028 50.8206 653.89 56.9375C659.74 63.0544 662.726 72.5443 662.726 85.5047C662.726 86.5568 662.726 88.1402 662.603 90.1466C658.658 90.4612 650.781 90.6673 638.59 90.6673C633.466 90.6673 624.028 90.4612 610.399 90.1466C603.247 89.7237 598.344 89.4091 595.837 89.1923C595.947 74.8544 599.18 64.3125 605.509 57.7834Z" fill="white"/>
<path fill-rule="evenodd" clip-rule="evenodd" d="M507.33 141.902L501.948 149.917C495.742 152.976 489.524 155.08 483.441 156.555C477.345 157.921 470.414 158.561 462.771 158.561C443.784 158.561 428.607 153.496 417.387 143.377C406.032 133.258 400.429 119.235 400.429 101.524C400.429 92.1425 401.977 84.03 404.963 77.0671C408.06 70.1151 411.771 64.7356 416.195 61.0481C419.17 58.4127 424.908 54.9313 433.265 50.7232C441.634 46.5042 447.483 43.8687 450.826 42.5998C456.921 40.2788 464.332 39.1292 472.921 39.1292C481.044 39.1292 488.332 39.8558 494.906 41.3416C499.085 42.2852 503.14 43.8687 507.33 46.0812C506.249 52.1981 505.414 56.9377 504.934 60.1046C504.455 63.1631 503.865 68.9546 503.14 77.284H495.263C494.661 69.5836 494.181 64.8441 493.592 62.9461C493.235 61.7857 492.51 60.7336 491.195 59.79C487.976 57.5667 483.908 55.6688 478.783 54.0961C473.757 52.5127 468.153 51.6667 462.168 51.6667C454.647 51.6667 448.086 53.0332 442.58 55.7771C437.087 58.5211 432.798 62.9462 429.812 68.9546C426.703 74.9631 425.265 82.3381 425.265 91.199C425.265 102.164 427.415 111.968 431.717 120.71C436.018 129.571 441.867 135.894 449.4 140.004C456.798 144.006 465.044 146.013 474.236 146.013C478.894 146.013 483.318 145.481 487.742 144.538C492.03 143.486 497.647 141.588 504.578 138.735L507.33 141.902Z" fill="white"/>
<path fill-rule="evenodd" clip-rule="evenodd" d="M231.406 119.029H239.296C239.406 123.671 239.652 127.358 240.131 129.994C240.61 132.727 241.323 135.362 242.393 137.998C243.474 140.536 245.146 142.748 247.419 144.538C249.68 146.327 252.076 147.705 254.706 148.648C257.446 149.7 260.076 150.34 262.829 150.655C265.569 150.969 269.748 151.175 275.364 151.175C284.445 151.175 291.966 148.963 297.939 144.646C303.788 140.319 306.774 134.527 306.774 127.044C306.774 123.671 305.828 120.71 303.911 118.183C302.117 115.547 299.376 113.649 295.911 112.174C292.446 110.699 284.925 108.801 273.459 106.589C261.981 104.268 254.583 102.587 251.118 101.524C246.103 99.8429 242.036 97.8364 239.05 95.4179C236.064 92.9885 233.679 90.0385 232.008 86.351C230.214 82.6634 229.255 78.6505 229.255 74.334C229.255 68.1086 231.173 62.3171 234.995 57.0461C238.816 51.6667 244.666 47.3502 252.789 44.0748C260.912 40.8102 269.748 39.1292 279.309 39.1292C285.158 39.1292 291.733 39.7583 299.376 41.1248C306.897 42.4913 312.993 44.0747 317.761 46.0812C317.527 55.0396 317.404 64.2151 317.294 73.4881H309.404C308.925 67.6857 308.335 63.7921 307.733 62.0025C307.253 60.1046 306.418 58.5211 305.349 57.0461C304.39 55.5711 302.719 54.0961 300.212 52.4042C297.816 50.8208 294.596 49.3457 290.774 47.9792C286.83 46.7103 282.049 46.0812 276.445 46.0812C268.433 46.0812 261.981 48.1852 257.09 52.2958C252.31 56.5146 249.802 61.3627 249.802 66.9481C249.802 70.1151 250.516 72.7506 251.953 74.963C253.391 77.284 255.173 79.0736 257.569 80.4401C259.843 81.8175 263.186 83.0864 267.364 84.236L289.693 89.1925C301.048 91.7195 308.802 93.9429 313.103 95.7324C317.294 97.6304 320.759 100.472 323.377 104.268C326.007 108.172 327.199 112.803 327.199 118.291C327.199 129.039 322.185 138.529 312.157 146.544C302.117 154.548 288.624 158.561 271.788 158.561C264.021 158.561 253.747 157.509 240.844 155.394C233.679 154.234 229.857 153.388 229.378 152.867C229.022 152.65 228.776 152.227 228.776 151.707C228.776 151.175 228.899 150.438 229.022 149.603C229.857 146.23 230.448 142.846 230.693 139.581C231.05 136.317 231.283 129.462 231.406 119.029Z" fill="white"/>
<path fill-rule="evenodd" clip-rule="evenodd" d="M41.1359 128.41C43.3966 133.366 46.7515 138.214 51.1637 142.954C55.5877 147.704 61.3144 151.706 68.4914 154.765C75.5327 157.921 84.2577 159.504 94.5189 159.504C107.668 159.504 119.723 156.771 130.71 151.175C141.586 145.698 150.065 138.106 156.037 128.41C162.01 118.606 165.119 107.955 165.119 96.1552C165.119 79.3879 159.27 65.69 147.559 55.0396C135.97 44.3893 120.805 39.1292 102.286 39.1292C82.5865 39.1292 66.451 44.8122 53.9165 56.2001C41.2583 67.5879 35.04 82.2403 35.04 100.266C35.04 110.276 37.0678 119.658 41.1359 128.41ZM70.0395 57.892C76.8471 50.6146 85.8064 47.0247 96.7929 47.0247C104.559 47.0247 111.724 48.9227 118.175 52.8271C124.627 56.6231 129.874 63.2606 134.065 72.642C138.243 82.0234 140.271 93.0967 140.271 105.96C140.271 121.447 136.806 132.943 129.764 140.427C122.833 147.91 114.108 151.598 103.724 151.598C95.6006 151.598 88.0797 149.179 81.1489 144.429C74.0951 139.689 68.8472 132.206 65.2589 121.978C61.5599 111.653 59.7657 101.524 59.7657 91.5133C59.7657 76.3403 63.1087 65.0501 70.0395 57.892Z" fill="white"/>
</svg>
