<svg width="120" height="120" viewBox="0 0 120 120" fill="none" xmlns="http://www.w3.org/2000/svg">
<g clip-path="url(#clip0_19_440)">
<path d="M61.1145 120C93.6364 120 120 93.1372 120 60C120 26.8628 93.6364 0 61.1145 0C28.5925 0 2.22852 26.8628 2.22852 60C2.22852 93.1372 28.5925 120 61.1145 120Z" fill="#4BD0A0"/>
<path fill-rule="evenodd" clip-rule="evenodd" d="M107.134 48.6484L108.468 61.8715L95.4558 62.8295L98.0181 59.7179C97.1829 59.5859 96.3273 59.5172 95.4558 59.5172C86.3142 59.5172 78.9038 67.0681 78.9038 76.3824C78.9038 77.4724 79.005 78.5382 79.1988 79.5702L71.9049 87.0024C70.4926 83.7556 69.708 80.1624 69.708 76.3824C69.708 61.8935 81.2356 50.1475 95.4558 50.1475C98.6468 50.1475 101.702 50.739 104.522 51.8203L107.134 48.6484ZM83.8696 103.817L86.2721 100.899C89.1248 102.01 92.2206 102.617 95.4558 102.617C109.676 102.617 121.204 90.8716 121.204 76.3824C121.204 72.5349 120.391 68.8808 118.93 65.5885L111.672 72.9844C111.892 74.082 112.008 75.2184 112.008 76.3824C112.008 85.697 104.597 93.2479 95.4558 93.2479C94.5369 93.2479 93.6351 93.1714 92.7569 93.0248L95.5475 89.6359L82.5356 90.5943L83.8696 103.817Z" fill="white"/>
<path d="M108.356 61.758L108.371 61.9682C108.427 61.9643 108.479 61.9374 108.515 61.8936C108.551 61.8498 108.568 61.7934 108.562 61.7366L108.356 61.758ZM107.023 48.535L107.228 48.5136C107.22 48.4293 107.163 48.3582 107.083 48.3336C107.004 48.3086 106.918 48.3346 106.864 48.3994L107.023 48.535ZM95.3443 62.7161L95.1858 62.5805C95.1324 62.6454 95.1222 62.7365 95.16 62.8121C95.1979 62.8873 95.2762 62.9324 95.3593 62.9262L95.3443 62.7161ZM97.9067 59.6045L98.0652 59.7401C98.1133 59.6817 98.1266 59.6016 98.1002 59.5306C98.0741 59.4592 98.0123 59.408 97.9385 59.3963L97.9067 59.6045ZM79.0874 79.4567L79.2338 79.6059C79.2822 79.5566 79.3035 79.4859 79.2908 79.4172L79.0874 79.4567ZM71.7935 86.8889L71.6041 86.9742C71.6318 87.0378 71.6884 87.0835 71.7556 87.0962C71.8224 87.1088 71.8915 87.0871 71.9396 87.0381L71.7935 86.8889ZM104.411 51.7069L104.338 51.9041C104.42 51.9355 104.513 51.9109 104.569 51.8425L104.411 51.7069ZM86.1607 100.786L86.2345 100.589C86.1521 100.557 86.0588 100.582 86.0022 100.651L86.1607 100.786ZM83.7581 103.704L83.5522 103.725C83.5608 103.81 83.6178 103.88 83.6973 103.905C83.7766 103.93 83.8632 103.904 83.9167 103.839L83.7581 103.704ZM118.819 65.4751L119.007 65.3882C118.979 65.3253 118.923 65.2802 118.856 65.2675C118.789 65.2552 118.72 65.2769 118.672 65.3259L118.819 65.4751ZM111.56 72.871L111.414 72.7218C111.365 72.7717 111.344 72.8437 111.358 72.9132L111.56 72.871ZM92.6455 92.9113L92.4869 92.7758C92.4392 92.8338 92.4255 92.9136 92.4513 92.9846C92.4774 93.0557 92.5385 93.1069 92.612 93.1192L92.6455 92.9113ZM95.436 89.5225L95.5945 89.658C95.648 89.5932 95.6582 89.502 95.6203 89.4265C95.5824 89.3512 95.5041 89.3061 95.421 89.312L95.436 89.5225ZM82.4241 90.4808L82.4092 90.2703C82.3535 90.2746 82.3016 90.3015 82.2656 90.3453C82.2296 90.3891 82.2128 90.4455 82.2185 90.5022L82.4241 90.4808ZM108.562 61.7366L107.228 48.5136L106.817 48.5564L108.15 61.7798L108.562 61.7366ZM95.3593 62.9262L108.371 61.9682L108.341 61.5479L95.3294 62.5059L95.3593 62.9262ZM97.7482 59.4693L95.1858 62.5805L95.5029 62.8516L98.0652 59.7401L97.7482 59.4693ZM97.9385 59.3963C97.0928 59.2623 96.2264 59.1929 95.3443 59.1929V59.6146C96.205 59.6146 97.0501 59.6823 97.8748 59.8131L97.9385 59.3963ZM95.3443 59.1929C86.0884 59.1929 78.5854 66.8382 78.5854 76.2689H78.9992C78.9992 67.0711 86.317 59.6146 95.3443 59.6146V59.1929ZM78.5854 76.2689C78.5854 77.3723 78.6879 78.4513 78.8843 79.4966L79.2908 79.4172C79.0991 78.3978 78.9992 77.3454 78.9992 76.2689H78.5854ZM78.9413 79.3079L71.647 86.7398L71.9396 87.0381L79.2338 79.6059L78.9413 79.3079ZM71.9825 86.8036C70.5817 83.5831 69.8034 80.0191 69.8034 76.2689H69.3896C69.3896 80.0791 70.1806 83.7012 71.6041 86.9742L71.9825 86.8036ZM69.8034 76.2689C69.8034 61.8965 81.2384 50.2448 95.3443 50.2448V49.8232C81.0099 49.8232 69.3896 61.6636 69.3896 76.2689H69.8034ZM95.3443 50.2448C98.5102 50.2448 101.541 50.8319 104.338 51.9041L104.483 51.5094C101.641 50.4196 98.5605 49.8232 95.3443 49.8232V50.2448ZM106.864 48.3994L104.252 51.5713L104.569 51.8425L107.181 48.6706L106.864 48.3994ZM86.0022 100.651L83.5996 103.568L83.9167 103.839L86.3192 100.921L86.0022 100.651ZM95.3443 102.293C92.1346 102.293 89.0639 101.69 86.2345 100.589L86.0868 100.983C88.9627 102.102 92.0833 102.715 95.3443 102.715V102.293ZM120.885 76.2689C120.885 90.6417 109.45 102.293 95.3443 102.293V102.715C109.679 102.715 121.299 90.8746 121.299 76.2689H120.885ZM118.63 65.562C120.079 68.8273 120.885 72.452 120.885 76.2689H121.299C121.299 72.391 120.48 68.707 119.007 65.3882L118.63 65.562ZM111.707 73.0199L118.965 65.624L118.672 65.3259L111.414 72.7218L111.707 73.0199ZM112.103 76.2689C112.103 75.0907 111.986 73.94 111.763 72.8285L111.358 72.9132C111.575 73.997 111.689 75.1192 111.689 76.2689H112.103ZM95.3443 93.3453C104.6 93.3453 112.103 85.7 112.103 76.2689H111.689C111.689 85.4671 104.371 92.9236 95.3443 92.9236V93.3453ZM92.612 93.1192C93.5014 93.2678 94.4139 93.3453 95.3443 93.3453V92.9236C94.4365 92.9236 93.5463 92.8481 92.6789 92.7031L92.612 93.1192ZM95.2775 89.3869L92.4869 92.7758L92.804 93.0469L95.5945 89.658L95.2775 89.3869ZM82.4391 90.691L95.451 89.7326L95.421 89.312L82.4092 90.2703L82.4391 90.691ZM83.9638 103.682L82.6301 90.4591L82.2185 90.5022L83.5522 103.725L83.9638 103.682Z" fill="black"/>
<path d="M36.726 70.901L3.73612 61.8942C0.787562 61.0892 -0.958741 58.0347 -0.183198 55.0853L13.0653 4.70585C13.8447 1.74234 16.8664 0.00483266 19.8007 0.805946L52.8047 9.81668C55.7535 10.6217 57.4997 13.6763 56.7243 16.6255L43.4756 67.0052C42.7002 69.9543 39.6744 71.706 36.726 70.901Z" fill="white" stroke="black" stroke-width="1.3" stroke-miterlimit="10" stroke-linecap="round" stroke-linejoin="round"/>
<path d="M52.7343 15.5053L17.0693 5.76807L4.71191 52.759L40.3769 62.4962L52.7343 15.5053Z" fill="black" stroke="black" stroke-width="1.3" stroke-miterlimit="10" stroke-linecap="round" stroke-linejoin="round"/>
<path d="M0.0947266 56.5352L42.8312 68.2031" stroke="black" stroke-width="1.3" stroke-linecap="round" stroke-linejoin="round"/>
<path d="M39.2638 78.4863C47.7899 78.4863 54.7015 71.4439 54.7015 62.7566C54.7015 54.0692 47.7899 47.0269 39.2638 47.0269C30.7378 47.0269 23.8262 54.0692 23.8262 62.7566C23.8262 71.4439 30.7378 78.4863 39.2638 78.4863Z" fill="#4BD0A0" stroke="black" stroke-width="1.3" stroke-linecap="round" stroke-linejoin="round"/>
<path d="M39.2638 72.973C44.8013 72.973 49.2904 68.399 49.2904 62.7567C49.2904 57.1145 44.8013 52.5405 39.2638 52.5405C33.7263 52.5405 29.2373 57.1145 29.2373 62.7567C29.2373 68.399 33.7263 72.973 39.2638 72.973Z" stroke="black" stroke-width="1.3" stroke-linecap="round" stroke-linejoin="round"/>
<path d="M29.8213 77.5287L35.2098 62.4437C35.9693 60.3184 38.2575 59.2309 40.3434 60.0045C42.4292 60.7783 43.4962 63.1099 42.737 65.2352L38.5615 76.9241C38.5615 76.9241 38.5615 76.9241 38.5841 76.9326C39.4528 75.0048 41.6153 74.0539 43.5878 74.7855C45.583 75.5253 46.6314 77.6934 46.0579 79.7305L46.0805 79.7389C46.9262 77.8027 49.1053 76.8054 51.1004 77.5455C53.1862 78.319 54.2535 80.6506 53.494 82.7759C54.2535 80.6506 56.5418 79.5635 58.6276 80.337C60.7135 81.1105 61.7804 83.4421 61.0213 85.5674L54.3869 104.141C54.2876 104.418 54.166 104.687 54.0071 104.916C49.923 114.912 38.7738 119.96 28.6846 116.218C18.3236 112.376 12.9572 100.732 16.683 90.1582C16.6913 90.1348 16.6913 90.1348 16.6995 90.1118L21.5929 76.413C22.3521 74.2877 24.6406 73.2002 26.7264 73.9741C28.2909 74.554 30.0485 76.4616 29.1942 79.2842" fill="white"/>
<path d="M29.8213 77.5287L35.2098 62.4437C35.9693 60.3184 38.2575 59.2309 40.3434 60.0045C42.4292 60.7783 43.4962 63.1099 42.737 65.2352L38.5615 76.9241C38.5615 76.9241 38.5615 76.9241 38.5841 76.9326C39.4528 75.0048 41.6153 74.0539 43.5878 74.7855C45.583 75.5253 46.6314 77.6934 46.0579 79.7305L46.0805 79.7389C46.9262 77.8027 49.1053 76.8054 51.1004 77.5455C53.1862 78.319 54.2535 80.6506 53.494 82.7759C54.2535 80.6506 56.5418 79.5635 58.6276 80.337C60.7135 81.1105 61.7804 83.4421 61.0213 85.5674L54.3869 104.141C54.2876 104.418 54.166 104.687 54.0071 104.916C49.923 114.912 38.7738 119.96 28.6846 116.218C18.3236 112.376 12.9572 100.732 16.683 90.1582C16.6913 90.1348 16.6913 90.1348 16.6995 90.1118L21.5929 76.413C22.3521 74.2877 24.6406 73.2002 26.7264 73.9741C28.2909 74.554 30.0485 76.4616 29.1942 79.2842" stroke="black" stroke-width="1.3" stroke-miterlimit="10" stroke-linecap="round" stroke-linejoin="round"/>
<path d="M53.4861 82.7988L50.3174 91.6697" stroke="black" stroke-width="1.3" stroke-miterlimit="10" stroke-linecap="round" stroke-linejoin="round"/>
<path d="M46.1962 79.4155L42.8213 88.8641" stroke="black" stroke-width="1.3" stroke-miterlimit="10" stroke-linecap="round" stroke-linejoin="round"/>
<path d="M38.6464 76.6152L35.2549 86.1098" stroke="black" stroke-width="1.3" stroke-miterlimit="10" stroke-linecap="round" stroke-linejoin="round"/>
<path d="M31.1418 73.8325L24.3174 92.9372" stroke="black" stroke-width="1.3" stroke-miterlimit="10" stroke-linecap="round" stroke-linejoin="round"/>
<path d="M36.6149 86.6148L33.917 85.6143" stroke="black" stroke-width="1.3" stroke-miterlimit="10" stroke-linecap="round" stroke-linejoin="round"/>
<path d="M44.1876 89.423L41.4668 88.4141" stroke="black" stroke-width="1.3" stroke-miterlimit="10" stroke-linecap="round" stroke-linejoin="round"/>
<path d="M51.6017 92.1724L49.04 91.2222" stroke="black" stroke-width="1.3" stroke-miterlimit="10" stroke-linecap="round" stroke-linejoin="round"/>
<path fill-rule="evenodd" clip-rule="evenodd" d="M21.8343 40.5899C24.2616 43.0632 29.095 42.1486 32.6295 38.547C33.3584 37.8043 33.9752 37.0055 34.4737 36.1833L26.159 27.7113C25.3521 28.2192 24.5681 28.8478 23.8392 29.5905C20.3045 33.1918 19.4069 38.1166 21.8343 40.5899ZM28.2353 26.6842L35.4818 34.0678C36.366 31.552 36.1378 29.0797 34.6344 27.5476C33.1311 26.0158 30.7047 25.7836 28.2353 26.6842Z" fill="white"/>
<path d="M34.4734 36.1834L34.6494 36.2944C34.7001 36.2113 34.6876 36.1037 34.6198 36.0346L34.4734 36.1834ZM26.1587 27.7114L26.3048 27.5623C26.237 27.4932 26.1317 27.4805 26.0499 27.5321L26.1587 27.7114ZM28.235 26.6843L28.1653 26.4861C28.0988 26.5105 28.0488 26.5679 28.0332 26.6383C28.0176 26.7086 28.0386 26.7826 28.0889 26.8335L28.235 26.6843ZM35.4815 34.0679L35.3351 34.2167C35.3854 34.268 35.4576 34.2894 35.5267 34.2735C35.5958 34.2576 35.6524 34.207 35.6763 34.1389L35.4815 34.0679ZM32.4831 38.3983C30.7413 40.1726 28.686 41.2786 26.7788 41.6396C24.8702 42.0005 23.132 41.6143 21.9803 40.4408L21.6878 40.7392C22.9636 42.0391 24.8556 42.4322 26.8542 42.054C28.8538 41.6756 30.9826 40.5232 32.7756 38.6963L32.4831 38.3983ZM34.2974 36.0729C33.8075 36.8807 33.2008 37.6669 32.4831 38.3983L32.7756 38.6963C33.5156 37.9423 34.1424 37.1305 34.6494 36.2944L34.2974 36.0729ZM34.6198 36.0346L26.3048 27.5623L26.0123 27.8606L34.3273 36.3326L34.6198 36.0346ZM23.985 29.7394C24.7028 29.0081 25.4744 28.3899 26.2676 27.8908L26.0499 27.5321C25.2293 28.0487 24.4326 28.6873 23.6925 29.4414L23.985 29.7394ZM21.9803 40.4408C20.8288 39.2674 20.4497 37.4963 20.8041 35.5517C21.1584 33.6083 22.2436 31.5141 23.985 29.7394L23.6925 29.4414C21.8995 31.2683 20.7687 33.4374 20.3973 35.4748C20.0261 37.5112 20.4119 39.439 21.6878 40.7392L21.9803 40.4408ZM28.0889 26.8335L35.3351 34.2167L35.6276 33.9187L28.3814 26.5354L28.0889 26.8335ZM34.4877 27.6969C35.9137 29.1495 36.1557 31.5242 35.2867 33.9969L35.6763 34.1389C36.5755 31.58 36.3616 29.0097 34.7806 27.3988L34.4877 27.6969ZM28.305 26.8828C30.7318 25.9974 33.0621 26.2442 34.4877 27.6969L34.7806 27.3988C33.1993 25.7876 30.677 25.5696 28.1653 26.4861L28.305 26.8828Z" fill="white"/>
<path d="M16.2822 35.4044C17.4646 34.4616 20.3073 33.0631 22.2196 35.0117" stroke="white" stroke-width="4" stroke-linecap="round" stroke-linejoin="round"/>
<path d="M34.1719 29.1193C35.3541 28.1764 38.1968 26.778 40.1092 28.7265" stroke="white" stroke-width="4" stroke-linecap="round" stroke-linejoin="round"/>
<path d="M33.0918 28.0192C34.0171 26.8143 35.3896 23.9178 33.4773 21.9692" stroke="white" stroke-width="4" stroke-linecap="round" stroke-linejoin="round"/>
<path d="M26.7695 46.09C27.6948 44.8851 29.0674 41.9886 27.155 40.04" stroke="white" stroke-width="4" stroke-linecap="round" stroke-linejoin="round"/>
<path d="M27.3091 24.1694C26.3838 25.374 25.0113 28.2705 26.9236 30.2191" stroke="white" stroke-width="4" stroke-linecap="round" stroke-linejoin="round"/>
<path d="M37.796 34.855C36.6135 35.7978 33.7708 37.1963 31.8584 35.2477" stroke="white" stroke-width="4" stroke-linecap="round" stroke-linejoin="round"/>
<path d="M20.5786 64.4779C21.8521 64.8256 23.1611 64.0553 23.5023 62.7577C23.8435 61.4601 23.0878 60.1265 21.8143 59.7788C20.5408 59.4311 19.2318 60.2011 18.8905 61.4987C18.5493 62.7963 19.3051 64.1303 20.5786 64.4779Z" fill="white" stroke="black" stroke-width="1.3" stroke-miterlimit="10" stroke-linecap="round" stroke-linejoin="round"/>
<path d="M69.2732 2.04605L85.872 6.5778C87.3846 6.99076 88.2851 8.57528 87.8846 10.0988L78.8324 44.5209C78.4282 46.0578 76.8742 46.9575 75.3617 46.5446L58.7631 42.0129C57.2503 41.6 56.3498 40.0153 56.7505 38.492L65.7989 4.08365C66.2031 2.54648 67.7606 1.63306 69.2732 2.04605Z" fill="white" stroke="black" stroke-width="1.3" stroke-miterlimit="10" stroke-linecap="round" stroke-linejoin="round"/>
<path d="M56.8105 38.2637L78.7938 44.2656" stroke="black" stroke-width="1.3" stroke-miterlimit="10" stroke-linecap="round" stroke-linejoin="round"/>
<path d="M67.467 42.8519C68.3162 43.0838 69.1887 42.5704 69.4163 41.7054C69.6438 40.8405 69.14 39.9512 68.2911 39.7193C67.4418 39.4874 66.5694 40.0008 66.3418 40.8661C66.1142 41.7311 66.6181 42.6204 67.467 42.8519Z" fill="white" stroke="black" stroke-width="1.3" stroke-miterlimit="10" stroke-linecap="round" stroke-linejoin="round"/>
<path d="M85.3023 10.1158L68.0846 5.41504L60.1758 35.4894L77.3934 40.1901L85.3023 10.1158Z" fill="black" stroke="black" stroke-width="1.3" stroke-linecap="round" stroke-linejoin="round"/>
<path d="M75.5177 15.9714L73.8714 15.522C73.3039 15.367 72.7347 15.6809 72.5906 16.2281L70.7196 23.3427C70.5757 23.8902 70.9147 24.4519 71.4822 24.6069L73.1285 25.0564C73.696 25.2111 74.2651 24.8975 74.4093 24.3501L76.2803 17.2354C76.3672 16.6726 76.0285 16.1108 75.5177 15.9714Z" fill="white" stroke="white" stroke-width="1.3" stroke-miterlimit="10" stroke-linecap="round" stroke-linejoin="round"/>
<path d="M71.0815 29.5292C72.0154 29.7842 72.975 29.2195 73.2256 28.2679C73.4757 27.3164 72.9216 26.3382 71.9877 26.0833C71.0535 25.828 70.0938 26.393 69.8433 27.3446C69.5931 28.2962 70.1472 29.2743 71.0815 29.5292Z" fill="white" stroke="white" stroke-width="1.3" stroke-miterlimit="10" stroke-linecap="round" stroke-linejoin="round"/>
</g>
<defs>
<clipPath id="clip0_19_440">
<rect width="120" height="120" fill="white"/>
</clipPath>
</defs>
</svg>
