<svg width="206" height="40" viewBox="0 0 206 40" fill="none" xmlns="http://www.w3.org/2000/svg">
<g clip-path="url(#clip0_28_375)">
<path fill-rule="evenodd" clip-rule="evenodd" d="M0 20.0002L20.1552 0L34.109 13.6506C30.9096 13.6506 28.2199 11.4286 25.1165 11.4286C21.3957 11.1113 17.6746 12.3808 15.5039 13.3333C17.8033 13.2964 20.0177 13.2514 21.9857 13.8429C25.7427 14.9719 28.9828 17.1429 32.8689 17.1429C33.7986 17.1429 35.3491 16.8252 36.5893 16.1907L39.6903 19.3649C37.8298 19.6825 33.7986 20.3171 29.7674 18.7304C24.7147 16.5121 20.6058 17.1272 15.5039 19.3649C17.3645 19.3649 19.5351 19.3649 21.3957 19.6825C24.1864 20.0002 25.7366 20.6347 28.5272 21.9046C30.3878 22.8568 31.6283 23.1748 32.8689 23.1748C34.7287 23.1748 37.8298 21.9046 40 20.6347L34.7287 25.7145C33.1785 25.7145 31.6283 25.3964 29.7674 24.4443C27.5971 23.4917 25.7366 23.1748 25.1165 23.1748C21.3957 22.8568 17.6746 24.127 15.5039 25.3964C20.3971 25.3964 24.0268 25.8885 28.5272 27.9365C29.7674 28.5714 30.6979 28.8887 31.6283 28.8887L20.1552 40L0 20.0002Z" fill="#1F467A"/>
<path d="M64.5795 6.80444V12.7533H63.999C63.6509 11.3764 63.2693 10.3922 62.8492 9.79544C62.4291 9.19284 61.8486 8.71714 61.1131 8.36334C60.7041 8.16454 59.9854 8.07044 58.9627 8.07044H57.3261V25.0102C57.3261 26.1323 57.387 26.8346 57.5085 27.1165C57.6357 27.3983 57.8791 27.6417 58.2383 27.852C58.6032 28.0675 59.0952 28.1727 59.7199 28.1727H60.4496V28.7695H48.9502V28.1727H49.68C50.3157 28.1727 50.8299 28.0565 51.2168 27.8299C51.4991 27.6806 51.72 27.4204 51.8803 27.0502C52.0018 26.7958 52.0627 26.1159 52.0627 25.0102V8.07044H50.4707C48.9944 8.07044 47.9161 8.38004 47.2473 9.01044C46.3073 9.88374 45.7158 11.1334 45.4671 12.7533H44.8535V6.80444H64.5795ZM78.4788 13.6266V25.4799C78.4788 26.6354 78.5835 27.3599 78.7995 27.6417C79.0151 27.9293 79.4516 28.1117 80.115 28.189V28.7695H73.9395V26.7459C73.2155 27.6086 72.4968 28.2389 71.7723 28.6312C71.0483 29.0239 70.2355 29.2231 69.3397 29.2231C68.4884 29.2231 67.7308 28.963 67.0674 28.4377C66.4043 27.9125 65.9564 27.2989 65.7297 26.597C65.5031 25.8946 65.3869 24.6728 65.3869 22.9204V16.9105C65.3869 15.7664 65.2818 15.0587 65.0716 14.7765C64.8617 14.4946 64.4248 14.3122 63.756 14.2238V13.6266H69.9258V23.9762C69.9258 25.0544 69.9757 25.751 70.0805 26.066C70.1803 26.3757 70.3406 26.6133 70.5672 26.7794C70.7881 26.9398 71.0426 27.0224 71.3355 27.0224C71.7228 27.0224 72.0709 26.9173 72.3863 26.7128C72.8175 26.4309 73.337 25.8672 73.9395 25.0102V16.9105C73.9395 15.7664 73.8348 15.0587 73.6245 14.7765C73.4143 14.4946 72.9778 14.3122 72.3033 14.2238V13.6266H78.4788ZM88.585 13.6266V17.0598C89.5912 15.4952 90.4704 14.4558 91.2224 13.9416C91.9794 13.4278 92.7094 13.1734 93.4114 13.1734C94.0144 13.1734 94.5004 13.3558 94.8604 13.7317C95.2244 14.1019 95.4014 14.6272 95.4014 15.3074C95.4014 16.0315 95.2304 16.5955 94.8764 16.9936C94.5284 17.3916 94.1024 17.5961 93.6054 17.5961C93.0354 17.5961 92.5384 17.4083 92.1184 17.0434C91.6924 16.6729 91.4434 16.4683 91.3714 16.4295C91.2614 16.3632 91.1394 16.3301 90.9954 16.3301C90.6854 16.3301 90.3874 16.4462 90.1054 16.6839C89.6632 17.0545 89.3315 17.5797 89.1049 18.2596C88.7564 19.3047 88.585 20.4599 88.585 21.7259V25.2037L88.6017 26.1159C88.6017 26.7295 88.6402 27.1222 88.7122 27.2936C88.8447 27.5865 89.0329 27.8021 89.2873 27.9346C89.5413 28.0729 89.9729 28.1559 90.5754 28.189V28.7695H82.3984V28.189C83.0565 28.1338 83.4987 27.9514 83.7307 27.6417C83.963 27.3378 84.0792 26.525 84.0792 25.2037V16.8332C84.0792 15.9709 84.0403 15.4179 83.952 15.1802C83.8415 14.8763 83.6865 14.655 83.482 14.5167C83.2775 14.3731 82.9126 14.279 82.3984 14.2238V13.6266H88.585ZM103.567 13.1734C104.883 13.1734 106.111 13.5104 107.244 14.1907C108.377 14.8705 109.239 15.838 109.826 17.093C110.417 18.3426 110.71 19.7138 110.71 21.2064C110.71 23.3569 110.168 25.1538 109.074 26.597C107.758 28.3494 105.939 29.2231 103.617 29.2231C101.339 29.2231 99.5814 28.4214 98.3544 26.8236C97.1214 25.2258 96.5074 23.3736 96.5074 21.2727C96.5074 19.1002 97.1384 17.2091 98.3934 15.595C99.6534 13.9804 101.378 13.1734 103.567 13.1734ZM103.634 14.3232C103.081 14.3232 102.611 14.5278 102.218 14.9479C101.82 15.3626 101.56 16.1808 101.439 17.4083C101.312 18.6355 101.251 20.3384 101.251 22.5166C101.251 23.6722 101.328 24.7501 101.478 25.7564C101.599 26.525 101.854 27.1054 102.241 27.5034C102.627 27.9072 103.07 28.106 103.567 28.106C104.054 28.106 104.457 27.9677 104.784 27.7027C105.204 27.3321 105.486 26.8179 105.624 26.1601C105.839 25.1371 105.95 23.064 105.95 19.9404C105.95 18.1049 105.845 16.8443 105.641 16.1587C105.436 15.4731 105.132 14.9757 104.734 14.6607C104.452 14.4337 104.087 14.3232 103.634 14.3232ZM119.197 13.6266V15.5839C119.976 14.7433 120.723 14.1297 121.436 13.7481C122.144 13.3611 122.912 13.1734 123.736 13.1734C124.714 13.1734 125.533 13.4442 126.179 13.9915C126.826 14.5335 127.258 15.2133 127.473 16.0204C127.65 16.6397 127.733 17.8227 127.733 19.5698V25.4635C127.733 26.6301 127.838 27.3599 128.048 27.6417C128.258 27.9293 128.7 28.1117 129.37 28.189V28.7695H121.707V28.189C122.282 28.1117 122.691 27.874 122.94 27.476C123.111 27.2048 123.199 26.536 123.199 25.4635V18.7296C123.199 17.4856 123.15 16.7007 123.056 16.38C122.956 16.0536 122.79 15.8048 122.558 15.6281C122.326 15.4457 122.072 15.3569 121.79 15.3569C120.861 15.3569 119.998 16.0204 119.197 17.3531V25.4635C119.197 26.597 119.302 27.3157 119.512 27.6196C119.727 27.9236 120.115 28.1117 120.689 28.189V28.7695H113.027V28.189C113.663 28.1228 114.116 27.9182 114.387 27.5697C114.569 27.3321 114.663 26.6301 114.663 25.4635V16.9105C114.663 15.7664 114.558 15.0587 114.348 14.7765C114.138 14.4946 113.696 14.3122 113.027 14.2238V13.6266H119.197ZM145.099 17.1261C147.183 17.6071 148.648 18.1986 149.488 18.8899C150.699 19.8741 151.302 21.1455 151.302 22.7101C151.302 24.3631 150.638 25.7289 149.311 26.8125C147.68 28.117 145.308 28.7695 142.201 28.7695H131.039V28.1727C132.056 28.1727 132.742 28.0786 133.107 27.8851C133.466 27.6969 133.721 27.4539 133.864 27.1496C134.014 26.8457 134.086 26.1049 134.086 24.9162V10.6634C134.086 9.47474 134.014 8.72824 133.864 8.41854C133.721 8.10894 133.461 7.86594 133.096 7.68344C132.731 7.49534 132.045 7.40694 131.039 7.40694V6.80444H141.566C144.081 6.80444 145.867 7.03104 146.912 7.47894C147.962 7.92644 148.786 8.59564 149.389 9.48574C149.997 10.3758 150.295 11.3269 150.295 12.3274C150.295 13.3889 149.914 14.3286 149.145 15.1581C148.383 15.9819 147.033 16.6397 145.099 17.1261ZM139.205 16.6839C140.736 16.6839 141.864 16.5125 142.594 16.1697C143.324 15.8216 143.882 15.3348 144.275 14.7102C144.662 14.0856 144.855 13.2838 144.855 12.3107C144.855 11.3433 144.662 10.5472 144.28 9.92264C143.899 9.30334 143.352 8.83334 142.638 8.50734C141.925 8.18084 140.781 8.02624 139.205 8.03724V16.6839ZM139.205 17.9499V24.9935L139.188 25.8063C139.188 26.3867 139.332 26.8289 139.631 27.1275C139.929 27.4204 140.366 27.5697 140.952 27.5697C141.814 27.5697 142.611 27.382 143.34 26.995C144.07 26.6133 144.629 26.055 145.016 25.3252C145.408 24.6012 145.602 23.7884 145.602 22.8926C145.602 21.8642 145.364 20.941 144.888 20.1282C144.413 19.3158 143.761 18.746 142.926 18.4199C142.097 18.0939 140.853 17.9389 139.205 17.9499ZM161.944 26.536C160.098 28.1669 158.439 28.9797 156.969 28.9797C156.106 28.9797 155.387 28.6979 154.818 28.1281C154.243 27.5644 153.961 26.851 153.961 25.9998C153.961 24.8442 154.453 23.8048 155.448 22.8815C156.443 21.9583 158.605 20.7311 161.944 19.1996V17.6734C161.944 16.5293 161.883 15.8106 161.756 15.5119C161.635 15.2133 161.397 14.9536 161.054 14.7323C160.706 14.5114 160.319 14.4005 159.888 14.4005C159.185 14.4005 158.605 14.5609 158.152 14.8705C157.875 15.064 157.731 15.2907 157.731 15.5508C157.731 15.7774 157.881 16.0593 158.185 16.3963C158.594 16.861 158.804 17.3085 158.804 17.7401C158.804 18.2706 158.605 18.7185 158.213 19.0945C157.814 19.4647 157.3 19.6528 156.664 19.6528C155.984 19.6528 155.415 19.4426 154.956 19.0335C154.497 18.6245 154.265 18.1434 154.265 17.5961C154.265 16.8168 154.574 16.0756 155.188 15.368C155.807 14.6607 156.664 14.1187 157.765 13.7371C158.865 13.3611 160.009 13.1734 161.198 13.1734C162.635 13.1734 163.769 13.4773 164.609 14.0856C165.444 14.6992 165.985 15.3569 166.235 16.0703C166.389 16.5236 166.461 17.5687 166.461 19.1996V25.0765C166.461 25.7674 166.489 26.2043 166.544 26.3814C166.599 26.5581 166.677 26.6907 166.787 26.7794C166.892 26.8621 167.02 26.9062 167.158 26.9062C167.44 26.9062 167.727 26.7074 168.02 26.3094L168.501 26.6964C167.965 27.4981 167.407 28.0786 166.826 28.4377C166.251 28.7973 165.593 28.9797 164.858 28.9797C163.995 28.9797 163.321 28.7752 162.834 28.3715C162.348 27.9677 162.049 27.3541 161.944 26.536ZM161.944 25.353V20.2832C160.639 21.0518 159.666 21.8699 159.031 22.7433C158.605 23.3294 158.395 23.9156 158.395 24.5071C158.395 25.0045 158.572 25.4414 158.931 25.8226C159.202 26.1159 159.578 26.2595 160.064 26.2595C160.606 26.2595 161.231 25.9556 161.944 25.353ZM176.357 13.6266V15.5839C177.137 14.7433 177.883 14.1297 178.597 13.7481C179.304 13.3611 180.073 13.1734 180.896 13.1734C181.875 13.1734 182.693 13.4442 183.34 13.9915C183.987 14.5335 184.418 15.2133 184.634 16.0204C184.811 16.6397 184.894 17.8227 184.894 19.5698V25.4635C184.894 26.6301 184.999 27.3599 185.209 27.6417C185.419 27.9293 185.861 28.1117 186.53 28.189V28.7695H178.867V28.189C179.442 28.1117 179.852 27.874 180.1 27.476C180.272 27.2048 180.36 26.536 180.36 25.4635V18.7296C180.36 17.4856 180.31 16.7007 180.217 16.38C180.117 16.0536 179.951 15.8048 179.719 15.6281C179.487 15.4457 179.232 15.3569 178.95 15.3569C178.022 15.3569 177.159 16.0204 176.357 17.3531V25.4635C176.357 26.597 176.463 27.3157 176.672 27.6196C176.888 27.9236 177.275 28.1117 177.85 28.189V28.7695H170.187V28.189C170.823 28.1228 171.277 27.9182 171.547 27.5697C171.73 27.3321 171.824 26.6301 171.824 25.4635V16.9105C171.824 15.7664 171.719 15.0587 171.509 14.7765C171.299 14.4946 170.856 14.3122 170.187 14.2238V13.6266H176.357ZM194.773 6.80444V21.2563L198.289 17.8063C199.014 17.104 199.467 16.5955 199.644 16.2802C199.821 15.9709 199.909 15.6666 199.909 15.3737C199.909 15.0808 199.793 14.8374 199.556 14.6439C199.318 14.4504 198.854 14.3122 198.162 14.2238V13.6266H204.946V14.2238C204.299 14.257 203.735 14.4116 203.249 14.6881C202.762 14.9589 201.811 15.7885 200.396 17.1703L198.743 18.7905L202.309 24.0093C203.746 26.1213 204.598 27.31 204.869 27.5697C205.234 27.9403 205.698 28.1448 206.262 28.189V28.7695H198.439V28.189C198.782 28.189 199.03 28.1228 199.191 27.9902C199.346 27.863 199.423 27.7247 199.423 27.5697C199.423 27.321 199.196 26.8621 198.743 26.1932L195.746 21.8036L194.773 22.76V25.4799C194.773 26.6354 194.884 27.3599 195.1 27.6417C195.315 27.9293 195.757 28.1117 196.426 28.189V28.7695H188.603V28.189C189.239 28.1228 189.692 27.9182 189.964 27.5697C190.151 27.3321 190.24 26.6354 190.24 25.4799V10.094C190.24 8.94944 190.135 8.23614 189.925 7.95424C189.714 7.67774 189.272 7.48994 188.603 7.40694V6.80444H194.773Z" fill="#1F467A"/>
<path d="M44.8457 32.8762H206.255V33.5905H44.8457V32.8762Z" fill="#1F467A"/>
</g>
<defs>
<clipPath id="clip0_28_375">
<rect width="206" height="40" fill="white"/>
</clipPath>
</defs>
</svg>
