<svg width="700" height="180" viewBox="0 0 700 180" fill="none" xmlns="http://www.w3.org/2000/svg">
<path d="M72.5935 125.546C66.6282 134.994 54.0481 141.178 41.2704 141.178C40.3025 141.178 39.3289 141.143 38.361 141.07C26.1754 140.158 16.702 136.103 9.38693 128.664C2.93762 122.47 -0.17557 114.405 0.378319 105.351C1.16772 92.5203 8.98583 83.2539 17.2623 73.4435C20.6748 69.3929 24.2082 65.2077 27.2578 60.7065C30.9567 55.2472 33.3314 49.2335 34.5156 42.3289L34.6365 41.6245L35.2159 42.1528C51.1955 56.8425 47.8277 67.7562 43.3207 71.8896C43.0975 72.0968 42.8175 72.4749 42.5247 72.8841C42.1047 73.459 41.6336 74.1065 41.092 74.5882C41.1112 74.5986 41.1368 74.6089 41.156 74.6193C45.6126 72.335 48.5412 69.4136 50.1139 65.6791L50.3363 65.1559L50.7947 65.5651C55.824 70.0818 56.7983 75.3755 56.0344 78.8148C55.2832 82.1869 53.3033 84.3933 49.8083 85.7711C33.7007 93.1731 31.1031 99.5597 30.6893 104.828C32.039 112.037 37.1514 116.145 45.8926 116.969C52.501 116.844 57.1487 115.089 59.2686 111.898C60.7517 109.66 60.9301 107.681 59.835 105.475C58.0143 103.874 56.168 103.092 54.1945 103.092H54.1817C51.4506 103.092 48.49 104.579 44.8806 107.764L44.5871 108.018L44.2943 107.764C42.1296 105.91 42.7223 103.657 43.2055 101.849C43.3711 101.207 43.5303 100.601 43.5559 100.078C43.6454 98.3374 45.243 95.6697 48.1269 93.9397C48.9036 93.4269 49.8843 93.0748 51.2467 92.5879C52.4562 92.1526 53.9593 91.6189 55.8816 90.7591C58.3135 89.6768 62.4644 87.0403 62.9804 81.5808L63.0436 80.923L63.6484 81.3632C71.8039 87.3045 70.0856 92.7585 67.5577 96.8867C76.7444 105.62 78.578 116.052 72.5935 125.546Z" fill="#00A2DE"/>
<path d="M148.125 71.4774V114.392C148.125 119.257 147.929 122.681 147.54 124.664C147.15 126.621 145.996 128.644 144.078 130.733C142.161 132.795 139.626 134.369 136.474 135.453C133.354 136.51 129.665 137.039 125.407 137.039C120.695 137.039 116.535 136.405 112.927 135.135C109.32 133.866 106.622 132.214 104.835 130.177C103.047 128.142 101.991 126 101.666 123.752C101.341 121.478 101.179 116.719 101.179 109.474V71.4774H121.703V119.627C121.703 122.43 121.881 124.228 122.238 125.021C122.629 125.788 123.392 126.172 124.53 126.172C125.83 126.172 126.659 125.749 127.016 124.903C127.406 124.03 127.601 121.994 127.601 118.795V71.4774H148.125ZM189.392 71.4774V84.3281L174.085 122.84H189.392V135.69H151.562V126.37L167.357 84.3281H153.415V71.4774H189.392ZM193.756 71.4774H214.232C220.699 71.4774 225.59 71.8873 228.905 72.707C232.253 73.5267 234.95 75.1925 236.998 77.7044C239.045 80.1899 240.069 84.209 240.069 89.7619C240.069 93.5166 239.338 96.134 237.875 97.6148C236.445 99.0955 233.601 100.233 229.344 101.026C234.089 101.899 237.306 103.353 238.996 105.388C240.686 107.398 241.532 110.492 241.532 114.669V120.619C241.532 124.955 240.914 128.168 239.679 130.257C238.476 132.346 236.543 133.774 233.878 134.54C231.213 135.307 225.753 135.69 217.498 135.69H193.756V71.4774ZM214.28 82.4639V96.7423C215.158 96.7157 215.84 96.7024 216.327 96.7024C218.343 96.7024 219.626 96.3058 220.179 95.5125C220.731 94.6932 221.008 92.3793 221.008 88.572C221.008 86.5622 220.78 85.1607 220.325 84.3674C219.87 83.5481 219.269 83.0323 218.521 82.8208C217.806 82.6093 216.393 82.4903 214.28 82.4639ZM214.28 106.737V124.704C217.172 124.625 219.009 124.255 219.789 123.594C220.601 122.933 221.008 121.306 221.008 118.715V112.726C221.008 109.976 220.65 108.311 219.935 107.729C219.22 107.147 217.335 106.817 214.28 106.737ZM247.943 71.4774H282.165V84.3281H268.466V96.5041H281.288V108.721H268.466V122.84H283.53V135.69H247.943V71.4774ZM337.375 71.4774L325.627 100.47L338.497 135.69H317.291L309.003 108.165V135.69H288.479V71.4774H309.003V96.4249L318.119 71.4774H337.375ZM386.93 71.4774V135.69H368.942L358.266 106.499V135.69H341.105V71.4774H358.266L369.771 100.391V71.4774H386.93ZM394.219 71.4774H428.442V84.3281H414.743V96.5041H427.564V108.721H414.743V122.84H429.807V135.69H394.219V71.4774ZM434.756 71.4774H469.514V84.3281H455.28V96.5041H467.954V108.721H455.28V135.69H434.756V71.4774ZM514.877 71.4774V84.3281H502.69V135.69H482.166V84.3281H470.027V71.4774H514.877ZM518.559 71.4774H552.781V84.3281H539.083V96.5041H551.904V108.721H539.083V122.84H554.146V135.69H518.559V71.4774ZM606.187 95.1159H585.664V89.286C585.664 85.6105 585.469 83.31 585.079 82.3845C584.689 81.4591 583.763 80.9964 582.3 80.9964C581.033 80.9964 580.172 81.393 579.716 82.1862C579.261 82.9795 579.034 85.0156 579.034 88.2944V119.112C579.034 121.994 579.261 123.898 579.716 124.823C580.172 125.722 581.081 126.172 582.446 126.172C583.942 126.172 584.949 125.656 585.469 124.625C586.021 123.594 586.297 121.584 586.297 118.596V110.981H582.154V101.224H606.187V135.69H593.269L591.367 131.09C589.97 133.073 588.199 134.567 586.054 135.572C583.942 136.55 581.439 137.039 578.546 137.039C575.102 137.039 571.868 136.365 568.845 135.016C565.855 133.641 563.581 131.949 562.02 129.94C560.46 127.93 559.485 125.828 559.095 123.634C558.705 121.412 558.51 118.094 558.51 113.678V94.6007C558.51 88.4662 558.917 84.0107 559.729 81.2344C560.542 78.458 562.865 75.9196 566.7 73.6192C570.568 71.2923 575.557 70.1289 581.666 70.1289C587.679 70.1289 592.668 71.1337 596.633 73.1432C600.597 75.1528 603.181 77.5457 604.384 80.3221C605.586 83.072 606.187 87.078 606.187 92.34V95.1159ZM648.625 71.4774L660.374 135.69H639.363L638.339 124.149H630.978L629.759 135.69H608.504L618.937 71.4774H648.625ZM637.754 112.766C636.714 105.494 635.674 96.5174 634.634 85.8354C632.554 98.1039 631.254 107.081 630.734 112.766H637.754ZM699.743 71.4774V84.3281L684.435 122.84H699.743V135.69H661.911V126.37L677.705 84.3281H663.763V71.4774H699.743Z" fill="#EE7427"/>
</svg>
