<svg width="850" height="200" viewBox="0 0 850 200" fill="none" xmlns="http://www.w3.org/2000/svg">
<g clip-path="url(#clip0_25_20)">
<path d="M302.644 190.36L309.117 158.937H321.919C324.077 158.937 325.803 159.222 326.954 159.651C328.104 160.222 328.967 161.079 329.687 162.365C330.406 163.65 330.837 165.079 330.837 166.65C330.837 167.935 330.55 169.221 330.118 170.649C329.543 171.934 328.967 173.077 328.104 173.934C327.385 174.791 326.522 175.505 325.659 175.934C324.796 176.362 323.933 176.648 323.07 176.934C321.056 177.362 319.186 177.648 317.172 177.648H309.549L306.959 190.36H302.644ZM310.124 174.077H316.885C319.474 174.077 321.487 173.791 322.638 173.22C323.933 172.649 324.796 171.792 325.515 170.506C326.234 169.363 326.666 168.078 326.666 166.792C326.666 165.793 326.522 164.936 326.09 164.222C325.659 163.507 325.084 163.079 324.508 162.793C323.789 162.508 322.494 162.365 320.337 162.365H312.425L310.124 174.077ZM331.556 190.36L337.886 158.937H341.625L339.18 170.935C340.619 169.506 341.913 168.506 343.064 167.935C344.215 167.364 345.509 167.078 346.804 167.078C348.674 167.078 350.112 167.507 351.119 168.506C352.126 169.506 352.701 170.792 352.701 172.506C352.701 173.363 352.414 174.791 351.982 176.934L349.249 190.36H345.509L348.386 176.648C348.818 174.648 348.961 173.363 348.961 172.934C348.961 172.22 348.674 171.649 348.242 171.077C347.811 170.649 346.948 170.363 346.085 170.363C344.79 170.363 343.352 170.792 342.201 171.506C340.906 172.22 340.043 173.22 339.324 174.505C338.605 175.791 338.029 177.791 337.454 180.647L335.44 190.36H331.556ZM371.113 187.646C369.819 188.789 368.524 189.646 367.373 190.217C366.222 190.788 364.928 191.074 363.489 191.074C361.476 191.074 359.75 190.503 358.599 189.217C357.304 187.932 356.729 186.36 356.729 184.504C356.729 183.218 357.017 182.075 357.592 181.076C358.167 180.076 358.886 179.362 359.893 178.647C360.9 178.076 361.907 177.648 363.346 177.362C364.209 177.219 365.791 177.076 368.236 176.934C370.682 176.791 372.264 176.648 373.415 176.219C373.702 175.22 373.846 174.22 373.846 173.648C373.846 172.791 373.558 172.077 372.839 171.506C371.976 170.792 370.682 170.506 368.955 170.506C367.373 170.506 366.079 170.792 365.072 171.649C364.065 172.363 363.346 173.363 362.914 174.648L359.03 174.363C359.75 172.077 361.044 170.363 362.77 169.221C364.496 168.078 366.654 167.364 369.243 167.364C371.976 167.364 374.134 168.078 375.716 169.363C377.011 170.363 377.586 171.649 377.586 173.22C377.586 174.363 377.442 175.791 377.011 177.505L375.716 183.218C375.285 185.075 375.141 186.503 375.141 187.646C375.141 188.36 375.285 189.36 375.572 190.788H371.688C371.401 189.646 371.257 188.789 371.113 187.646ZM372.552 178.933C371.976 179.076 371.401 179.362 370.825 179.362C370.25 179.504 369.243 179.647 367.805 179.79C365.647 179.933 364.065 180.219 363.202 180.504C362.339 180.79 361.62 181.361 361.188 181.933C360.756 182.647 360.469 183.361 360.469 184.218C360.469 185.361 360.9 186.218 361.619 186.932C362.339 187.646 363.346 187.932 364.784 187.932C366.079 187.932 367.229 187.646 368.38 186.932C369.531 186.218 370.394 185.361 371.113 184.075C371.688 182.932 372.12 181.076 372.552 178.933ZM380.751 190.36L385.353 167.649H388.662L387.799 172.22C388.95 170.506 390.1 169.221 391.107 168.364C392.258 167.507 393.265 167.078 394.416 167.078C395.135 167.078 396.142 167.364 397.149 167.935L395.566 171.506C394.847 171.077 394.128 170.792 393.409 170.792C392.114 170.792 390.676 171.506 389.381 173.077C387.943 174.648 386.936 177.362 386.073 181.218L384.203 190.36H380.751ZM395.854 190.36L400.457 167.649H404.197L403.478 171.363C404.916 169.792 406.067 168.649 407.218 168.078C408.368 167.507 409.519 167.221 410.814 167.221C412.252 167.221 413.403 167.649 414.266 168.364C415.129 169.078 415.848 170.22 416.136 171.506C417.286 170.078 418.437 169.078 419.732 168.364C421.026 167.649 422.321 167.364 423.616 167.364C425.485 167.364 426.924 167.792 427.787 168.649C428.65 169.506 429.225 170.792 429.225 172.363C429.225 173.077 429.082 174.22 428.794 175.791L425.773 190.36H422.033L425.054 175.362C425.342 174.077 425.485 173.22 425.485 172.791C425.485 172.077 425.198 171.506 424.766 171.077C424.335 170.649 423.616 170.363 422.896 170.363C421.746 170.363 420.595 170.649 419.444 171.363C418.293 172.077 417.43 172.934 416.711 174.077C415.992 175.22 415.56 176.934 414.985 179.362L412.683 190.36H408.944L412.108 175.077C412.396 174.077 412.396 173.363 412.396 172.791C412.396 172.077 412.108 171.506 411.677 170.935C411.245 170.506 410.67 170.22 409.95 170.22C408.944 170.22 407.793 170.506 406.642 171.22C405.491 171.934 404.485 172.934 403.765 174.077C403.046 175.362 402.471 177.076 401.895 179.362L399.738 190.074L395.854 190.36ZM447.206 187.646C445.911 188.789 444.616 189.646 443.466 190.217C442.315 190.788 441.02 191.074 439.582 191.074C437.568 191.074 435.842 190.503 434.691 189.217C433.397 187.932 432.821 186.36 432.821 184.504C432.821 183.218 433.109 182.075 433.684 181.076C434.26 180.076 434.979 179.362 435.986 178.647C436.849 178.076 438 177.648 439.438 177.362C440.301 177.219 441.883 177.076 444.329 176.934C446.774 176.791 448.356 176.648 449.507 176.219C449.795 175.22 449.939 174.22 449.939 173.648C449.939 172.791 449.651 172.077 448.932 171.506C448.069 170.792 446.774 170.506 445.048 170.506C443.466 170.506 442.171 170.792 441.164 171.649C440.157 172.363 439.438 173.363 439.007 174.648L435.123 174.363C435.842 172.077 437.137 170.363 438.863 169.221C440.589 168.078 442.747 167.364 445.336 167.364C448.069 167.364 450.226 168.078 451.809 169.363C453.103 170.363 453.679 171.649 453.679 173.22C453.679 174.363 453.535 175.791 453.103 177.505L451.809 183.218C451.377 185.075 451.233 186.503 451.233 187.646C451.233 188.36 451.377 189.36 451.665 190.788H447.781C447.493 189.646 447.349 188.789 447.206 187.646ZM448.644 178.933C448.069 179.076 447.493 179.362 446.918 179.362C446.343 179.504 445.336 179.647 443.897 179.79C441.74 179.933 440.157 180.219 439.294 180.504C438.431 180.79 437.712 181.361 437.281 181.933C436.849 182.647 436.561 183.361 436.561 184.218C436.561 185.361 436.993 186.218 437.712 186.932C438.431 187.646 439.438 187.932 440.877 187.932C442.171 187.932 443.322 187.646 444.473 186.932C445.623 186.218 446.486 185.361 447.206 184.075C447.781 182.932 448.213 181.076 448.644 178.933ZM472.234 182.075L475.974 182.504C474.967 185.361 473.673 187.503 471.947 188.789C470.22 190.217 468.207 190.788 466.049 190.788C463.604 190.788 461.734 189.931 460.151 188.36C458.713 186.789 457.85 184.504 457.85 181.647C457.85 179.219 458.281 176.791 459.288 174.363C460.295 171.934 461.59 170.078 463.46 168.935C465.186 167.649 467.344 167.078 469.645 167.078C472.09 167.078 473.96 167.792 475.255 169.078C476.693 170.506 477.413 172.22 477.413 174.505L473.673 174.791C473.673 173.363 473.241 172.22 472.522 171.363C471.659 170.506 470.652 170.078 469.357 170.078C467.775 170.078 466.481 170.506 465.474 171.506C464.323 172.506 463.46 173.934 462.884 175.934C462.309 177.933 461.878 179.933 461.878 181.79C461.878 183.789 462.309 185.218 463.172 186.218C464.035 187.217 465.042 187.646 466.193 187.646C467.487 187.646 468.638 187.217 469.645 186.218C470.652 185.503 471.515 184.075 472.234 182.075ZM495.393 182.647L499.133 183.075C498.557 184.932 497.407 186.789 495.537 188.36C493.667 190.074 491.365 190.931 488.776 190.931C487.194 190.931 485.612 190.503 484.317 189.788C482.879 189.074 481.872 187.932 481.152 186.36C480.433 184.932 480.146 183.218 480.146 181.218C480.146 178.79 480.721 176.362 481.872 173.934C483.022 171.649 484.461 169.935 486.187 168.792C487.913 167.649 489.927 167.078 491.941 167.078C494.53 167.078 496.687 167.935 498.27 169.649C499.852 171.363 500.571 173.648 500.571 176.505C500.571 177.648 500.427 178.79 500.283 179.933H483.885C483.885 180.362 483.742 180.79 483.742 181.076C483.742 183.218 484.173 184.789 485.18 185.932C486.187 187.075 487.338 187.646 488.632 187.646C489.927 187.646 491.221 187.217 492.516 186.36C493.667 185.646 494.674 184.361 495.393 182.647ZM484.317 177.076H496.831C496.831 176.648 496.831 176.362 496.831 176.219C496.831 174.22 496.4 172.791 495.393 171.792C494.386 170.792 493.235 170.22 491.797 170.22C490.214 170.22 488.776 170.792 487.338 171.934C486.043 173.077 485.036 174.791 484.317 177.076ZM518.839 186.36C516.106 189.503 513.517 190.931 510.64 190.931C508.914 190.931 507.476 190.36 506.469 189.36C505.462 188.36 504.886 187.075 504.886 185.646C504.886 184.646 505.174 183.075 505.606 180.79L508.339 167.649H512.079L509.058 182.218C508.77 183.361 508.626 184.361 508.626 185.075C508.626 185.932 508.914 186.646 509.346 187.075C509.921 187.503 510.64 187.789 511.647 187.789C512.654 187.789 513.805 187.503 514.812 186.932C515.818 186.36 516.681 185.646 517.401 184.789C518.12 183.932 518.695 182.79 519.127 181.647C519.414 180.79 519.846 179.505 520.134 177.505L522.147 167.649H525.887L521.284 190.36H517.832L518.839 186.36ZM537.107 187.217L536.532 190.36C535.669 190.645 534.806 190.788 533.943 190.788C532.504 190.788 531.21 190.36 530.347 189.646C529.627 189.074 529.34 188.36 529.34 187.36C529.34 186.932 529.483 185.646 529.915 183.932L532.648 170.792H529.627L530.203 167.792H533.223L534.374 162.222L538.689 159.508L536.963 167.792H540.703L540.128 170.792H536.388L533.655 183.218C533.367 184.789 533.223 185.789 533.223 186.075C533.223 186.503 533.367 186.932 533.655 187.075C533.943 187.36 534.374 187.503 534.949 187.503C535.669 187.503 536.388 187.503 537.107 187.217ZM546.313 163.365L547.176 158.937H550.916L550.053 163.365H546.313ZM540.847 190.36L545.45 167.649H549.19L544.587 190.36H540.847ZM566.595 182.075L570.335 182.504C569.328 185.361 568.033 187.503 566.307 188.789C564.581 190.217 562.567 190.788 560.41 190.788C557.964 190.788 556.094 189.931 554.512 188.36C553.074 186.789 552.211 184.504 552.211 181.647C552.211 179.219 552.642 176.791 553.649 174.363C554.656 171.934 555.95 170.078 557.82 168.935C559.546 167.649 561.704 167.078 564.006 167.078C566.451 167.078 568.321 167.792 569.615 169.078C571.054 170.506 571.773 172.22 571.773 174.505L568.033 174.791C568.033 173.363 567.602 172.22 566.882 171.363C566.019 170.506 565.012 170.078 563.718 170.078C562.136 170.078 560.841 170.506 559.834 171.506C558.683 172.506 557.82 173.934 557.245 175.934C556.67 177.933 556.238 179.933 556.238 181.79C556.238 183.789 556.67 185.218 557.533 186.218C558.396 187.217 559.403 187.646 560.553 187.646C561.848 187.646 562.999 187.217 564.149 186.218C565.012 185.503 565.876 184.075 566.595 182.075ZM588.459 187.646C587.164 188.789 585.87 189.646 584.719 190.217C583.568 190.788 582.274 191.074 580.835 191.074C578.821 191.074 577.095 190.503 575.944 189.217C574.65 187.932 574.075 186.36 574.075 184.504C574.075 183.218 574.362 182.075 574.938 181.076C575.513 180.076 576.232 179.362 577.239 178.647C578.102 178.076 579.253 177.648 580.691 177.362C581.554 177.219 583.137 177.076 585.582 176.934C588.027 176.791 589.61 176.648 590.616 176.219C590.904 175.22 591.048 174.22 591.048 173.648C591.048 172.791 590.76 172.077 590.041 171.506C589.178 170.792 587.883 170.506 586.157 170.506C584.575 170.506 583.28 170.792 582.274 171.649C581.267 172.363 580.547 173.363 580.116 174.648L576.232 174.363C576.951 172.077 578.246 170.363 579.972 169.221C581.698 168.078 583.856 167.364 586.445 167.364C589.178 167.364 591.336 168.078 592.918 169.363C594.212 170.363 594.788 171.649 594.788 173.22C594.788 174.363 594.644 175.791 594.212 177.505L592.918 183.218C592.486 185.075 592.342 186.503 592.342 187.646C592.342 188.36 592.486 189.36 592.774 190.788H588.89C588.603 189.646 588.459 188.789 588.459 187.646ZM589.753 178.933C589.178 179.076 588.603 179.362 588.027 179.362C587.452 179.504 586.445 179.647 585.007 179.79C582.849 179.933 581.267 180.219 580.404 180.504C579.541 180.79 578.821 181.361 578.39 181.933C577.958 182.647 577.671 183.361 577.671 184.218C577.671 185.361 578.102 186.218 578.821 186.932C579.541 187.646 580.547 187.932 581.986 187.932C583.28 187.932 584.431 187.646 585.582 186.932C586.733 186.218 587.596 185.361 588.315 184.075C588.89 182.932 589.466 181.076 589.753 178.933ZM597.809 190.36L604.138 158.937H607.877L601.548 190.36H597.809ZM644.701 179.362L648.729 179.933C647.434 183.504 645.564 186.36 643.119 188.217C640.674 190.074 637.941 190.931 634.92 190.931C631.18 190.931 628.303 189.788 626.002 187.503C623.844 185.218 622.693 181.79 622.693 177.505C622.693 171.792 624.419 167.221 627.728 163.507C630.748 160.222 634.344 158.508 638.804 158.508C642.112 158.508 644.701 159.365 646.715 161.222C648.729 162.936 649.879 165.364 650.167 168.364L646.283 168.792C645.852 166.507 644.989 164.793 643.838 163.65C642.543 162.508 640.961 161.936 638.947 161.936C635.208 161.936 632.187 163.65 629.885 167.078C627.872 170.078 626.865 173.506 626.865 177.505C626.865 180.79 627.584 183.218 629.166 184.932C630.748 186.646 632.762 187.503 635.208 187.503C637.365 187.503 639.235 186.789 640.961 185.361C642.543 183.932 643.838 181.933 644.701 179.362ZM652.612 181.79C652.612 177.362 653.907 173.648 656.496 170.792C658.654 168.364 661.387 167.221 664.839 167.221C667.572 167.221 669.73 168.078 671.312 169.792C672.894 171.506 673.757 173.791 673.757 176.791C673.757 179.362 673.182 181.79 672.175 184.075C671.168 186.36 669.73 188.074 667.716 189.217C665.846 190.36 663.832 191.074 661.674 191.074C659.948 191.074 658.366 190.645 656.928 189.931C655.489 189.217 654.482 188.074 653.619 186.789C653.044 185.218 652.612 183.647 652.612 181.79ZM656.352 181.361C656.352 183.504 656.928 185.075 657.791 186.218C658.798 187.36 660.092 187.932 661.674 187.932C662.538 187.932 663.257 187.789 664.12 187.36C664.983 187.075 665.702 186.503 666.277 185.789C666.997 185.075 667.572 184.361 668.004 183.504C668.435 182.647 668.867 181.647 669.154 180.647C669.586 179.219 669.874 177.933 669.874 176.648C669.874 174.648 669.298 172.934 668.291 171.792C667.284 170.649 665.99 170.078 664.551 170.078C663.401 170.078 662.25 170.363 661.243 170.935C660.236 171.506 659.373 172.363 658.654 173.506C657.935 174.648 657.359 175.934 656.928 177.362C656.64 178.933 656.352 180.219 656.352 181.361ZM676.49 190.36L681.093 167.649H684.833L684.114 171.363C685.552 169.792 686.703 168.649 687.854 168.078C689.005 167.507 690.155 167.221 691.45 167.221C692.888 167.221 694.039 167.649 694.902 168.364C695.765 169.078 696.484 170.22 696.772 171.506C697.923 170.078 699.073 169.078 700.368 168.364C701.663 167.649 702.957 167.364 704.252 167.364C706.122 167.364 707.56 167.792 708.423 168.649C709.286 169.506 709.862 170.792 709.862 172.363C709.862 173.077 709.718 174.22 709.43 175.791L706.409 190.36H702.67L705.69 175.362C705.978 174.077 706.122 173.22 706.122 172.791C706.122 172.077 705.834 171.506 705.403 171.077C704.971 170.649 704.252 170.363 703.533 170.363C702.382 170.363 701.231 170.649 700.08 171.363C698.93 172.077 698.067 172.934 697.347 174.077C696.628 175.22 696.197 176.934 695.621 179.362L693.32 190.36H689.58L692.744 175.077C693.032 174.077 693.032 173.363 693.032 172.791C693.032 172.077 692.744 171.506 692.313 170.935C691.881 170.506 691.306 170.22 690.587 170.22C689.58 170.22 688.429 170.506 687.278 171.22C686.128 171.934 685.121 172.934 684.402 174.077C683.682 175.362 683.107 177.076 682.532 179.362L680.374 190.36H676.49ZM711.156 199.072L717.629 167.649H721.081L720.362 170.792C721.657 169.363 722.807 168.506 723.814 167.935C724.821 167.364 725.972 167.078 727.123 167.078C729.28 167.078 731.006 167.935 732.445 169.506C733.883 171.077 734.603 173.363 734.603 176.219C734.603 178.648 734.171 180.79 733.452 182.647C732.733 184.646 731.726 186.218 730.575 187.36C729.424 188.503 728.273 189.36 727.267 189.931C726.116 190.503 724.965 190.788 723.814 190.788C721.081 190.788 719.068 189.36 717.629 186.646L715.184 198.93L711.156 199.072ZM718.636 181.076C718.636 182.79 718.78 183.932 718.924 184.646C719.211 185.503 719.787 186.36 720.65 186.932C721.513 187.503 722.376 187.789 723.383 187.789C725.54 187.789 727.267 186.503 728.705 184.075C730 181.504 730.719 179.076 730.719 176.362C730.719 174.505 730.287 172.934 729.424 171.934C728.561 170.935 727.41 170.363 726.116 170.363C725.109 170.363 724.246 170.649 723.383 171.077C722.52 171.649 721.801 172.363 721.081 173.363C720.362 174.363 719.787 175.648 719.355 177.219C718.78 178.647 718.636 180.076 718.636 181.076ZM752.583 187.646C751.288 188.789 749.994 189.646 748.843 190.217C747.692 190.788 746.398 191.074 744.959 191.074C742.945 191.074 741.219 190.503 740.069 189.217C738.774 187.932 738.199 186.36 738.199 184.504C738.199 183.218 738.486 182.075 739.062 181.076C739.637 180.076 740.356 179.362 741.363 178.647C742.226 178.076 743.377 177.648 744.815 177.362C745.678 177.219 747.261 177.076 749.706 176.934C752.151 176.791 753.734 176.648 754.884 176.219C755.172 175.22 755.316 174.22 755.316 173.648C755.316 172.791 755.028 172.077 754.309 171.506C753.446 170.792 752.151 170.506 750.425 170.506C748.843 170.506 747.548 170.792 746.541 171.649C745.535 172.363 744.815 173.363 744.384 174.648L740.5 174.363C741.219 172.077 742.514 170.363 744.24 169.221C745.966 168.078 748.124 167.364 750.713 167.364C753.446 167.364 755.604 168.078 757.186 169.363C758.48 170.363 759.056 171.649 759.056 173.22C759.056 174.363 758.912 175.791 758.48 177.505L757.186 183.218C756.754 185.075 756.61 186.503 756.61 187.646C756.61 188.36 756.754 189.36 757.042 190.788H753.158C752.727 189.646 752.583 188.789 752.583 187.646ZM754.021 178.933C753.446 179.076 752.87 179.362 752.295 179.362C751.72 179.504 750.713 179.647 749.274 179.79C747.117 179.933 745.535 180.219 744.672 180.504C743.808 180.79 743.089 181.361 742.658 181.933C742.226 182.647 741.938 183.361 741.938 184.218C741.938 185.361 742.37 186.218 743.089 186.932C743.808 187.646 744.815 187.932 746.254 187.932C747.548 187.932 748.699 187.646 749.85 186.932C751.001 186.218 751.864 185.361 752.583 184.075C753.014 182.932 753.59 181.076 754.021 178.933ZM762.22 190.36L766.823 167.649H770.275L769.412 171.649C770.851 170.078 772.289 168.935 773.584 168.221C774.878 167.507 776.173 167.078 777.611 167.078C779.337 167.078 780.776 167.649 781.783 168.506C782.79 169.506 783.365 170.792 783.365 172.506C783.365 173.363 783.221 174.648 782.79 176.505L779.913 190.217H776.173L779.05 175.791C779.337 174.363 779.481 173.363 779.481 172.649C779.481 171.934 779.194 171.22 778.762 170.792C778.187 170.363 777.468 170.078 776.605 170.078C774.591 170.078 773.008 170.792 771.426 172.22C769.844 173.648 768.837 176.077 768.118 179.504L765.96 190.074L762.22 190.36ZM785.379 199.215L785.667 195.644C786.386 195.93 787.249 195.93 787.968 195.93C788.687 195.93 789.406 195.787 789.838 195.359C790.413 194.93 791.133 193.931 791.852 192.645L793.002 190.36L789.263 167.507H793.002L794.729 178.933C795.016 181.218 795.304 183.504 795.592 185.789L805.517 167.507H809.401L795.304 193.216C793.866 195.787 792.715 197.358 791.708 198.215C790.701 199.072 789.406 199.501 788.112 199.501C787.105 199.644 786.242 199.501 785.379 199.215ZM633.913 90.2348L629.885 109.66H643.55C645.276 109.66 646.715 108.946 647.578 107.66C648.441 106.232 649.304 103.804 650.167 99.9473C651.03 96.0909 651.174 93.5198 650.886 92.2344C650.599 90.9489 649.448 90.2348 647.578 90.2348H633.913ZM484.173 90.2348L480.146 109.66H493.811C495.537 109.66 496.975 108.946 497.838 107.66C498.701 106.232 499.564 103.804 500.427 99.9473C501.29 96.0909 501.434 93.5198 501.146 92.2344C500.859 90.9489 499.708 90.2348 497.838 90.2348H484.173ZM411.389 90.2348L409.663 98.3761H423.04C423.903 98.3761 424.622 98.0905 425.198 97.5192C425.773 96.9478 426.061 95.8052 426.492 94.3768C426.78 92.8057 426.78 91.8059 426.492 91.0917C426.205 90.5204 425.629 90.2348 424.766 90.2348H411.389ZM370.682 90.9489C369.675 91.8059 368.668 94.8054 367.517 99.9473C366.366 105.089 366.222 108.089 366.798 108.946C367.373 109.803 370.106 110.231 374.853 110.231C379.6 110.231 382.477 109.803 383.484 108.946C384.49 108.089 385.497 105.089 386.648 99.9473C387.799 94.8054 387.943 91.8059 387.367 90.9489C386.792 90.0919 384.059 89.6634 379.312 89.6634C374.565 89.6634 371.688 90.0919 370.682 90.9489ZM250.717 146.368H850.108V53.527H250.717C233.888 21.6756 200.228 -0.0348296 161.535 -0.0348296C122.841 -0.0348296 89.1822 21.6756 72.3527 53.527H0V146.368H72.3527C89.1822 178.219 122.841 199.929 161.391 199.929H161.535C200.228 199.929 233.744 178.219 250.717 146.368ZM350.687 79.808H359.606L340.619 120.229H327.817C327.817 118.087 329.111 89.8062 328.967 89.8062C328.823 89.8062 318.323 117.944 317.46 120.229H304.658L302.644 79.808H311.562L312.857 109.66L326.234 79.808H336.159L336.016 109.66L350.687 79.808ZM359.318 100.09C361.332 90.2347 363.346 84.3786 365.359 82.5218C367.517 80.3794 372.983 79.3795 381.614 79.3795C390.244 79.3795 395.135 80.3794 396.429 82.5218C397.58 84.5215 397.149 90.3776 395.135 100.233C393.121 109.946 391.107 115.802 389.093 117.801C386.936 119.944 381.47 120.944 372.839 120.944C366.51 120.944 362.483 120.658 360.613 119.944C358.311 119.087 357.16 117.23 357.16 114.23C357.017 111.945 357.736 107.232 359.318 100.09ZM405.348 79.808H429.657C432.678 79.808 434.548 80.6651 435.554 82.379C436.561 84.093 436.561 87.0924 435.554 91.5202C434.835 94.9482 433.972 97.5192 433.109 99.2331C432.246 100.947 430.951 102.09 429.369 102.947C430.664 103.947 431.527 104.946 431.815 105.946C432.102 106.946 431.958 108.66 431.383 111.231L429.513 120.229H421.17L422.752 112.945C423.04 111.945 423.04 110.945 422.752 110.231C422.465 109.231 421.889 108.803 420.883 108.803H407.649L405.204 120.087H396.861L405.348 79.808ZM446.055 79.808H454.398L448.069 109.66H467.056L464.898 120.087H437.568L446.055 79.808ZM469.501 120.229L477.988 79.808H501.434C506.181 79.808 509.058 81.2363 509.921 84.0929C510.784 86.6639 510.352 92.0915 508.626 100.09C506.9 108.089 505.174 113.373 503.16 115.944C501.003 118.801 497.55 120.229 492.804 120.229H469.501ZM540.128 79.808H555.087C555.375 81.9505 556.957 107.375 557.101 107.375C557.245 107.375 569.759 81.6648 570.622 79.808H584.863L576.376 120.229H568.033C568.609 117.801 574.938 88.3779 574.938 88.3779C573.787 88.9492 559.259 117.516 557.82 120.229H550.916C550.628 117.801 546.601 88.3779 546.457 88.3779C545.881 88.3779 540.415 117.516 539.84 120.229H531.497L540.128 79.808ZM592.055 79.808H621.255L619.241 89.5206H598.384L597.233 95.091H617.083L615.07 104.804H595.076L593.925 110.374H614.782L612.768 120.087H583.568L592.055 79.808ZM627.728 79.808H651.174C655.921 79.808 658.798 81.2363 659.661 84.0929C660.524 86.6639 660.092 92.0915 658.366 100.09C656.64 108.089 654.914 113.373 652.9 115.944C650.742 118.801 647.29 120.229 642.543 120.229H619.097L627.728 79.808ZM660.955 120.229L669.442 79.808H677.785L669.298 120.229H660.955ZM684.258 82.5218C686.415 80.3794 691.45 79.2367 699.217 79.2367C706.985 79.2367 711.588 80.2365 712.882 82.0934C714.033 83.8073 714.033 88.0923 712.451 95.2339H704.108C704.539 92.9486 704.539 91.3774 703.82 90.806C702.957 89.9491 700.656 89.6634 697.06 89.6634C693.032 89.6634 690.587 90.0919 689.58 91.0917C688.717 91.9487 687.71 94.9482 686.559 100.09C685.552 105.232 685.265 108.089 685.696 109.088C686.272 109.945 688.573 110.374 692.601 110.374C696.34 110.374 698.642 110.088 699.793 109.374C700.8 108.66 701.663 107.232 702.094 104.661H710.437C708.855 111.802 707.272 116.23 705.403 117.801C703.245 119.658 698.21 120.658 690.443 120.658C682.675 120.658 678.216 119.658 676.922 117.516C675.771 115.373 676.203 109.517 678.216 99.9473C680.23 90.3776 682.244 84.5215 684.258 82.5218ZM712.451 120.229L720.938 79.808H729.28L720.794 120.229H712.451ZM727.41 120.229L735.897 79.808H749.562C750.281 82.379 757.905 111.802 758.049 111.802C758.193 111.659 758.193 111.517 758.193 111.517C760.35 101.09 761.933 90.3775 764.09 79.808H772.433L763.946 120.229H750.281C749.562 117.658 741.938 88.2351 741.795 88.2351L741.651 88.5208C739.493 98.8047 737.911 109.803 735.753 120.229H727.41ZM780.057 79.808H809.257L807.243 89.5206H786.386L785.235 95.091H805.229L803.215 104.804H783.221L782.07 110.374H802.928L800.914 120.087H771.714L780.057 79.808ZM63.7221 99.9473C63.7221 83.0932 68.0374 67.3817 75.661 53.527C80.1201 45.3856 85.8738 37.8156 92.3467 31.3881C110.039 13.8198 134.493 2.9646 161.391 2.9646C188.433 2.9646 212.743 13.8198 230.435 31.3881C237.052 37.9584 242.662 45.3856 247.121 53.527C254.745 67.3817 259.06 83.0932 259.06 99.9473C259.06 116.801 254.745 132.513 247.121 146.368C242.662 154.509 236.908 162.079 230.435 168.506C212.743 186.075 188.29 196.93 161.391 196.93C134.349 196.93 110.039 186.075 92.3467 168.506C85.73 161.936 80.1201 154.509 75.661 146.368C68.0374 132.656 63.7221 116.801 63.7221 99.9473ZM181.96 53.6698L150.459 146.51L137.513 184.789C145.137 186.932 153.192 188.074 161.535 188.074C185.988 188.074 208.14 178.219 224.25 162.365C228.422 158.223 232.305 153.652 235.614 148.653L234.607 146.51L214.325 102.233L200.228 146.51L198.646 151.367H195.194L193.899 146.51L181.385 102.09L166.713 146.51L165.131 151.224L147.726 177.791L157.507 146.51L177.933 80.8078H181.385L189.153 104.661L196.92 128.514L204.688 104.661L212.455 80.8078H215.907L241.367 138.226C246.977 126.657 250.142 113.802 250.142 100.09C250.142 83.0931 245.251 67.096 236.764 53.6698C233.168 47.9566 228.853 42.6718 224.106 37.8156C215.62 29.3885 205.407 22.6754 194.043 18.1048L181.96 53.6698ZM88.463 53.6698L108.745 97.9476L122.841 53.6698L124.424 48.8136H127.876L129.17 53.6698L141.685 98.0905L156.357 53.6698L157.939 48.9564L175.344 22.3898L165.562 53.6698L145.137 119.372H141.685L133.773 95.5195L126.006 71.6667L118.238 95.5195L110.471 119.372H107.019L81.5586 61.954C75.9487 73.5234 72.7842 86.3783 72.7842 100.09C72.7842 117.087 77.6748 133.084 86.1615 146.51C89.7576 152.224 94.0728 157.508 98.8196 162.365C107.306 170.792 117.519 177.505 128.883 182.075L140.965 146.653L172.467 53.8127L185.413 15.5338C177.789 13.3913 169.734 12.2487 161.391 12.2487C136.938 12.2487 114.786 22.104 98.6758 37.9583C94.5044 42.1005 90.6206 46.6711 87.3123 51.6702L88.463 53.6698Z" fill="#0931A8"/>
</g>
<defs>
<clipPath id="clip0_25_20">
<rect width="850" height="200" fill="white"/>
</clipPath>
</defs>
</svg>
